<svg width="45" height="45" viewBox="0 0 45 45" fill="none" xmlns="http://www.w3.org/2000/svg">
<rect x="0.5" y="0.5" width="44" height="44" rx="4.5" stroke="#0C6553"/>
<path d="M22.5 13.5625C20.1296 13.5625 17.8563 14.5041 16.1802 16.1802C14.5041 17.8563 13.5625 20.1296 13.5625 22.5C13.5625 24.8704 14.5041 27.1437 16.1802 28.8198C17.8563 30.4959 20.1296 31.4375 22.5 31.4375C24.3485 31.4375 26.2898 30.8806 27.6932 29.9482C27.7684 29.8982 27.8331 29.8339 27.8834 29.7589C27.9338 29.6839 27.9689 29.5998 27.9867 29.5112C28.0045 29.4227 28.0048 29.3315 27.9874 29.2429C27.97 29.1543 27.9353 29.0699 27.8853 28.9947C27.8353 28.9195 27.771 28.8549 27.696 28.8045C27.621 28.7542 27.5369 28.7191 27.4483 28.7012C27.3598 28.6834 27.2686 28.6832 27.18 28.7006C27.0913 28.718 27.007 28.7527 26.9318 28.8027C25.7656 29.5795 24.0649 30.0625 22.5 30.0625C21.0043 30.0625 19.5421 29.619 18.2985 28.788C17.0549 27.957 16.0855 26.7759 15.5132 25.394C14.9408 24.0122 14.791 22.4916 15.0828 21.0246C15.3746 19.5576 16.0949 18.2101 17.1525 17.1525C18.2101 16.0949 19.5576 15.3746 21.0246 15.0828C22.4916 14.791 24.0122 14.9408 25.394 15.5132C26.7759 16.0855 27.957 17.0549 28.788 18.2985C29.619 19.5421 30.0625 21.0043 30.0625 22.5C30.0625 24.773 29.1275 25.25 28.3438 25.25C27.56 25.25 26.625 24.773 26.625 22.5V19.0625C26.625 18.8802 26.5526 18.7053 26.4236 18.5764C26.2947 18.4474 26.1198 18.375 25.9375 18.375C25.7552 18.375 25.5803 18.4474 25.4514 18.5764C25.3224 18.7053 25.25 18.8802 25.25 19.0625V19.4286C24.633 18.8754 23.8638 18.5209 23.0424 18.4112C22.2211 18.3015 21.3858 18.4417 20.6453 18.8136C19.9048 19.1854 19.2934 19.7716 18.8908 20.4959C18.4883 21.2202 18.3132 22.0489 18.3883 22.8741C18.4635 23.6993 18.7855 24.4828 19.3123 25.1224C19.8391 25.762 20.5463 26.2281 21.3418 26.46C22.1373 26.692 22.9842 26.6789 23.7722 26.4226C24.5602 26.1663 25.2527 25.6786 25.7596 25.0231C26.2752 26.0544 27.1647 26.625 28.3438 26.625C30.2808 26.625 31.4375 25.0833 31.4375 22.5C31.435 20.1304 30.4926 17.8586 28.817 16.183C27.1414 14.5074 24.8696 13.565 22.5 13.5625ZM22.5 25.25C21.9561 25.25 21.4244 25.0887 20.9722 24.7865C20.5199 24.4844 20.1675 24.0549 19.9593 23.5524C19.7512 23.0499 19.6967 22.4969 19.8028 21.9635C19.9089 21.4301 20.1709 20.9401 20.5555 20.5555C20.9401 20.1709 21.4301 19.9089 21.9635 19.8028C22.4969 19.6967 23.0499 19.7512 23.5524 19.9593C24.0549 20.1675 24.4844 20.5199 24.7865 20.9722C25.0887 21.4244 25.25 21.9561 25.25 22.5C25.25 23.2293 24.9603 23.9288 24.4445 24.4445C23.9288 24.9603 23.2293 25.25 22.5 25.25Z" fill="#01A35B"/>
</svg>
