<svg width="45" height="45" viewBox="0 0 45 45" fill="none" xmlns="http://www.w3.org/2000/svg">
<rect x="0.5" y="0.5" width="44" height="44" rx="4.5" stroke="#0C6553"/>
<path d="M23.8982 15.4472C23.9215 15.3599 23.9618 15.2781 24.0168 15.2065C24.0718 15.1348 24.1403 15.0747 24.2185 15.0295C24.2967 14.9843 24.3831 14.955 24.4726 14.9432C24.5622 14.9314 24.6532 14.9374 24.7404 14.9608C26.0149 15.2933 27.1777 15.9596 28.1091 16.891C29.0405 17.8223 29.7068 18.9852 30.0393 20.2597C30.0627 20.3469 30.0687 20.4379 30.0569 20.5275C30.0451 20.617 30.0158 20.7033 29.9706 20.7816C29.9254 20.8598 29.8653 20.9283 29.7936 20.9833C29.7219 21.0382 29.6402 21.0785 29.5529 21.1019C29.4948 21.1171 29.435 21.1249 29.375 21.1251C29.2235 21.1251 29.0763 21.075 28.9561 20.9827C28.836 20.8904 28.7497 20.761 28.7107 20.6146C28.4395 19.5742 27.8957 18.6249 27.1355 17.8646C26.3752 17.1043 25.4259 16.5606 24.3855 16.2894C24.2981 16.2661 24.2163 16.2259 24.1445 16.171C24.0727 16.116 24.0125 16.0475 23.9672 15.9693C23.922 15.8911 23.8926 15.8047 23.8807 15.7151C23.8689 15.6255 23.8748 15.5345 23.8982 15.4472ZM23.698 19.0394C24.8831 19.3556 25.6445 20.117 25.9607 21.3021C25.9997 21.4485 26.086 21.5779 26.2061 21.6702C26.3263 21.7625 26.4735 21.8126 26.625 21.8126C26.685 21.8124 26.7448 21.8046 26.8029 21.7894C26.8902 21.766 26.9719 21.7257 27.0436 21.6708C27.1153 21.6158 27.1754 21.5473 27.2206 21.4691C27.2658 21.3908 27.2951 21.3045 27.3069 21.215C27.3187 21.1254 27.3127 21.0344 27.2893 20.9472C26.8493 19.3006 25.6995 18.1508 24.0529 17.7108C23.8767 17.6637 23.6891 17.6886 23.5312 17.7799C23.3733 17.8712 23.2582 18.0214 23.2111 18.1976C23.1641 18.3738 23.1889 18.5615 23.2802 18.7193C23.3715 18.8772 23.5218 18.9923 23.698 19.0394ZM30.7397 27.2335C30.5865 28.398 30.0146 29.4669 29.1309 30.2405C28.2471 31.0142 27.112 31.4397 25.9375 31.4376C19.1141 31.4376 13.5625 25.886 13.5625 19.0626C13.5604 17.8881 13.9859 16.7529 14.7596 15.8692C15.5332 14.9855 16.6021 14.4136 17.7666 14.2604C18.061 14.2244 18.3592 14.2847 18.6167 14.4321C18.8741 14.5796 19.0769 14.8063 19.1949 15.0785L21.0099 19.1305V19.1408C21.1002 19.3491 21.1375 19.5766 21.1184 19.8029C21.0994 20.0292 21.0246 20.2472 20.9007 20.4376C20.8852 20.4608 20.8689 20.4823 20.8517 20.5037L19.0625 22.6247C19.7062 23.9326 21.0743 25.2887 22.3995 25.9341L24.4912 24.1544C24.5117 24.1371 24.5332 24.121 24.5556 24.1062C24.7458 23.9794 24.9646 23.902 25.1922 23.881C25.4199 23.86 25.6491 23.896 25.8593 23.9859L25.8705 23.9911L29.919 25.8052C30.1917 25.9228 30.419 26.1254 30.5669 26.3829C30.7148 26.6403 30.7755 26.9387 30.7397 27.2335ZM29.375 27.0616C29.375 27.0616 29.369 27.0616 29.3656 27.0616L25.3265 25.2526L23.2339 27.0324C23.2136 27.0496 23.1924 27.0657 23.1703 27.0805C22.9725 27.2125 22.7437 27.291 22.5065 27.3081C22.2693 27.3253 22.0316 27.2806 21.8168 27.1785C20.2072 26.4008 18.6027 24.8084 17.8241 23.2159C17.721 23.0027 17.6748 22.7664 17.6898 22.53C17.7049 22.2936 17.7808 22.0652 17.9101 21.8667C17.9247 21.8434 17.941 21.8213 17.9591 21.8005L19.75 19.677L17.9453 15.638C17.945 15.6345 17.945 15.6311 17.9453 15.6276C17.1119 15.7364 16.3468 16.1451 15.7931 16.7774C15.2394 17.4097 14.9353 18.2221 14.9375 19.0626C14.9407 21.979 16.1006 24.775 18.1629 26.8372C20.2251 28.8994 23.0211 30.0594 25.9375 30.0626C26.7774 30.0655 27.5896 29.7623 28.2223 29.2099C28.8549 28.6574 29.2647 27.8934 29.375 27.0608V27.0616Z" fill="#01A35B"/>
</svg>
