<svg width="16" height="17" viewBox="0 0 16 17" fill="none" xmlns="http://www.w3.org/2000/svg">
<g clip-path="url(#clip0_92_881)">
<path d="M3.29921 15.4338L3.37363 5.31358L-0.0565761 5.28836L-0.131003 15.4086L3.29921 15.4338ZM1.66914 3.9184C2.86531 3.9272 3.61559 3.15556 3.62273 2.18443C3.60775 1.19123 2.89108 0.430373 1.71756 0.421743C0.544219 0.413114 -0.228629 1.16303 -0.235932 2.15605C-0.243074 3.12723 0.495589 3.90977 1.64675 3.91824L1.66903 3.9184L1.66914 3.9184ZM5.19782 15.4478L8.62803 15.473L8.66959 9.82136C8.67181 9.5189 8.69632 9.21691 8.78849 9.00135C9.04092 8.39886 9.60993 7.77711 10.5575 7.78408C11.7987 7.7932 12.2885 8.72491 12.2785 10.0854L12.2387 15.4995L15.6687 15.5247L15.7113 9.72186C15.7342 6.61332 14.0526 5.15451 11.7957 5.13792C9.94522 5.12431 9.12529 6.13263 8.66884 6.82015L8.69174 6.82032L8.70253 5.35256L5.27232 5.32734C5.31035 6.27729 5.19789 15.4475 5.19789 15.4475L5.19782 15.4478Z" fill="white"/>
</g>
<defs>
<clipPath id="clip0_92_881">
<rect width="16" height="15" fill="white" transform="translate(15.1173 0.110352) rotate(90.4214)"/>
</clipPath>
</defs>
</svg>
