<svg width="19" height="15" viewBox="0 0 19 15" fill="none" xmlns="http://www.w3.org/2000/svg">
<g clip-path="url(#clip0_92_879)">
<path d="M18.0899 1.83674C17.4138 2.11625 16.6975 2.29771 15.9649 2.3751C16.7306 1.94531 17.3211 1.26015 17.6029 0.440689C16.875 0.845155 16.0798 1.12805 15.2516 1.27715C14.583 0.588494 13.6265 0.154147 12.5643 0.146335C10.5249 0.131337 8.85981 1.69437 8.84552 3.63717C8.8435 3.91294 8.87422 4.18165 8.93525 4.43966C5.86727 4.27033 3.15655 2.84976 1.35081 0.707885C1.02918 1.22514 0.842634 1.8282 0.837893 2.47285C0.828916 3.69343 1.47299 4.77499 2.45916 5.41319C1.87287 5.39138 1.30045 5.23627 0.789712 4.96081C0.789393 4.97554 0.789284 4.99028 0.789175 5.00508C0.77664 6.70962 2.03909 8.14091 3.72599 8.47654C3.18116 8.61343 2.61061 8.62985 2.05792 8.52456C2.51753 9.92569 3.87386 10.9528 5.48953 10.9932C4.21876 11.9274 2.6223 12.4782 0.892236 12.4654C0.594119 12.4632 0.300343 12.4444 0.0116759 12.4098C1.63856 13.42 3.57535 14.0167 5.66076 14.032C12.4533 14.082 16.207 8.74852 16.2412 4.09958C16.2423 3.94699 16.2399 3.79524 16.2338 3.64434C16.9604 3.15176 17.589 2.53965 18.0899 1.83674Z" fill="white"/>
</g>
<defs>
<clipPath id="clip0_92_879">
<rect width="18" height="14" fill="white" transform="translate(0.103027) rotate(0.421363)"/>
</clipPath>
</defs>
</svg>
