<svg width="50" height="50" viewBox="0 0 50 50" fill="none" xmlns="http://www.w3.org/2000/svg">
<rect width="50" height="50" rx="5" fill="white" fill-opacity="0.5"/>
<rect x="0.5" y="0.5" width="49" height="49" rx="4.5" stroke="black" stroke-opacity="0.2"/>
<path d="M30.5858 26.5787L27.5858 25.0787C27.4677 25.0199 27.3362 24.9933 27.2045 25.0015C27.0728 25.0097 26.9456 25.0525 26.8358 25.1256L25.4586 26.0444C24.8264 25.6968 24.3062 25.1766 23.9586 24.5444L24.8774 23.1672C24.9505 23.0573 24.9933 22.9302 25.0015 22.7985C25.0097 22.6668 24.9831 22.5353 24.9242 22.4172L23.4242 19.4172C23.3621 19.2916 23.266 19.186 23.1468 19.1123C23.0277 19.0385 22.8903 18.9996 22.7502 19C21.7556 19 20.8018 19.3951 20.0985 20.0984C19.3953 20.8016 19.0002 21.7554 19.0002 22.75C19.0027 24.9373 19.8726 27.0343 21.4193 28.5809C22.9659 30.1275 25.0629 30.9975 27.2502 31C27.7426 31 28.2303 30.903 28.6852 30.7145C29.1402 30.5261 29.5536 30.2499 29.9018 29.9017C30.25 29.5534 30.5263 29.14 30.7147 28.6851C30.9032 28.2301 31.0002 27.7425 31.0002 27.25C31.0003 27.1107 30.9616 26.9741 30.8884 26.8555C30.8152 26.7369 30.7104 26.6411 30.5858 26.5787ZM27.2502 29.5C25.4606 29.498 23.7448 28.7862 22.4794 27.5208C21.214 26.2553 20.5022 24.5396 20.5002 22.75C20.5 22.2298 20.6801 21.7256 21.0099 21.3233C21.3396 20.9209 21.7985 20.6452 22.3086 20.5431L23.3849 22.6994L22.4689 24.0625C22.4005 24.1652 22.3584 24.2831 22.3465 24.406C22.3345 24.5288 22.3531 24.6526 22.4005 24.7666C22.9371 26.0419 23.9517 27.0565 25.227 27.5931C25.3413 27.6426 25.4661 27.6629 25.5902 27.6521C25.7143 27.6413 25.8337 27.5998 25.9377 27.5312L27.3074 26.6181L29.4636 27.6944C29.3607 28.205 29.0838 28.6642 28.6802 28.9935C28.2765 29.3228 27.7711 29.5018 27.2502 29.5ZM25.0002 15.25C23.3169 15.2496 21.6621 15.6851 20.197 16.514C18.7319 17.3428 17.5064 18.5369 16.6397 19.98C15.773 21.423 15.2947 23.0659 15.2513 24.7486C15.2079 26.4314 15.6009 28.0967 16.3921 29.5825L15.328 32.7747C15.2398 33.039 15.2271 33.3226 15.291 33.5938C15.355 33.8649 15.4933 34.1129 15.6903 34.3099C15.8873 34.5069 16.1353 34.6451 16.4064 34.7091C16.6776 34.7731 16.9612 34.7603 17.2255 34.6722L20.4177 33.6081C21.7253 34.3036 23.1741 34.6921 24.6543 34.744C26.1344 34.7959 27.6069 34.51 28.9601 33.9079C30.3132 33.3057 31.5114 32.4033 32.4636 31.269C33.4159 30.1346 34.0972 28.7983 34.4559 27.3613C34.8146 25.9244 34.8412 24.4246 34.5337 22.9758C34.2263 21.527 33.5928 20.1673 32.6813 18.9999C31.7699 17.8325 30.6045 16.8881 29.2736 16.2384C27.9427 15.5886 26.4812 15.2506 25.0002 15.25ZM25.0002 33.25C23.5498 33.251 22.125 32.8691 20.8696 32.1428C20.7776 32.0895 20.6754 32.0563 20.5697 32.0455C20.464 32.0347 20.3572 32.0464 20.2564 32.08L16.7502 33.25L17.9192 29.7438C17.9529 29.643 17.9648 29.5362 17.9542 29.4305C17.9435 29.3248 17.9105 29.2226 17.8574 29.1306C16.948 27.5584 16.5828 25.7299 16.8186 23.929C17.0544 22.128 17.878 20.4552 19.1615 19.1701C20.445 17.8849 22.1168 17.0593 23.9175 16.8212C25.7181 16.5831 27.547 16.9459 29.1204 17.8533C30.6938 18.7607 31.9238 20.162 32.6196 21.8398C33.3153 23.5176 33.4379 25.3781 32.9684 27.1327C32.4989 28.8873 31.4634 30.4379 30.0227 31.5439C28.582 32.65 26.8165 33.2497 25.0002 33.25Z" fill="#01A35B"/>
</svg>
