<svg width="29" height="39" viewBox="0 0 29 39" fill="none" xmlns="http://www.w3.org/2000/svg">
<path d="M29 14.305C29.0014 11.8957 28.3853 9.52517 27.2089 7.41349C26.0324 5.30181 24.3338 3.51752 22.2707 2.22635C20.2077 0.935185 17.8471 0.179017 15.4084 0.0280843C12.9696 -0.122848 10.5317 0.33635 8.32108 1.36303C6.11047 2.3897 4.19887 3.95056 2.76383 5.90062C1.32879 7.85068 0.416862 10.1267 0.112742 12.5172C-0.191379 14.9078 0.122175 17.3354 1.02428 19.5745C1.92639 21.8136 3.38778 23.7916 5.27273 25.3247V37.6994C5.27257 37.921 5.3299 38.139 5.43929 38.3327C5.54867 38.5263 5.70647 38.6892 5.89768 38.8058C6.08889 38.9223 6.30716 38.9887 6.53174 38.9987C6.75632 39.0086 6.97975 38.9618 7.1808 38.8626L14.5 35.2625L21.8209 38.8707C22.0044 38.9573 22.2056 39.0012 22.4091 38.9991C22.7587 38.9991 23.094 38.8621 23.3412 38.6184C23.5884 38.3747 23.7273 38.0441 23.7273 37.6994V25.3247C25.3765 23.9855 26.7046 22.3028 27.6163 20.3976C28.5279 18.4923 29.0004 16.4117 29 14.305ZM2.63637 14.305C2.63637 11.9916 3.33215 9.73002 4.63575 7.80643C5.93934 5.88284 7.79219 4.38359 9.95998 3.49826C12.1278 2.61292 14.5132 2.38128 16.8145 2.83262C19.1158 3.28396 21.2297 4.39801 22.8889 6.03388C24.548 7.66976 25.6779 9.754 26.1357 12.023C26.5934 14.2921 26.3585 16.644 25.4606 18.7813C24.5626 20.9187 23.042 22.7456 21.0911 24.0309C19.1401 25.3162 16.8464 26.0022 14.5 26.0022C11.3546 25.9988 8.3391 24.7653 6.115 22.5724C3.89089 20.3795 2.63985 17.4063 2.63637 14.305ZM21.0909 35.5971L15.0882 32.6387C14.9051 32.5484 14.7031 32.5013 14.4984 32.5013C14.2936 32.5013 14.0916 32.5484 13.9085 32.6387L7.90909 35.5971V27.0371C9.94958 28.0654 12.2084 28.6016 14.5 28.6016C16.7916 28.6016 19.0504 28.0654 21.0909 27.0371V35.5971ZM14.5 23.4028C16.325 23.4028 18.109 22.8693 19.6264 21.8696C21.1438 20.8699 22.3265 19.449 23.0249 17.7866C23.7233 16.1242 23.906 14.2949 23.55 12.5301C23.1939 10.7653 22.3151 9.14427 21.0247 7.87192C19.7342 6.59957 18.0901 5.73309 16.3002 5.38205C14.5102 5.031 12.6549 5.21117 10.9689 5.89976C9.28281 6.58835 7.84171 7.75444 6.8278 9.25057C5.8139 10.7467 5.27273 12.5057 5.27273 14.305C5.27535 16.7171 6.24834 19.0297 7.97822 20.7353C9.70811 22.4409 12.0536 23.4003 14.5 23.4028ZM14.5 7.80661C15.8036 7.80661 17.0778 8.18773 18.1617 8.90179C19.2456 9.61584 20.0904 10.6308 20.5892 11.8182C21.0881 13.0056 21.2186 14.3122 20.9643 15.5728C20.71 16.8334 20.0822 17.9913 19.1605 18.9001C18.2387 19.8089 17.0643 20.4279 15.7858 20.6786C14.5073 20.9293 13.1821 20.8007 11.9778 20.3088C10.7734 19.8169 9.74408 18.984 9.01986 17.9154C8.29564 16.8467 7.90909 15.5903 7.90909 14.305C7.90909 12.5815 8.60349 10.9286 9.83952 9.70995C11.0756 8.49126 12.752 7.80661 14.5 7.80661Z" fill="#01A35B"/>
</svg>
