<svg width="151" height="151" viewBox="0 0 151 151" fill="none" xmlns="http://www.w3.org/2000/svg">
<path d="M75.9935 76.434C75.9935 76.434 111.89 1.27487 75.9934 1.27441C40.0966 1.27396 75.9935 76.434 75.9935 76.434Z" fill="#26AE5D"/>
<path d="M76.4599 76.2408C76.4599 76.2408 48.6971 -2.28755 23.3139 23.095C-2.06924 48.4775 76.4599 76.2408 76.4599 76.2408Z" fill="#26AE5D"/>
<path d="M76.653 75.7743C76.653 75.7743 1.49387 39.8777 1.49341 75.7744C1.49297 111.671 76.653 75.7743 76.653 75.7743Z" fill="#26AE5D"/>
<path d="M76.4598 75.3079C76.4598 75.3079 -2.06856 103.071 23.314 128.454C48.6965 153.837 76.4598 75.3079 76.4598 75.3079Z" fill="#26AE5D"/>
<path d="M75.9933 75.1148C75.9933 75.1148 40.0967 150.274 75.9935 150.274C111.89 150.275 75.9933 75.1148 75.9933 75.1148Z" fill="#26AE5D"/>
<path d="M75.5269 75.3081C75.5269 75.3081 103.29 153.836 128.673 128.454C154.056 103.071 75.5269 75.3081 75.5269 75.3081Z" fill="#26AE5D"/>
<path d="M75.3338 75.7745C75.3338 75.7745 150.493 111.671 150.493 75.7744C150.494 39.8776 75.3338 75.7745 75.3338 75.7745Z" fill="#26AE5D"/>
<path d="M75.5271 76.2409C75.5271 76.2409 154.055 48.4781 128.673 23.0949C103.29 -2.28825 75.5271 76.2409 75.5271 76.2409Z" fill="#26AE5D"/>
<g clip-path="url(#clip0_406_1064)">
<path d="M76.3411 109.983C95.0687 109.983 110.25 94.8014 110.25 76.0737C110.25 57.3461 95.0687 42.1643 76.3411 42.1643C57.6134 42.1643 42.4316 57.3461 42.4316 76.0737C42.4316 94.8014 57.6134 109.983 76.3411 109.983Z" fill="#055552"/>
<path d="M76.2467 99.284C89.1195 99.284 99.5549 88.8486 99.5549 75.9759C99.5549 63.1031 89.1195 52.6677 76.2467 52.6677C63.374 52.6677 52.9386 63.1031 52.9386 75.9759C52.9386 88.8486 63.374 99.284 76.2467 99.284Z" fill="white"/>
<mask id="mask0_406_1064" style="mask-type:luminance" maskUnits="userSpaceOnUse" x="63" y="63" width="26" height="26">
<path d="M88.8856 63.5347H63.8075V88.6128H88.8856V63.5347Z" fill="white"/>
</mask>
<g mask="url(#mask0_406_1064)">
<path d="M77.8139 70.931C78.2197 70.931 78.5487 70.602 78.5487 70.1963C78.5487 69.7905 78.2197 69.4615 77.8139 69.4615C77.4081 69.4615 77.0792 69.7905 77.0792 70.1963C77.0792 70.602 77.4081 70.931 77.8139 70.931Z" fill="#286C5E"/>
<path d="M80.7566 70.931C81.1623 70.931 81.4913 70.602 81.4913 70.1963C81.4913 69.7905 81.1623 69.4615 80.7566 69.4615C80.3507 69.4615 80.0219 69.7905 80.0219 70.1963C80.0219 70.602 80.3507 70.931 80.7566 70.931Z" fill="#286C5E"/>
<path d="M83.6933 70.931C84.0991 70.931 84.4281 70.602 84.4281 70.1963C84.4281 69.7905 84.0991 69.4615 83.6933 69.4615C83.2875 69.4615 82.9586 69.7905 82.9586 70.1963C82.9586 70.602 83.2875 70.931 83.6933 70.931Z" fill="#286C5E"/>
<path d="M80.3245 87.0947C81.5341 87.0947 82.5182 86.1059 82.5182 84.8905V81.9517C82.5182 81.6357 82.316 81.355 82.0164 81.2548L77.6185 79.7855C77.4032 79.7135 77.1669 79.7451 76.9781 79.871L75.1079 81.1177C73.1007 80.1654 70.7284 77.8141 69.7849 75.8426L71.0313 73.9731C71.1571 73.7843 71.1887 73.5479 71.1168 73.3327L69.6473 68.9349C69.5472 68.6351 69.2666 68.433 68.9505 68.433H66.0116C64.7963 68.433 63.8075 69.4171 63.8075 70.6267C63.8075 74.6861 65.6533 78.8523 68.8716 82.0572C72.0865 85.2586 76.2609 87.0947 80.3245 87.0947ZM66.0116 69.9024H68.4214L69.6091 73.4572L68.3392 75.3621C68.205 75.5634 68.1785 75.8179 68.2684 76.0425C68.757 77.264 69.7348 78.6377 71.0215 79.9108C72.2998 81.1754 73.6803 82.1425 74.9087 82.6338C75.1332 82.7236 75.3878 82.6971 75.589 82.563L77.494 81.2931L81.0487 82.4809V84.8905C81.0487 85.3026 80.7306 85.6252 80.3245 85.6252C72.5898 85.6252 65.2769 78.3362 65.2769 70.6267C65.2769 70.2205 65.5997 69.9024 66.0116 69.9024Z" fill="#286C5E"/>
<path d="M77.533 78.222C77.8075 78.3357 78.1235 78.2729 78.3337 78.0627L81.0573 75.3391H83.6918C86.5546 75.3391 88.8838 73.0319 88.8838 70.1961C88.8838 67.3603 86.5546 65.0531 83.6918 65.0531H77.8141C74.9783 65.0531 72.6711 67.3603 72.6711 70.1961C72.6711 72.7826 74.5904 74.9292 77.0795 75.2868V77.5432C77.0795 77.8404 77.2584 78.1083 77.533 78.222ZM74.1406 70.1961C74.1406 68.1705 75.7885 66.5225 77.8141 66.5225H83.6918C85.7444 66.5225 87.4143 68.1705 87.4143 70.1961C87.4143 72.2217 85.7444 73.8696 83.6918 73.8696H80.753C80.5581 73.8696 80.3712 73.9471 80.2335 74.0849L78.5488 75.7695V74.6044C78.5488 74.1986 78.2199 73.8696 77.8141 73.8696C75.7885 73.8696 74.1406 72.2217 74.1406 70.1961Z" fill="#286C5E"/>
</g>
<path d="M126.5 76.0737C126.5 103.774 104.045 126.23 76.3439 126.23C48.6434 126.23 26.1876 103.774 26.1876 76.0737C26.1876 48.3731 48.6434 25.9174 76.3439 25.9174C104.045 25.9174 126.5 48.3731 126.5 76.0737ZM42.8012 76.0737C42.8012 94.5988 57.8189 109.616 76.3439 109.616C94.8691 109.616 109.887 94.5988 109.887 76.0737C109.887 57.5486 94.8691 42.531 76.3439 42.531C57.8189 42.531 42.8012 57.5486 42.8012 76.0737Z" fill="white"/>
<path d="M82.1374 36.3538L83.6556 36.5152C83.5722 37.0096 83.3882 37.4367 83.1035 37.7968C82.8221 38.1571 82.4533 38.4226 81.9969 38.5931C81.544 38.7641 81.0146 38.8174 80.4087 38.753C79.9348 38.7027 79.5186 38.5762 79.1601 38.3738C78.802 38.168 78.5056 37.8969 78.271 37.5604C78.0396 37.2243 77.8778 36.8305 77.7854 36.3791C77.6931 35.9277 77.6757 35.4312 77.7332 34.8896L77.7877 34.3767C77.8452 33.8351 77.9683 33.3535 78.1569 32.932C78.3493 32.5074 78.5955 32.1553 78.8956 31.8756C79.1992 31.5964 79.5477 31.3938 79.941 31.2678C80.3344 31.1419 80.763 31.1036 81.2268 31.1529C81.8428 31.2184 82.3505 31.3853 82.75 31.6537C83.1527 31.9224 83.4501 32.2655 83.6419 32.683C83.837 33.1009 83.9317 33.5628 83.9259 34.0689L82.4026 33.907C82.4173 33.6072 82.3849 33.3488 82.3053 33.1315C82.2261 32.9109 82.0888 32.7371 81.8934 32.6102C81.7018 32.4803 81.4368 32.3973 81.0983 32.3614C80.8444 32.3344 80.6177 32.3582 80.418 32.4328C80.2184 32.5075 80.044 32.6344 79.8949 32.8137C79.7457 32.993 79.6233 33.2265 79.5277 33.5141C79.4358 33.7988 79.369 34.1374 79.3273 34.5301L79.2717 35.0531C79.2311 35.4356 79.224 35.7755 79.2507 36.0727C79.2776 36.3665 79.3397 36.6196 79.4369 36.8319C79.5379 37.0412 79.6778 37.2067 79.8566 37.3284C80.0391 37.4471 80.2658 37.5208 80.5366 37.5496C80.8548 37.5835 81.1225 37.5605 81.3398 37.4809C81.5571 37.4013 81.7305 37.2674 81.86 37.0792C81.993 36.8913 82.0854 36.6495 82.1374 36.3538Z" fill="#286C5E"/>
<path d="M86.0004 36.741L86.032 36.6385C86.1516 36.2515 86.3169 35.9124 86.5279 35.6213C86.74 35.327 86.989 35.0921 87.2747 34.9167C87.5605 34.7414 87.8784 34.6347 88.2286 34.5968C88.5798 34.5557 88.9554 34.5969 89.3555 34.7205C89.7555 34.8441 90.0906 35.0224 90.3606 35.2554C90.6316 35.4853 90.8357 35.7531 90.9728 36.0592C91.1131 36.3662 91.1877 36.701 91.1969 37.0636C91.207 37.4231 91.1523 37.7963 91.0327 38.1834L91.001 38.2858C90.8825 38.6696 90.7171 39.0087 90.5051 39.303C90.294 39.5941 90.0435 39.8285 89.7535 40.0061C89.4677 40.1814 89.1497 40.288 88.7995 40.3259C88.4493 40.3638 88.0742 40.321 87.6742 40.1974C87.2741 40.0738 86.9386 39.8971 86.6676 39.6673C86.3997 39.4385 86.1957 39.1707 86.0554 38.8636C85.9193 38.5544 85.8463 38.2201 85.8362 37.8606C85.8271 37.498 85.8817 37.1248 86.0004 36.741ZM87.4371 37.0726L87.4054 37.175C87.3371 37.3962 87.2928 37.6087 87.2725 37.8127C87.2523 38.0167 87.2619 38.2049 87.3012 38.3774C87.3448 38.5476 87.4239 38.695 87.5387 38.8195C87.6534 38.944 87.8116 39.0374 88.0133 39.0997C88.2085 39.16 88.3885 39.1711 88.5535 39.133C88.7185 39.0949 88.8653 39.0173 88.9941 38.9003C89.1239 38.7801 89.2379 38.6301 89.3363 38.4502C89.4378 38.2714 89.5228 38.0714 89.5911 37.8502L89.6227 37.7478C89.6891 37.5331 89.7302 37.3249 89.7462 37.1233C89.7665 36.9193 89.7553 36.7306 89.7127 36.557C89.6743 36.3813 89.5982 36.2296 89.4846 36.1018C89.3708 35.9741 89.2147 35.8795 89.0163 35.8182C88.818 35.7569 88.6358 35.7469 88.4698 35.7883C88.307 35.8307 88.1587 35.9131 88.0246 36.0356C87.8948 36.1559 87.7808 36.3058 87.6825 36.4857C87.5852 36.6623 87.5034 36.8579 87.4371 37.0726Z" fill="#286C5E"/>
<path d="M94.9495 38.2571L92.9682 42.1245L91.6594 41.454L94.1785 36.5367L95.4055 37.1654L94.9495 38.2571ZM94.1254 39.3954L93.7709 39.2138C93.9571 38.8503 94.1717 38.5471 94.4147 38.3044C94.6591 38.0586 94.919 37.8762 95.1942 37.757C95.471 37.6349 95.7539 37.5791 96.0431 37.5895C96.3369 37.5985 96.6292 37.6775 96.92 37.8265C97.1503 37.9444 97.3437 38.0856 97.5005 38.2501C97.6571 38.4145 97.7664 38.6044 97.8283 38.8196C97.8932 39.0365 97.9006 39.2832 97.8507 39.5598C97.8039 39.8379 97.6919 40.1497 97.515 40.4951L95.9086 43.6308L94.5906 42.9556L96.1994 39.8154C96.3112 39.5972 96.3678 39.4121 96.3693 39.2598C96.3708 39.1075 96.3249 38.9769 96.2315 38.8679C96.1428 38.7575 96.0136 38.6587 95.8439 38.5719C95.6682 38.4818 95.4973 38.4383 95.3313 38.4412C95.1684 38.4457 95.0127 38.4883 94.8642 38.5691C94.7203 38.6484 94.5853 38.759 94.4591 38.9008C94.3329 39.0427 94.2216 39.2075 94.1254 39.3954Z" fill="#286C5E"/>
<path d="M102.692 41.5665L102.097 42.4219L99.4556 40.5859L100.05 39.7305L102.692 41.5665ZM101.482 39.0657L102.69 39.905L99.7086 44.1943C99.6173 44.3256 99.5641 44.438 99.5491 44.5311C99.5368 44.6263 99.556 44.7121 99.6065 44.7887C99.6588 44.8624 99.7381 44.9361 99.8444 45.01C99.9198 45.0624 99.9888 45.1063 100.051 45.1415C100.119 45.1759 100.176 45.2034 100.224 45.2242L99.6104 46.116C99.4837 46.0777 99.3534 46.0265 99.2196 45.9625C99.0858 45.8985 98.9462 45.816 98.8009 45.715C98.5353 45.5304 98.3335 45.3259 98.1952 45.1012C98.0617 44.8758 98.0098 44.6283 98.0397 44.3588C98.0694 44.0893 98.195 43.7952 98.4166 43.4766L101.482 39.0657Z" fill="#286C5E"/>
<path d="M103.412 47.7758L105.066 45.9528C105.184 45.8216 105.264 45.69 105.306 45.5578C105.35 45.4231 105.351 45.2881 105.309 45.1529C105.268 45.0198 105.177 44.8893 105.036 44.7613C104.915 44.6514 104.791 44.578 104.664 44.5408C104.539 44.5011 104.417 44.4986 104.299 44.5333C104.182 44.5655 104.077 44.6333 103.983 44.7367L102.894 43.7487C103.052 43.5747 103.241 43.4461 103.464 43.363C103.686 43.2798 103.929 43.2488 104.19 43.2698C104.453 43.2883 104.722 43.3595 104.996 43.4836C105.272 43.6099 105.542 43.7931 105.807 44.0332C106.125 44.3214 106.359 44.6305 106.51 44.9605C106.661 45.2906 106.711 45.6255 106.66 45.9654C106.612 46.3075 106.444 46.6375 106.155 46.9552L104.567 48.7063C104.364 48.9307 104.21 49.1273 104.108 49.2962C104.008 49.4626 103.936 49.6228 103.892 49.7766L103.835 49.8409L102.733 48.8426C102.781 48.6837 102.867 48.5084 102.99 48.3168C103.118 48.125 103.259 47.9447 103.412 47.7758ZM104.979 46.3365L104.428 46.9599L103.819 46.4076C103.675 46.2772 103.535 46.1803 103.399 46.1171C103.264 46.0538 103.135 46.0216 103.012 46.0203C102.891 46.0165 102.779 46.0389 102.675 46.0873C102.574 46.138 102.481 46.21 102.397 46.3034C102.312 46.3966 102.257 46.5006 102.231 46.6151C102.208 46.727 102.217 46.8411 102.259 46.9571C102.303 47.0707 102.379 47.1766 102.487 47.2749C102.651 47.4236 102.824 47.5201 103.004 47.5643C103.185 47.6085 103.351 47.6124 103.503 47.576C103.658 47.542 103.776 47.4832 103.857 47.3998L103.725 48.122C103.591 48.1887 103.438 48.2456 103.267 48.2925C103.099 48.3417 102.916 48.3674 102.721 48.3697C102.528 48.3695 102.329 48.3334 102.124 48.2615C101.919 48.1871 101.716 48.0573 101.512 47.872C101.252 47.6364 101.063 47.3709 100.945 47.0754C100.832 46.7797 100.797 46.4837 100.84 46.1876C100.888 45.8912 101.02 45.6245 101.235 45.3875C101.429 45.1732 101.642 45.0195 101.874 44.9262C102.105 44.833 102.351 44.8005 102.61 44.8289C102.875 44.857 103.151 44.9495 103.441 45.1065C103.733 45.261 104.035 45.48 104.348 45.7636L104.979 46.3365Z" fill="#286C5E"/>
<path d="M107.104 52.0681C107.216 52.2095 107.342 52.3137 107.482 52.3807C107.625 52.4456 107.77 52.4696 107.917 52.4527C108.07 52.4363 108.215 52.3755 108.353 52.2703L109.213 53.3545C108.907 53.5929 108.571 53.7263 108.207 53.7545C107.846 53.7807 107.49 53.713 107.14 53.5515C106.793 53.3879 106.487 53.1394 106.223 52.806C105.956 52.47 105.779 52.1322 105.693 51.7926C105.608 51.4558 105.599 51.1264 105.665 50.8045C105.734 50.4805 105.867 50.1724 106.066 49.8803C106.267 49.586 106.52 49.3184 106.824 49.0772L106.94 48.9852C107.247 48.742 107.565 48.5569 107.894 48.4302C108.227 48.3013 108.557 48.2413 108.885 48.2501C109.216 48.2568 109.537 48.3398 109.845 48.499C110.154 48.6581 110.441 48.9044 110.705 49.2379C110.987 49.5926 111.165 49.9572 111.24 50.3318C111.318 50.709 111.29 51.0742 111.157 51.4271C111.03 51.7807 110.794 52.0953 110.453 52.3708L109.593 51.2866C109.735 51.1698 109.841 51.0354 109.912 50.8836C109.985 50.7346 110.013 50.5778 109.996 50.4135C109.983 50.2497 109.914 50.0891 109.789 49.9318C109.656 49.7637 109.511 49.6549 109.355 49.6054C109.2 49.5537 109.039 49.5472 108.869 49.5858C108.703 49.6223 108.533 49.6899 108.359 49.7887C108.19 49.8878 108.022 50.0041 107.854 50.1374L107.738 50.2294C107.57 50.3627 107.417 50.5013 107.279 50.6453C107.141 50.7894 107.035 50.9383 106.962 51.0922C106.891 51.2487 106.863 51.4078 106.878 51.5695C106.893 51.7312 106.969 51.8974 107.104 52.0681Z" fill="#286C5E"/>
<path d="M114.722 55.3871L113.829 55.923L112.174 53.1645L113.067 52.6286L114.722 55.3871ZM114.646 52.6102L115.402 53.8713L110.924 56.5587C110.786 56.641 110.692 56.7216 110.64 56.8004C110.589 56.8821 110.572 56.9683 110.586 57.0587C110.604 57.1475 110.646 57.2473 110.712 57.3582C110.76 57.437 110.804 57.5054 110.847 57.5632C110.895 57.6221 110.936 57.6709 110.971 57.7094L110.045 58.2707C109.945 58.1837 109.847 58.0836 109.752 57.9703C109.656 57.8571 109.563 57.7245 109.472 57.5727C109.305 57.2954 109.205 57.026 109.171 56.7644C109.142 56.504 109.196 56.2572 109.334 56.0236C109.472 55.7901 109.707 55.5735 110.04 55.3738L114.646 52.6102Z" fill="#286C5E"/>
<path d="M120.781 65.5602L113.679 67.7618L113.225 66.2987L117.101 61.9697L112.341 63.4455L111.887 61.9823L118.988 59.7808L119.442 61.2439L115.563 65.5792L120.328 64.1019L120.781 65.5602Z" fill="#286C5E"/>
<path d="M116.743 69.3102L116.849 69.2989C117.252 69.256 117.629 69.2741 117.98 69.3531C118.334 69.4319 118.648 69.5679 118.922 69.7612C119.196 69.9546 119.419 70.2046 119.592 70.5114C119.768 70.8179 119.879 71.1793 119.923 71.5956C119.967 72.012 119.936 72.3902 119.828 72.7303C119.724 73.0701 119.559 73.3633 119.332 73.61C119.105 73.8601 118.827 74.0608 118.497 74.2123C118.171 74.3635 117.806 74.4604 117.404 74.5033L117.296 74.5147C116.898 74.5572 116.52 74.5391 116.166 74.4604C115.816 74.3814 115.501 74.2436 115.224 74.0473C114.95 73.8539 114.727 73.6038 114.553 73.297C114.38 72.9902 114.272 72.6287 114.228 72.2123C114.183 71.7959 114.213 71.4179 114.317 71.0782C114.422 70.7418 114.588 70.4486 114.814 70.1985C115.045 69.9514 115.323 69.7524 115.649 69.6013C115.979 69.4498 116.343 69.3527 116.743 69.3102ZM117.005 70.7612L116.899 70.7726C116.668 70.797 116.456 70.8402 116.26 70.9021C116.065 70.964 115.895 71.0471 115.753 71.1513C115.614 71.2586 115.509 71.3894 115.44 71.544C115.371 71.6986 115.348 71.8808 115.37 72.0907C115.391 72.2938 115.453 72.4636 115.552 72.6001C115.652 72.7367 115.781 72.841 115.94 72.9132C116.102 72.985 116.285 73.0306 116.488 73.0499C116.693 73.0726 116.911 73.0718 117.141 73.0473L117.247 73.036C117.47 73.0121 117.678 72.9678 117.87 72.9029C118.065 72.841 118.234 72.7563 118.377 72.6487C118.523 72.5441 118.632 72.4143 118.705 72.2594C118.777 72.1045 118.803 71.9237 118.781 71.7173C118.759 71.5108 118.696 71.3395 118.593 71.2032C118.489 71.0705 118.355 70.9667 118.189 70.8918C118.028 70.82 117.845 70.7745 117.641 70.7551C117.441 70.7354 117.228 70.7374 117.005 70.7612Z" fill="#286C5E"/>
<path d="M116 78.0691L119.965 79.6091L119.875 80.5392L118.303 80.0836L114.516 78.5608L114.592 77.7833L116 78.0691ZM120.133 77.8862L115.982 78.3085L114.547 78.2457L114.636 77.331L120.27 76.4734L120.133 77.8862ZM115.768 81.1965L119.695 82.384L119.557 83.802L114.194 81.8745L114.282 80.9647L115.768 81.1965ZM119.863 80.6663L115.706 81.4111L114.237 81.4272L114.314 80.6445L118.317 79.8798L119.951 79.7463L119.863 80.6663Z" fill="#286C5E"/>
<path d="M115.205 92.2095L114.127 91.7972L115.158 89.1027L116.236 89.5149L115.205 92.2095Z" fill="#286C5E"/>
<path d="M108.847 100.711L107.959 101.953C107.57 101.637 107.288 101.267 107.115 100.842C106.941 100.419 106.89 99.9677 106.967 99.4865C107.041 99.0081 107.255 98.521 107.61 98.0253C107.887 97.6375 108.201 97.3374 108.554 97.125C108.91 96.9146 109.292 96.79 109.699 96.7514C110.106 96.7155 110.529 96.7684 110.967 96.9102C111.406 97.0519 111.846 97.2812 112.289 97.5979L112.709 97.8978C113.152 98.2145 113.511 98.5587 113.785 98.9303C114.06 99.3067 114.245 99.6944 114.341 100.093C114.434 100.495 114.439 100.898 114.355 101.302C114.271 101.707 114.093 102.099 113.822 102.478C113.462 102.982 113.067 103.342 112.637 103.558C112.205 103.776 111.76 103.866 111.302 103.827C110.842 103.792 110.394 103.647 109.955 103.392L110.846 102.146C111.1 102.306 111.341 102.406 111.569 102.443C111.8 102.483 112.019 102.449 112.226 102.341C112.433 102.239 112.636 102.049 112.833 101.772C112.982 101.564 113.073 101.355 113.106 101.144C113.139 100.934 113.115 100.719 113.032 100.501C112.95 100.283 112.807 100.062 112.603 99.837C112.401 99.617 112.139 99.3921 111.817 99.1625L111.39 98.8567C111.077 98.633 110.785 98.4596 110.513 98.3365C110.243 98.2153 109.993 98.1448 109.76 98.125C109.528 98.1099 109.315 98.1502 109.122 98.2459C108.928 98.3463 108.752 98.5073 108.594 98.7289C108.408 98.9892 108.296 99.2335 108.258 99.4619C108.221 99.6902 108.252 99.9071 108.352 100.112C108.45 100.321 108.615 100.52 108.847 100.711Z" fill="#286C5E"/>
<path d="M106.609 103.885L106.684 103.963C106.962 104.256 107.176 104.567 107.326 104.894C107.479 105.223 107.561 105.555 107.574 105.891C107.586 106.226 107.523 106.555 107.384 106.879C107.247 107.204 107.027 107.512 106.723 107.8C106.42 108.088 106.1 108.292 105.764 108.413C105.431 108.536 105.097 108.583 104.763 108.552C104.427 108.523 104.098 108.424 103.778 108.254C103.46 108.086 103.162 107.855 102.883 107.561L102.809 107.483C102.533 107.191 102.319 106.881 102.166 106.552C102.017 106.226 101.935 105.892 101.923 105.552C101.91 105.217 101.973 104.887 102.112 104.564C102.251 104.24 102.473 103.934 102.777 103.647C103.08 103.359 103.399 103.153 103.733 103.03C104.063 102.908 104.397 102.862 104.734 102.891C105.069 102.924 105.397 103.025 105.715 103.192C106.035 103.362 106.334 103.593 106.609 103.885ZM105.615 104.974L105.542 104.896C105.383 104.728 105.219 104.585 105.052 104.467C104.884 104.349 104.715 104.266 104.545 104.215C104.376 104.169 104.208 104.166 104.043 104.205C103.879 104.243 103.72 104.335 103.566 104.481C103.418 104.621 103.32 104.773 103.273 104.935C103.225 105.098 103.22 105.263 103.259 105.433C103.3 105.605 103.375 105.778 103.483 105.952C103.589 106.128 103.721 106.301 103.881 106.469L103.955 106.547C104.109 106.71 104.27 106.847 104.438 106.961C104.606 107.078 104.775 107.161 104.948 107.21C105.119 107.262 105.29 107.27 105.457 107.234C105.624 107.198 105.782 107.108 105.934 106.965C106.084 106.822 106.183 106.669 106.227 106.503C106.271 106.341 106.271 106.172 106.23 105.995C106.189 105.822 106.115 105.65 106.006 105.475C105.9 105.304 105.77 105.137 105.615 104.974Z" fill="#286C5E"/>
<path d="M100.9 110.941L98.4968 107.321L99.722 106.507L102.777 111.111L101.629 111.873L100.9 110.941ZM100.31 109.665L100.642 109.445C100.868 109.786 101.027 110.121 101.12 110.452C101.215 110.785 101.247 111.101 101.216 111.399C101.187 111.7 101.097 111.974 100.946 112.221C100.795 112.473 100.583 112.69 100.311 112.87C100.095 113.013 99.8772 113.113 99.6571 113.169C99.437 113.225 99.218 113.227 99 113.176C98.7792 113.126 98.5604 113.012 98.3436 112.833C98.124 112.656 97.9069 112.406 97.6923 112.083L95.744 109.147L96.9779 108.328L98.9289 111.268C99.0645 111.472 99.1982 111.613 99.3303 111.688C99.4623 111.764 99.5986 111.788 99.7394 111.76C99.8792 111.737 100.028 111.672 100.187 111.567C100.352 111.458 100.473 111.33 100.552 111.184C100.628 111.039 100.667 110.883 100.669 110.714C100.67 110.55 100.64 110.378 100.578 110.198C100.516 110.019 100.427 109.841 100.31 109.665Z" fill="#286C5E"/>
<path d="M94.2181 116.075L93.7634 115.138L96.6576 113.733L97.1124 114.67L94.2181 116.075ZM96.9909 116.244L95.6678 116.887L93.3874 112.187C93.3176 112.043 93.2457 111.941 93.1718 111.883C93.0948 111.826 93.0106 111.8 92.9192 111.807C92.8292 111.816 92.7261 111.85 92.6097 111.906C92.527 111.946 92.455 111.985 92.3936 112.022C92.3307 112.064 92.2785 112.101 92.237 112.132L91.7599 111.161C91.8553 111.069 91.9637 110.98 92.085 110.895C92.2063 110.809 92.3466 110.728 92.5058 110.651C92.7968 110.51 93.074 110.434 93.3375 110.423C93.5995 110.417 93.8406 110.493 94.061 110.651C94.2815 110.809 94.4764 111.063 94.6457 111.411L96.9909 116.244Z" fill="#286C5E"/>
<path d="M88.46 113.659L89.2374 115.994C89.2933 116.162 89.3686 116.296 89.4633 116.397C89.5591 116.502 89.6763 116.569 89.8152 116.597C89.9508 116.628 90.1091 116.613 90.29 116.553C90.445 116.501 90.5699 116.429 90.6647 116.336C90.7605 116.247 90.8224 116.142 90.8505 116.022C90.8796 115.904 90.8721 115.78 90.828 115.647L92.2233 115.183C92.2975 115.405 92.3162 115.634 92.2795 115.868C92.2429 116.103 92.1513 116.329 92.0048 116.547C91.8594 116.768 91.6656 116.966 91.4232 117.144C91.1777 117.323 90.8854 117.468 90.5463 117.582C90.1393 117.717 89.755 117.769 89.3933 117.739C89.0317 117.708 88.7152 117.588 88.444 117.377C88.1696 117.167 87.9646 116.859 87.8292 116.452L87.0824 114.208C86.9867 113.921 86.8905 113.691 86.7936 113.519C86.6979 113.349 86.5935 113.209 86.4805 113.096L86.4531 113.013L87.8629 112.544C87.9781 112.664 88.0889 112.824 88.1954 113.025C88.2998 113.231 88.3879 113.442 88.46 113.659ZM88.9452 115.73L88.6726 114.943L89.4526 114.684C89.6368 114.623 89.7896 114.549 89.9113 114.461C90.0329 114.374 90.1245 114.277 90.1859 114.171C90.2484 114.068 90.2839 113.959 90.2926 113.845C90.298 113.731 90.2809 113.615 90.2411 113.496C90.2013 113.376 90.1378 113.277 90.0506 113.198C89.9646 113.123 89.8607 113.075 89.739 113.055C89.6185 113.037 89.4887 113.052 89.3498 113.098C89.14 113.168 88.9714 113.271 88.8444 113.406C88.7173 113.542 88.6322 113.685 88.5891 113.836C88.5427 113.987 88.5362 114.119 88.5696 114.23L88.0046 113.762C88.0122 113.611 88.0375 113.451 88.0807 113.279C88.1205 113.107 88.1874 112.936 88.2811 112.765C88.3758 112.598 88.5051 112.441 88.6687 112.297C88.8335 112.156 89.0467 112.043 89.3083 111.955C89.641 111.844 89.965 111.81 90.2804 111.852C90.5937 111.898 90.8687 112.013 91.1054 112.197C91.34 112.384 91.5079 112.63 91.609 112.933C91.7003 113.207 91.7299 113.469 91.6975 113.716C91.6651 113.964 91.5729 114.193 91.4211 114.406C91.267 114.621 91.0506 114.817 90.7718 114.993C90.494 115.171 90.1548 115.328 89.7543 115.461L88.9452 115.73Z" fill="#286C5E"/>
<path d="M82.8996 114.765C82.7214 114.793 82.5686 114.852 82.4413 114.94C82.3145 115.032 82.2222 115.147 82.1644 115.284C82.1037 115.424 82.0852 115.58 82.1088 115.752L80.7418 115.967C80.685 115.583 80.7339 115.225 80.8886 114.895C81.0439 114.567 81.278 114.29 81.5907 114.066C81.9039 113.845 82.2707 113.7 82.6911 113.634C83.1148 113.568 83.4959 113.58 83.8342 113.672C84.1691 113.764 84.4603 113.918 84.7079 114.135C84.956 114.354 85.1583 114.622 85.3149 114.939C85.472 115.259 85.5806 115.61 85.6408 115.994L85.6638 116.14C85.7245 116.527 85.7289 116.894 85.6769 117.244C85.6255 117.597 85.515 117.913 85.3456 118.195C85.1767 118.48 84.947 118.718 84.6565 118.908C84.3659 119.099 84.0104 119.226 83.59 119.293C83.1428 119.363 82.7375 119.339 82.3743 119.22C82.0077 119.102 81.7035 118.898 81.4616 118.609C81.2169 118.324 81.0588 117.964 80.9873 117.531L82.3543 117.316C82.3862 117.497 82.4508 117.656 82.5481 117.792C82.6419 117.929 82.7646 118.03 82.9162 118.096C83.065 118.166 83.2386 118.185 83.437 118.154C83.6489 118.121 83.815 118.048 83.9352 117.936C84.056 117.828 84.1412 117.69 84.1909 117.524C84.2411 117.361 84.2661 117.179 84.2657 116.979C84.2625 116.783 84.2443 116.58 84.211 116.368L84.188 116.222C84.1547 116.01 84.1093 115.808 84.0518 115.618C83.9943 115.426 83.9167 115.262 83.8188 115.122C83.7178 114.983 83.5931 114.88 83.4448 114.814C83.2966 114.748 83.1149 114.731 82.8996 114.765Z" fill="#286C5E"/>
<path d="M76.2489 119.762L76.2222 118.721L79.438 118.638L79.4647 119.679L76.2489 119.762ZM78.7035 121.063L77.2334 121.1L77.0991 115.878C77.095 115.718 77.0715 115.597 77.0284 115.512C76.982 115.429 76.9158 115.37 76.8299 115.338C76.7441 115.31 76.6364 115.297 76.5071 115.301C76.4152 115.303 76.3337 115.309 76.2624 115.317C76.1878 115.329 76.1251 115.341 76.0743 115.353L76.0414 114.271C76.1662 114.227 76.3015 114.191 76.4472 114.164C76.5929 114.136 76.7543 114.12 76.9312 114.115C77.2545 114.107 77.5383 114.152 77.7827 114.252C78.0236 114.354 78.2119 114.524 78.3473 114.758C78.4828 114.993 78.5554 115.304 78.5655 115.692L78.7035 121.063Z" fill="#286C5E"/>
<path d="M64.3889 120.045L65.9556 112.778L67.453 113.1L69.323 118.601L70.3731 113.729L71.8705 114.052L70.3039 121.32L68.8065 120.997L66.9326 115.49L65.8814 120.367L64.3889 120.045Z" fill="#286C5E"/>
<path d="M63.091 114.68L63.0485 114.779C62.8878 115.15 62.6869 115.47 62.4456 115.736C62.2031 116.006 61.9302 116.212 61.6272 116.356C61.3242 116.499 60.9966 116.571 60.6444 116.571C60.2908 116.574 59.9219 116.493 59.5375 116.326C59.153 116.161 58.8392 115.947 58.5959 115.686C58.3513 115.429 58.1773 115.14 58.0741 114.821C57.9677 114.501 57.9296 114.16 57.9597 113.798C57.9884 113.44 58.0831 113.075 58.2437 112.702L58.2862 112.605C58.4455 112.235 58.6465 111.916 58.889 111.647C59.1303 111.38 59.4046 111.174 59.7121 111.029C60.0152 110.885 60.3428 110.814 60.695 110.814C61.0472 110.814 61.4155 110.897 61.7999 111.063C62.1843 111.229 62.4988 111.441 62.7435 111.699C62.985 111.955 63.159 112.243 63.2653 112.563C63.3673 112.885 63.4038 113.226 63.3751 113.584C63.345 113.946 63.2503 114.311 63.091 114.68ZM61.6985 114.195L61.741 114.097C61.8327 113.884 61.8997 113.678 61.9419 113.477C61.984 113.277 61.9949 113.088 61.9744 112.913C61.9494 112.739 61.8866 112.583 61.7859 112.447C61.6853 112.311 61.5381 112.201 61.3444 112.118C61.1569 112.036 60.979 112.006 60.8109 112.027C60.6428 112.046 60.4884 112.108 60.3477 112.21C60.2057 112.315 60.0762 112.453 59.959 112.62C59.8388 112.788 59.7327 112.977 59.641 113.189L59.5984 113.288C59.5094 113.495 59.4459 113.697 59.4083 113.895C59.3661 114.096 59.3569 114.285 59.3805 114.462C59.3997 114.641 59.4589 114.8 59.5582 114.94C59.6574 115.079 59.8024 115.189 59.993 115.272C60.1836 115.354 60.3637 115.384 60.5332 115.36C60.6996 115.336 60.8559 115.27 61.0024 115.163C61.1444 115.057 61.274 114.92 61.3911 114.752C61.507 114.587 61.6094 114.401 61.6985 114.195Z" fill="#286C5E"/>
<path d="M55.8879 109.762L52.5959 112.456L51.8309 111.919L53.001 110.775L56.1903 108.228L56.83 108.676L55.8879 109.762ZM54.0132 113.449L55.6885 109.628L56.4496 108.41L57.2021 108.937L55.1753 114.265L54.0132 113.449ZM53.2799 108.021L50.3133 110.855L49.1469 110.036L53.4646 106.317L54.2129 106.841L53.2799 108.021ZM51.7263 111.845L53.1236 107.861L53.8325 106.574L54.4763 107.026L53.1712 110.888L52.483 112.376L51.7263 111.845Z" fill="#286C5E"/>
<path d="M43.9581 102.111L44.8459 101.374L46.6892 103.594L45.8015 104.331L43.9581 102.111Z" fill="#286C5E"/>
<path d="M39.6553 92.4062L39.007 91.0239C39.4731 90.8392 39.9338 90.7754 40.3892 90.8325C40.8432 90.8866 41.2613 91.0646 41.6436 91.3666C42.0244 91.6655 42.3442 92.0907 42.6029 92.6424C42.8053 93.0739 42.9128 93.4954 42.9252 93.9068C42.9347 94.3198 42.8563 94.7138 42.6899 95.0888C42.5223 95.4607 42.2692 95.8031 41.9309 96.1159C41.5926 96.4287 41.1769 96.7008 40.6838 96.932L40.2168 97.1511C39.7237 97.3824 39.2481 97.5265 38.7898 97.5835C38.3269 97.6389 37.8981 97.6106 37.5036 97.4987C37.1075 97.3837 36.7537 97.1905 36.4421 96.9192C36.1307 96.648 35.8759 96.3012 35.678 95.879C35.4148 95.318 35.2947 94.7972 35.3174 94.3166C35.3387 93.8329 35.4782 93.4008 35.736 93.0205C35.9924 92.637 36.3385 92.3168 36.7744 92.0597L37.4248 93.4466C37.1608 93.5893 36.9565 93.7509 36.8119 93.9315C36.6641 94.1136 36.5866 94.3211 36.5792 94.5538C36.5674 94.785 36.6337 95.0547 36.7782 95.3629C36.8866 95.5941 37.0245 95.7757 37.1917 95.9078C37.359 96.04 37.5579 96.1234 37.7885 96.1581C38.019 96.1929 38.2822 96.1766 38.5777 96.1094C38.8688 96.0406 39.1931 95.9223 39.5507 95.7546L40.0268 95.5313C40.3751 95.368 40.6694 95.198 40.9099 95.0213C41.1473 94.846 41.3317 94.6618 41.4629 94.4686C41.5897 94.2739 41.6588 94.0684 41.6702 93.8525C41.6772 93.6349 41.6229 93.4028 41.5073 93.1562C41.3714 92.8665 41.2131 92.6494 41.0325 92.5048C40.8519 92.3601 40.6475 92.2811 40.4194 92.2677C40.1899 92.2513 39.9352 92.2975 39.6553 92.4062Z" fill="#286C5E"/>
<path d="M37.9804 88.892L37.8763 88.9179C37.4832 89.0158 37.1075 89.0497 36.7493 89.0197C36.3876 88.9905 36.0579 88.899 35.76 88.7451C35.4621 88.5913 35.2063 88.3743 34.9927 88.0942C34.7758 87.815 34.6168 87.4722 34.5156 87.0659C34.4144 86.6597 34.3937 86.2806 34.4534 85.929C34.5099 85.5782 34.6336 85.2649 34.8246 84.9894C35.0146 84.7104 35.2626 84.4733 35.5682 84.2779C35.8706 84.0833 36.2183 83.9371 36.6114 83.8392L36.7154 83.8133C37.1052 83.7162 37.4809 83.6822 37.8425 83.7114C38.2008 83.7415 38.531 83.8347 38.833 83.991C39.1309 84.1448 39.3867 84.3617 39.6003 84.6418C39.8138 84.9219 39.9712 85.2651 40.0725 85.6714C40.1736 86.0777 40.196 86.4562 40.1395 86.8071C40.0823 87.1546 39.9586 87.4678 39.7684 87.7467C39.5741 88.0232 39.3259 88.2586 39.0235 88.4532C38.7179 88.6487 38.3701 88.7949 37.9804 88.892ZM37.5209 87.4909L37.6249 87.465C37.8496 87.409 38.0544 87.337 38.2394 87.2488C38.4244 87.1606 38.5806 87.0551 38.7078 86.9321C38.8309 86.8068 38.9161 86.6628 38.9633 86.5002C39.0105 86.3375 39.0086 86.1538 38.9576 85.949C38.9082 85.7509 38.8245 85.591 38.7066 85.4695C38.5887 85.3481 38.4463 85.2625 38.2796 85.2129C38.1096 85.1639 37.9222 85.144 37.7173 85.1529C37.5118 85.1585 37.2967 85.1892 37.0721 85.2452L36.968 85.2711C36.75 85.3254 36.5505 85.3979 36.3696 85.4886C36.1846 85.5768 36.0289 85.6839 35.9025 85.8101C35.7719 85.9339 35.6814 86.0774 35.6309 86.2408C35.5804 86.4043 35.5802 86.5868 35.6304 86.7883C35.6806 86.9898 35.7663 87.1508 35.8876 87.2715C36.008 87.3888 36.1553 87.4732 36.3295 87.5245C36.4995 87.5734 36.6869 87.5933 36.8917 87.5845C37.0931 87.5764 37.3029 87.5452 37.5209 87.4909Z" fill="#286C5E"/>
<path d="M34.6527 80.4635L38.987 80.1537L39.0919 81.6206L33.581 82.0144L33.4827 80.6392L34.6527 80.4635ZM36.0533 80.5784L36.0817 80.9756C35.6743 81.0048 35.3038 80.9784 34.9703 80.8964C34.6335 80.8146 34.3428 80.687 34.0982 80.5133C33.8504 80.3399 33.656 80.1268 33.5151 79.8741C33.3705 79.6183 33.2866 79.3274 33.2633 79.0014C33.2448 78.7433 33.2653 78.5047 33.3248 78.2855C33.3842 78.0661 33.4899 77.8743 33.642 77.7099C33.7938 77.542 34.0009 77.4078 34.2633 77.3071C34.5255 77.2031 34.8501 77.1373 35.2373 77.1095L38.7515 76.8584L38.8571 78.3355L35.3376 78.5869C35.0932 78.6044 34.9055 78.6519 34.7745 78.7296C34.6436 78.8072 34.5556 78.9142 34.5107 79.0505C34.4623 79.1836 34.4448 79.3453 34.4584 79.5354C34.4725 79.7323 34.5238 79.901 34.6123 80.0415C34.7006 80.1785 34.8178 80.2896 34.9637 80.3747C35.1061 80.4567 35.2707 80.5149 35.4574 80.5493C35.6442 80.5837 35.8428 80.5934 36.0533 80.5784Z" fill="#286C5E"/>
<path d="M33.4688 72.0536L34.5084 72.1187L34.3071 75.3293L33.2675 75.2642L33.4688 72.0536ZM31.9567 74.3839L32.0487 72.9162L37.2621 73.243C37.4218 73.253 37.5454 73.2402 37.6328 73.2048C37.7206 73.166 37.784 73.1051 37.8234 73.0224C37.8592 72.9394 37.8812 72.8333 37.8894 72.7042C37.8951 72.6124 37.8968 72.5306 37.8945 72.4589C37.889 72.3835 37.8828 72.32 37.8757 72.2684L38.9565 72.3311C38.9894 72.4593 39.0131 72.5972 39.0277 72.7448C39.0424 72.8924 39.0441 73.0546 39.033 73.2312C39.0128 73.5539 38.9425 73.8326 38.8221 74.0673C38.6984 74.2983 38.5137 74.4708 38.2677 74.585C38.0218 74.6993 37.7052 74.7442 37.3178 74.7199L31.9567 74.3839Z" fill="#286C5E"/>
<path d="M38.3987 68.2438L35.9826 67.775C35.8088 67.7413 35.6546 67.7408 35.5199 67.7736C35.3819 67.8058 35.2661 67.8752 35.1727 67.9819C35.0798 68.0853 35.0152 68.2305 34.9789 68.4177C34.9477 68.5781 34.9492 68.7223 34.9833 68.8502C35.0141 68.9776 35.0751 69.0831 35.1664 69.1666C35.2544 69.2496 35.3668 69.3043 35.5038 69.3309L35.2238 70.7746C34.9931 70.7298 34.7847 70.6339 34.5982 70.4868C34.4117 70.3396 34.2598 70.1489 34.1422 69.9146C34.0214 69.6796 33.9431 69.413 33.9073 69.1148C33.8722 68.8132 33.8887 68.487 33.9568 68.1361C34.0385 67.715 34.1813 67.3544 34.3852 67.0541C34.5891 66.7538 34.8495 66.5374 35.1666 66.4047C35.4842 66.2687 35.8536 66.2415 36.2747 66.3232L38.5956 66.7735C38.893 66.8312 39.1405 66.8602 39.3381 66.8604C39.5324 66.8599 39.7065 66.8383 39.8605 66.7953L39.9457 66.8119L39.6627 68.2705C39.5021 68.3122 39.3079 68.33 39.0801 68.324C38.8498 68.3139 38.6226 68.2872 38.3987 68.2438ZM36.3554 67.6496L37.1744 67.7982L37.0178 68.6052C36.9809 68.7957 36.9705 68.9654 36.9867 69.1141C37.003 69.2629 37.0424 69.3902 37.1051 69.4959C37.1644 69.6011 37.2417 69.6854 37.3369 69.749C37.4327 69.8092 37.5424 69.8513 37.6661 69.8753C37.7897 69.8993 37.9072 69.8926 38.0184 69.8552C38.1264 69.8172 38.2191 69.7503 38.2967 69.6544C38.3709 69.5578 38.422 69.4376 38.4498 69.2939C38.492 69.0768 38.4851 68.8795 38.4294 68.7022C38.3737 68.525 38.2907 68.3805 38.1806 68.2691C38.071 68.1542 37.9599 68.0841 37.8469 68.0586L38.5324 67.7963C38.659 67.8764 38.7868 67.9775 38.9157 68.0996C39.0452 68.2183 39.1615 68.3606 39.2646 68.5262C39.3644 68.6912 39.4369 68.8804 39.4822 69.0938C39.5241 69.3065 39.5188 69.5482 39.4663 69.8188C39.3995 70.1631 39.2704 70.4623 39.0789 70.7164C38.8847 70.9665 38.6498 71.1498 38.374 71.2662C38.0957 71.3786 37.7993 71.4044 37.4852 71.3434C37.2012 71.2883 36.9592 71.1859 36.7594 71.0362C36.5596 70.8864 36.4046 70.6934 36.2944 70.457C36.1816 70.2166 36.1172 69.9319 36.1012 69.6029C36.082 69.2732 36.1126 68.9012 36.193 68.4868L36.3554 67.6496Z" fill="#286C5E"/>
<path d="M40.1695 62.8433C40.2327 62.6743 40.2569 62.5125 40.242 62.3579C40.2238 62.2022 40.1695 62.0656 40.0789 61.9481C39.9864 61.8263 39.8594 61.7334 39.698 61.6695L40.1824 60.3733C40.5448 60.5123 40.832 60.7305 41.0444 61.0279C41.2534 61.3241 41.3791 61.6636 41.4213 62.0465C41.4604 62.4281 41.4055 62.8183 41.2565 63.2168C41.1063 63.6186 40.9082 63.9443 40.6623 64.194C40.4175 64.4405 40.1402 64.6185 39.8303 64.728C39.5173 64.8363 39.1844 64.8809 38.8319 64.8618C38.476 64.8414 38.1164 64.7633 37.7528 64.6275L37.6142 64.5756C37.2474 64.4385 36.9247 64.2616 36.646 64.0447C36.364 63.8267 36.1421 63.5747 35.98 63.2888C35.8148 63.0018 35.7206 62.6849 35.6975 62.3383C35.6744 61.9917 35.7374 61.6191 35.8864 61.2205C36.0449 60.7965 36.265 60.4553 36.5468 60.1972C36.8299 59.936 37.1568 59.771 37.5277 59.7026C37.8965 59.6296 38.2872 59.6685 38.6997 59.819L38.2152 61.1153C38.0419 61.0541 37.8719 61.0323 37.7054 61.05C37.54 61.0645 37.3915 61.1217 37.2598 61.2214C37.1259 61.3168 37.0239 61.4586 36.9536 61.6467C36.8785 61.8475 36.8602 62.0279 36.8986 62.1876C36.9338 62.3462 37.0117 62.4879 37.1321 62.6129C37.2494 62.7366 37.3952 62.8474 37.5694 62.9453C37.7416 63.0387 37.9281 63.123 38.129 63.1981L38.2677 63.2499C38.4686 63.325 38.6663 63.3843 38.8608 63.428C39.0553 63.4716 39.2374 63.4852 39.407 63.4686C39.578 63.449 39.7287 63.3908 39.8592 63.2943C39.9899 63.1977 40.0933 63.0474 40.1695 62.8433Z" fill="#286C5E"/>
<path d="M39.0888 54.6001L40.0084 55.0894L38.4975 57.9294L37.5779 57.4402L39.0888 54.6001ZM36.7484 56.0966L37.4391 54.7983L42.0508 57.2517C42.192 57.3268 42.3098 57.3664 42.4041 57.3702C42.5 57.3711 42.583 57.342 42.653 57.2828C42.72 57.2221 42.784 57.1347 42.8447 57.0205C42.8878 56.9393 42.9232 56.8655 42.9508 56.7992C42.9769 56.7283 42.9975 56.6679 43.0125 56.618L43.9705 57.122C43.9474 57.2524 43.912 57.3878 43.8644 57.5282C43.8167 57.6686 43.7512 57.817 43.6681 57.9733C43.5162 58.2587 43.3369 58.4834 43.1302 58.6472C42.9222 58.8064 42.6825 58.8872 42.4114 58.8895C42.1403 58.8918 41.8334 58.8018 41.4908 58.6195L36.7484 56.0966Z" fill="#286C5E"/>
<path d="M44.6676 44.1663L50.2224 49.1077L49.2042 50.2523L43.4953 49.1716L47.2188 52.4841L46.2006 53.6286L40.6459 48.6871L41.6641 47.5425L47.3802 48.6228L43.6529 45.307L44.6676 44.1663Z" fill="#286C5E"/>
<path d="M49.9622 45.683L49.8972 45.5976C49.6517 45.2754 49.4719 44.9438 49.3577 44.6028C49.2414 44.2592 49.195 43.9201 49.2184 43.5857C49.2418 43.2511 49.3398 42.9304 49.5125 42.6235C49.6832 42.3138 49.935 42.0321 50.2681 41.7784C50.6013 41.5247 50.9411 41.3557 51.2877 41.2714C51.6322 41.1844 51.9689 41.1741 52.2975 41.2404C52.6289 41.3047 52.9448 41.4385 53.2452 41.6419C53.5435 41.8426 53.8154 42.1041 54.0609 42.4264L54.1258 42.5116C54.3692 42.8312 54.549 43.1628 54.6653 43.5065C54.7795 43.8473 54.8245 44.1875 54.8005 44.5267C54.7771 44.8611 54.6791 45.1819 54.5064 45.4889C54.3336 45.7959 54.0808 46.0762 53.7477 46.3299C53.4146 46.5836 53.0758 46.7539 52.7312 46.8409C52.3893 46.9259 52.0528 46.9362 51.7214 46.8719C51.3907 46.8028 51.0762 46.6681 50.7778 46.4673C50.4774 46.264 50.2055 46.0025 49.9622 45.683ZM51.0671 44.7065L51.132 44.7919C51.2723 44.976 51.4195 45.1356 51.5737 45.2706C51.7279 45.4056 51.8866 45.5073 52.0498 45.5755C52.2137 45.639 52.3796 45.6603 52.5477 45.6392C52.7157 45.6183 52.8836 45.5438 53.0515 45.416C53.2141 45.2922 53.3277 45.1521 53.3926 44.9957C53.4574 44.8393 53.4798 44.6747 53.4594 44.5019C53.437 44.3265 53.3812 44.1464 53.292 43.9619C53.2055 43.7753 53.0921 43.5899 52.9518 43.4058L52.8869 43.3205C52.7507 43.1417 52.6052 42.9873 52.4504 42.857C52.2962 42.722 52.1362 42.6214 51.9702 42.5552C51.8049 42.4842 51.6372 42.458 51.4672 42.4762C51.2971 42.4945 51.1295 42.5665 50.9643 42.6924C50.7991 42.8182 50.6851 42.9607 50.6223 43.1198C50.5622 43.2768 50.5429 43.4455 50.5647 43.6257C50.5871 43.8012 50.643 43.9812 50.7322 44.1658C50.8193 44.3476 50.9309 44.5278 51.0671 44.7065Z" fill="#286C5E"/>
<path d="M57.7731 41.8148L57.0366 37.6258L57.879 37.2214L58.3035 38.8018L58.9626 42.8298L58.2584 43.1678L57.7731 41.8148ZM55.4761 38.3749L57.9873 41.7064L58.6772 42.9667L57.8487 43.3645L54.1964 38.9892L55.4761 38.3749ZM60.5686 40.3936L59.55 36.4193L60.8343 35.8027L61.964 41.3889L61.14 41.7845L60.5686 40.3936ZM57.9941 37.1662L60.7842 40.3354L61.5589 41.5834L60.85 41.9237L58.1216 38.8948L57.1609 37.5661L57.9941 37.1662Z" fill="#286C5E"/>
<path d="M70.3073 35.1746L70.512 36.3102L67.6727 36.8218L67.468 35.686L70.3073 35.1746Z" fill="#286C5E"/>
</g>
<defs>
<clipPath id="clip0_406_1064">
<rect width="101" height="101" fill="white" transform="translate(25.4935 25.2744)"/>
</clipPath>
</defs>
</svg>
