<svg width="31" height="33" viewBox="0 0 31 33" fill="none" xmlns="http://www.w3.org/2000/svg">
<path d="M26.5124 4.51688C25.0861 3.09283 23.3896 1.96087 21.5202 1.1858C19.6507 0.410727 17.6449 0.00777022 15.6177 0H15.4999C11.3891 0 7.44663 1.61422 4.53983 4.48754C1.63303 7.36087 0 11.2579 0 15.3214V23.5714C0 24.5092 0.376852 25.4085 1.04765 26.0716C1.71845 26.7346 2.62825 27.1071 3.57691 27.1071H5.96152C6.91017 27.1071 7.81997 26.7346 8.49077 26.0716C9.16158 25.4085 9.53843 24.5092 9.53843 23.5714V17.6786C9.53843 16.7408 9.16158 15.8415 8.49077 15.1784C7.81997 14.5154 6.91017 14.1429 5.96152 14.1429H2.43826C2.6682 11.6854 3.602 9.34372 5.13022 7.39215C6.65844 5.44059 8.71776 3.96005 11.0668 3.12405C13.4159 2.28805 15.9573 2.13123 18.3933 2.67198C20.8293 3.21273 23.0589 4.42863 24.8208 6.17719C26.9742 8.31674 28.2988 11.1361 28.5631 14.1429H25.0384C24.0897 14.1429 23.1799 14.5154 22.5091 15.1784C21.8383 15.8415 21.4615 16.7408 21.4615 17.6786V23.5714C21.4615 24.5092 21.8383 25.4085 22.5091 26.0716C23.1799 26.7346 24.0897 27.1071 25.0384 27.1071H28.6153C28.6153 28.0449 28.2384 28.9442 27.5676 29.6073C26.8968 30.2703 25.987 30.6429 25.0384 30.6429H16.6922C16.376 30.6429 16.0728 30.767 15.8492 30.9881C15.6256 31.2091 15.4999 31.5089 15.4999 31.8214C15.4999 32.134 15.6256 32.4338 15.8492 32.6548C16.0728 32.8758 16.376 33 16.6922 33H25.0384C26.6195 33 28.1358 32.3791 29.2538 31.274C30.3718 30.1689 30.9999 28.67 30.9999 27.1071V15.3214C31.0076 13.3172 30.6153 11.3312 29.8452 9.47717C29.0752 7.62313 27.9426 5.9375 26.5124 4.51688ZM5.96152 16.5C6.27774 16.5 6.581 16.6242 6.8046 16.8452C7.0282 17.0662 7.15382 17.366 7.15382 17.6786V23.5714C7.15382 23.884 7.0282 24.1838 6.8046 24.4048C6.581 24.6258 6.27774 24.75 5.96152 24.75H3.57691C3.26069 24.75 2.95742 24.6258 2.73382 24.4048C2.51022 24.1838 2.38461 23.884 2.38461 23.5714V16.5H5.96152ZM25.0384 24.75C24.7222 24.75 24.4189 24.6258 24.1953 24.4048C23.9717 24.1838 23.8461 23.884 23.8461 23.5714V17.6786C23.8461 17.366 23.9717 17.0662 24.1953 16.8452C24.4189 16.6242 24.7222 16.5 25.0384 16.5H28.6153V24.75H25.0384Z" fill="#01A35B"/>
</svg>
