<svg width="28" height="24" viewBox="0 0 28 24" fill="none" xmlns="http://www.w3.org/2000/svg">
<path d="M6.78125 12.5938H1.9375C1.68057 12.5938 1.43417 12.4917 1.25249 12.31C1.07081 12.1283 0.96875 11.8819 0.96875 11.625C0.96875 11.3681 1.07081 11.1217 1.25249 10.94C1.43417 10.7583 1.68057 10.6562 1.9375 10.6562H6.26297L7.91227 8.18109C8.0007 8.04821 8.12059 7.93924 8.26129 7.86387C8.40199 7.7885 8.55913 7.74906 8.71875 7.74906C8.87837 7.74906 9.03551 7.7885 9.17621 7.86387C9.31691 7.93924 9.4368 8.04821 9.52524 8.18109L12.5938 12.7827L13.7248 11.0873C13.8133 10.9546 13.9332 10.8459 14.0739 10.7706C14.2146 10.6954 14.3717 10.6561 14.5312 10.6562H17.4375C17.6944 10.6562 17.9408 10.7583 18.1225 10.94C18.3042 11.1217 18.4062 11.3681 18.4062 11.625C18.4062 11.8819 18.3042 12.1283 18.1225 12.31C17.9408 12.4917 17.6944 12.5938 17.4375 12.5938H15.0495L13.4002 15.0689C13.3118 15.2018 13.1919 15.3108 13.0512 15.3861C12.9105 15.4615 12.7534 15.5009 12.5938 15.5009C12.4341 15.5009 12.277 15.4615 12.1363 15.3861C11.9956 15.3108 11.8757 15.2018 11.7873 15.0689L8.71875 10.4649L7.58773 12.1602C7.49947 12.2934 7.37965 12.4026 7.23894 12.4783C7.09823 12.5539 6.941 12.5936 6.78125 12.5938ZM19.6172 0C17.1166 0 14.9272 1.07531 13.5625 2.89293C12.1978 1.07531 10.0084 0 7.50781 0C5.51731 0.00224355 3.60897 0.793964 2.20147 2.20147C0.793964 3.60897 0.00224355 5.51731 0 7.50781C0 7.59863 0 7.68945 0 7.78027C0.00802901 8.0372 0.117794 8.28042 0.305147 8.45642C0.4925 8.63241 0.742095 8.72678 0.999023 8.71875C1.25595 8.71072 1.49917 8.60096 1.67517 8.4136C1.85116 8.22625 1.94553 7.97666 1.9375 7.71973C1.9375 7.64949 1.9375 7.57805 1.9375 7.50781C1.93942 6.03106 2.52691 4.61535 3.57113 3.57113C4.61535 2.52691 6.03106 1.93942 7.50781 1.9375C9.86309 1.9375 11.8405 3.19203 12.6664 5.20703C12.7394 5.38471 12.8636 5.53668 13.0231 5.64363C13.1827 5.75058 13.3704 5.80769 13.5625 5.80769C13.7546 5.80769 13.9423 5.75058 14.1019 5.64363C14.2614 5.53668 14.3856 5.38471 14.4586 5.20703C15.2845 3.1884 17.2619 1.9375 19.6172 1.9375C21.0939 1.93942 22.5097 2.52691 23.5539 3.57113C24.5981 4.61535 25.1856 6.03106 25.1875 7.50781C25.1875 13.9996 15.7712 19.8775 13.5625 21.1672C12.2511 20.4031 8.40027 18.0187 5.48797 14.8449C5.40194 14.7511 5.29827 14.6751 5.18288 14.6213C5.06749 14.5676 4.94265 14.5371 4.81547 14.5316C4.6883 14.5261 4.56128 14.5457 4.44168 14.5892C4.32207 14.6328 4.21222 14.6995 4.1184 14.7855C4.02457 14.8716 3.94862 14.9752 3.89486 15.0906C3.8411 15.206 3.81059 15.3309 3.80508 15.458C3.79957 15.5852 3.81917 15.7122 3.86274 15.8318C3.90632 15.9514 3.97303 16.0613 4.05906 16.1551C7.83355 20.2723 12.8904 23.0187 13.1036 23.1337C13.2446 23.2096 13.4023 23.2494 13.5625 23.2494C13.7227 23.2494 13.8804 23.2096 14.0214 23.1337C14.5567 22.8455 27.125 15.9844 27.125 7.50781C27.1228 5.51731 26.331 3.60897 24.9235 2.20147C23.516 0.793964 21.6077 0.00224355 19.6172 0Z" fill="#01A35B"/>
</svg>
