<svg width="22" height="28" viewBox="0 0 22 28" fill="none" xmlns="http://www.w3.org/2000/svg">
<path d="M18.5 8.99747C17.981 8.99673 17.4684 9.1125 17 9.33622V5.49747C16.9998 4.89094 16.8421 4.29486 16.5422 3.76767C16.2422 3.24048 15.8105 2.80028 15.2892 2.49022C14.7679 2.18017 14.175 2.01091 13.5685 1.99903C12.9621 1.98715 12.363 2.13307 11.83 2.42247C11.5734 1.62945 11.0422 0.954034 10.332 0.517757C9.62178 0.0814791 8.77919 -0.0870222 7.95582 0.0425711C7.13245 0.172164 6.38236 0.591344 5.8405 1.22469C5.29865 1.85803 5.00061 2.66396 5 3.49747V4.33622C4.53164 4.1125 4.01905 3.99674 3.5 3.99747C2.57174 3.99747 1.6815 4.36622 1.02513 5.02259C0.368749 5.67897 0 6.56921 0 7.49747V16.9975C0 19.9148 1.15893 22.7127 3.22183 24.7756C5.28473 26.8385 8.08262 27.9975 11 27.9975C13.9174 27.9975 16.7153 26.8385 18.7782 24.7756C20.8411 22.7127 22 19.9148 22 16.9975V12.4975C22 11.5692 21.6313 10.679 20.9749 10.0226C20.3185 9.36622 19.4283 8.99747 18.5 8.99747ZM20 16.9975C20 19.3844 19.0518 21.6736 17.364 23.3614C15.6761 25.0493 13.3869 25.9975 11 25.9975C8.61305 25.9975 6.32387 25.0493 4.63604 23.3614C2.94821 21.6736 2 19.3844 2 16.9975V7.49747C2 7.09964 2.15804 6.71811 2.43934 6.43681C2.72064 6.1555 3.10218 5.99747 3.5 5.99747C3.89782 5.99747 4.27936 6.1555 4.56066 6.43681C4.84196 6.71811 5 7.09964 5 7.49747V11.9975C5 12.2627 5.10536 12.517 5.29289 12.7046C5.48043 12.8921 5.73478 12.9975 6 12.9975C6.26522 12.9975 6.51957 12.8921 6.70711 12.7046C6.89464 12.517 7 12.2627 7 11.9975V3.49747C7 3.09964 7.15804 2.71811 7.43934 2.43681C7.72064 2.1555 8.10218 1.99747 8.5 1.99747C8.89782 1.99747 9.27936 2.1555 9.56066 2.43681C9.84196 2.71811 10 3.09964 10 3.49747V10.9975C10 11.2627 10.1054 11.517 10.2929 11.7046C10.4804 11.8921 10.7348 11.9975 11 11.9975C11.2652 11.9975 11.5196 11.8921 11.7071 11.7046C11.8946 11.517 12 11.2627 12 10.9975V5.49747C12 5.09964 12.158 4.71811 12.4393 4.43681C12.7206 4.1555 13.1022 3.99747 13.5 3.99747C13.8978 3.99747 14.2794 4.1555 14.5607 4.43681C14.842 4.71811 15 5.09964 15 5.49747V12.9975C15 13.2627 15.1054 13.517 15.2929 13.7046C15.4804 13.8921 15.7348 13.9975 16 13.9975C16.2652 13.9975 16.5196 13.8921 16.7071 13.7046C16.8946 13.517 17 13.2627 17 12.9975V12.4975C17 12.0996 17.158 11.7181 17.4393 11.4368C17.7206 11.1555 18.1022 10.9975 18.5 10.9975C18.8978 10.9975 19.2794 11.1555 19.5607 11.4368C19.842 11.7181 20 12.0996 20 12.4975V16.9975ZM12.5 18.9975C12.5 19.2941 12.412 19.5841 12.2472 19.8308C12.0824 20.0775 11.8481 20.2698 11.574 20.3833C11.2999 20.4968 10.9983 20.5265 10.7074 20.4686C10.4164 20.4108 10.1491 20.2679 9.93934 20.0581C9.72956 19.8483 9.5867 19.5811 9.52882 19.2901C9.47094 18.9991 9.50065 18.6975 9.61418 18.4234C9.72771 18.1494 9.91997 17.9151 10.1666 17.7503C10.4133 17.5854 10.7033 17.4975 11 17.4975C11.3978 17.4975 11.7794 17.6555 12.0607 17.9368C12.342 18.2181 12.5 18.5996 12.5 18.9975ZM11 13.9975C6.435 13.9975 4.19875 18.365 4.105 18.55C4.03548 18.6889 3.99928 18.8421 3.99928 18.9975C3.99928 19.1528 4.03548 19.306 4.105 19.445C4.19875 19.63 6.435 23.9975 11 23.9975C15.565 23.9975 17.8013 19.63 17.895 19.445C17.9645 19.306 18.0007 19.1528 18.0007 18.9975C18.0007 18.8421 17.9645 18.6889 17.895 18.55C17.8013 18.365 15.565 13.9975 11 13.9975ZM11 21.9975C8.42125 21.9975 6.775 19.9325 6.1625 18.9975C6.775 18.0625 8.42125 15.9975 11 15.9975C13.5787 15.9975 15.2262 18.0637 15.8375 18.9975C15.225 19.9325 13.5787 21.9975 11 21.9975Z" fill="#01A35B"/>
</svg>
