<svg width="60" height="60" viewBox="0 0 60 60" fill="none" xmlns="http://www.w3.org/2000/svg">
<rect x="0.5" y="0.5" width="59" height="59" rx="29.5" fill="white"/>
<rect x="0.5" y="0.5" width="59" height="59" rx="29.5" stroke="white"/>
<path d="M41.8639 39.6005C40.1083 36.5757 37.4029 34.4068 34.2455 33.3786C35.8073 32.4521 37.0207 31.0402 37.6994 29.3599C38.378 27.6796 38.4845 25.8237 38.0023 24.0772C37.5202 22.3308 36.4761 20.7903 35.0305 19.6925C33.5849 18.5946 31.8176 18 30 18C28.1824 18 26.4151 18.5946 24.9695 19.6925C23.5239 20.7903 22.4798 22.3308 21.9977 24.0772C21.5155 25.8237 21.622 27.6796 22.3006 29.3599C22.9793 31.0402 24.1927 32.4521 25.7545 33.3786C22.5971 34.4056 19.8917 36.5746 18.1361 39.6005C18.0717 39.7051 18.029 39.8215 18.0105 39.9429C17.992 40.0642 17.998 40.188 18.0283 40.3069C18.0586 40.4259 18.1125 40.5376 18.1868 40.6355C18.2611 40.7333 18.3543 40.8154 18.4609 40.8768C18.5676 40.9382 18.6855 40.9776 18.8077 40.9929C18.9298 41.0081 19.0539 40.9988 19.1724 40.9655C19.2909 40.9322 19.4016 40.8756 19.4978 40.799C19.594 40.7224 19.6738 40.6274 19.7326 40.5195C21.9044 36.779 25.743 34.5458 30 34.5458C34.257 34.5458 38.0956 36.779 40.2674 40.5195C40.3262 40.6274 40.406 40.7224 40.5022 40.799C40.5984 40.8756 40.7091 40.9322 40.8276 40.9655C40.9461 40.9988 41.0701 41.0081 41.1923 40.9929C41.3145 40.9776 41.4324 40.9382 41.5391 40.8768C41.6457 40.8154 41.7389 40.7333 41.8132 40.6355C41.8875 40.5376 41.9414 40.4259 41.9717 40.3069C42.002 40.188 42.008 40.0642 41.9895 39.9429C41.971 39.8215 41.9283 39.7051 41.8639 39.6005ZM23.5447 26.2745C23.5447 25.0021 23.9233 23.7583 24.6326 22.7003C25.3419 21.6424 26.3501 20.8178 27.5297 20.3309C28.7092 19.844 30.0072 19.7166 31.2594 19.9648C32.5116 20.213 33.6618 20.8257 34.5646 21.7255C35.4674 22.6252 36.0822 23.7715 36.3313 25.0194C36.5804 26.2673 36.4525 27.5608 35.9639 28.7364C35.4753 29.9119 34.6479 30.9166 33.5864 31.6235C32.5248 32.3304 31.2767 32.7077 30 32.7077C28.2885 32.7059 26.6476 32.0275 25.4374 30.8214C24.2272 29.6154 23.5465 27.9801 23.5447 26.2745Z" fill="#01A35B"/>
</svg>
