<svg width="41" height="41" viewBox="0 0 41 41" fill="none" xmlns="http://www.w3.org/2000/svg">
<path d="M21.7812 12.8125V19.7745L27.5661 23.2451C27.8575 23.4201 28.0674 23.7037 28.1497 24.0335C28.232 24.3633 28.1799 24.7123 28.0049 25.0036C27.8299 25.295 27.5463 25.505 27.2165 25.5873C26.8867 25.6696 26.5378 25.6175 26.2464 25.4425L19.8401 21.5987C19.6505 21.4848 19.4936 21.3237 19.3848 21.1312C19.2759 20.9387 19.2187 20.7212 19.2187 20.5V12.8125C19.2187 12.4727 19.3537 12.1468 19.594 11.9066C19.8343 11.6663 20.1602 11.5313 20.5 11.5313C20.8398 11.5313 21.1657 11.6663 21.406 11.9066C21.6462 12.1468 21.7812 12.4727 21.7812 12.8125ZM35.875 8.9688C35.5352 8.9688 35.2093 9.10379 34.969 9.34407C34.7287 9.58435 34.5937 9.91024 34.5937 10.25V13.1329C33.5767 11.9541 32.5389 10.8186 31.3714 9.63665C29.2347 7.49969 26.5156 6.03979 23.5539 5.43936C20.5922 4.83893 17.5192 5.12459 14.719 6.26066C11.9187 7.39673 9.5153 9.33282 7.8091 11.827C6.10289 14.3212 5.16953 17.2629 5.12565 20.2845C5.08176 23.3062 5.92929 26.2737 7.56234 28.8164C9.19538 31.3591 11.5415 33.3642 14.3076 34.5811C17.0737 35.798 20.1371 36.1728 23.115 35.6586C26.0929 35.1445 28.8532 33.7642 31.0511 31.6902C31.1735 31.5745 31.2719 31.4358 31.3407 31.2821C31.4095 31.1284 31.4474 30.9626 31.4522 30.7943C31.4569 30.6259 31.4285 30.4583 31.3685 30.301C31.3084 30.1436 31.218 29.9996 31.1023 29.8772C30.9866 29.7548 30.848 29.6564 30.6943 29.5875C30.5406 29.5187 30.3748 29.4809 30.2065 29.4761C30.0381 29.4713 29.8705 29.4998 29.7131 29.5598C29.5558 29.6198 29.4118 29.7103 29.2894 29.8259C27.4572 31.5526 25.1571 32.7012 22.6761 33.1283C20.1951 33.5555 17.6432 33.2423 15.3391 32.2279C13.0351 31.2134 11.0809 29.5427 9.72069 27.4243C8.36047 25.3058 7.65448 22.8337 7.69087 20.3164C7.72726 17.7992 8.50442 15.3484 9.9253 13.2702C11.3462 11.192 13.3478 9.57847 15.6802 8.63105C18.0127 7.68362 20.5725 7.44432 23.0401 7.94303C25.5078 8.44174 27.7738 9.65636 29.5552 11.4352C30.8589 12.7549 32.0008 14.0265 33.1523 15.375H29.4687C29.1289 15.375 28.803 15.51 28.5627 15.7503C28.3225 15.9906 28.1875 16.3165 28.1875 16.6563C28.1875 16.9961 28.3225 17.322 28.5627 17.5623C28.803 17.8026 29.1289 17.9375 29.4687 17.9375H35.875C36.2148 17.9375 36.5407 17.8026 36.781 17.5623C37.0212 17.322 37.1562 16.9961 37.1562 16.6563V10.25C37.1562 9.91024 37.0212 9.58435 36.781 9.34407C36.5407 9.10379 36.2148 8.9688 35.875 8.9688Z" fill="white"/>
</svg>
