<svg width="29" height="39" viewBox="0 0 29 39" fill="none" xmlns="http://www.w3.org/2000/svg">
<path d="M28.1875 14.1021C28.1889 11.727 27.5901 9.39006 26.4466 7.30833C25.3031 5.2266 23.652 3.46763 21.6468 2.19477C19.6415 0.921919 17.3471 0.176478 14.9767 0.0276859C12.6062 -0.121106 10.2366 0.331579 8.08794 1.34369C5.93927 2.35581 4.08123 3.89452 2.6864 5.81692C1.29156 7.73931 0.405183 9.98304 0.109583 12.3397C-0.186017 14.6963 0.118752 17.0895 0.995583 19.2968C1.87241 21.5041 3.29286 23.4541 5.125 24.9655V37.1646C5.12485 37.3831 5.18057 37.598 5.28689 37.7889C5.39321 37.9799 5.54659 38.1404 5.73244 38.2553C5.9183 38.3702 6.13045 38.4357 6.34874 38.4455C6.56703 38.4553 6.7842 38.4091 6.97961 38.3113L14.0938 34.7623L21.2095 38.3193C21.3879 38.4047 21.5835 38.448 21.7813 38.4459C22.1211 38.4459 22.447 38.3109 22.6872 38.0706C22.9275 37.8303 23.0625 37.5044 23.0625 37.1646V24.9655C24.6656 23.6452 25.9564 21.9864 26.8425 20.1082C27.7286 18.23 28.1879 16.1789 28.1875 14.1021ZM2.5625 14.1021C2.5625 11.8215 3.2388 9.592 4.50587 7.6957C5.77294 5.7994 7.57387 4.32141 9.68093 3.44863C11.788 2.57586 14.1065 2.3475 16.3434 2.79244C18.5802 3.23737 20.6349 4.33562 22.2476 5.94829C23.8603 7.56097 24.9585 9.61564 25.4034 11.8525C25.8484 14.0893 25.62 16.4079 24.7472 18.5149C23.8745 20.622 22.3965 22.4229 20.5002 23.69C18.6039 24.9571 16.3744 25.6334 14.0938 25.6334C11.0365 25.63 8.10547 24.414 5.94367 22.2522C3.78188 20.0904 2.56589 17.1594 2.5625 14.1021ZM20.5 35.0922L14.6655 32.1758C14.4875 32.0867 14.2912 32.0403 14.0921 32.0403C13.8931 32.0403 13.6968 32.0867 13.5188 32.1758L7.6875 35.0922V26.6536C9.67082 27.6673 11.8664 28.1958 14.0938 28.1958C16.3211 28.1958 18.5167 27.6673 20.5 26.6536V35.0922ZM14.0938 23.0709C15.8676 23.0709 17.6016 22.5449 19.0765 21.5594C20.5514 20.5739 21.701 19.1731 22.3798 17.5343C23.0586 15.8955 23.2362 14.0922 22.8902 12.3524C22.5441 10.6126 21.6899 9.01456 20.4356 7.76026C19.1813 6.50595 17.5832 5.65176 15.8435 5.3057C14.1037 4.95964 12.3004 5.13725 10.6616 5.81607C9.02273 6.4949 7.62201 7.64445 6.63651 9.11935C5.65101 10.5943 5.125 12.3283 5.125 14.1021C5.12755 16.48 6.07328 18.7598 7.7547 20.4412C9.43611 22.1226 11.7159 23.0683 14.0938 23.0709ZM14.0938 7.69587C15.3608 7.69587 16.5994 8.07159 17.6529 8.77552C18.7064 9.47944 19.5275 10.48 20.0124 11.6506C20.4972 12.8211 20.6241 14.1092 20.3769 15.3519C20.1297 16.5946 19.5196 17.7361 18.6237 18.632C17.7277 19.528 16.5862 20.1381 15.3435 20.3853C14.1009 20.6325 12.8128 20.5056 11.6422 20.0207C10.4716 19.5358 9.47108 18.7147 8.76715 17.6612C8.06322 16.6077 7.6875 15.3692 7.6875 14.1021C7.6875 12.4031 8.36244 10.7736 9.56385 9.57222C10.7653 8.37081 12.3947 7.69587 14.0938 7.69587Z" fill="white"/>
</svg>
