<svg width="34" height="34" viewBox="0 0 34 34" fill="none" xmlns="http://www.w3.org/2000/svg">
<path d="M32.4425 16.1348L30.0675 13.7598C29.6647 13.3575 29.1307 13.1132 28.563 13.0715C27.9952 13.0298 27.4313 13.1935 26.974 13.5327L19.6056 6.16425C19.945 5.70718 20.1089 5.1434 20.0675 4.57561C20.0261 4.00783 19.7821 3.4738 19.38 3.07081L17.005 0.695813C16.7844 0.475217 16.5226 0.300227 16.2344 0.180838C15.9462 0.0614492 15.6373 0 15.3254 0C15.0135 0 14.7046 0.0614492 14.4164 0.180838C14.1282 0.300227 13.8664 0.475217 13.6458 0.695813L4.14583 10.1958C3.92524 10.4164 3.75025 10.6782 3.63086 10.9664C3.51147 11.2546 3.45002 11.5634 3.45002 11.8754C3.45002 12.1873 3.51147 12.4962 3.63086 12.7844C3.75025 13.0726 3.92524 13.3344 4.14583 13.555L6.52083 15.93C6.92373 16.3317 7.45747 16.5754 8.02492 16.6168C8.59237 16.6582 9.15583 16.4946 9.61278 16.1556L10.6771 17.2199L0.972238 26.9247C0.327485 27.6299 -0.0204319 28.5565 0.000928429 29.5118C0.0222888 30.467 0.41128 31.3772 1.08691 32.0529C1.76254 32.7285 2.67273 33.1175 3.62798 33.1388C4.58322 33.1602 5.5099 32.8123 6.21505 32.1675L15.9184 22.4627L16.9827 23.5255C16.6433 23.9826 16.4794 24.5463 16.5208 25.1141C16.5622 25.6819 16.8062 26.216 17.2083 26.6189L19.5833 28.9939C19.8039 29.2145 20.0657 29.3895 20.3539 29.5089C20.6421 29.6283 20.951 29.6898 21.2629 29.6898C21.5748 29.6898 21.8837 29.6283 22.1719 29.5089C22.4601 29.3895 22.7219 29.2145 22.9425 28.9939L32.4425 19.4939C32.6631 19.2734 32.8381 19.0116 32.9574 18.7234C33.0768 18.4352 33.1383 18.1263 33.1383 17.8144C33.1383 17.5024 33.0768 17.1936 32.9574 16.9054C32.8381 16.6172 32.6631 16.3553 32.4425 16.1348ZM8.19966 14.2511L5.82466 11.8761L15.3247 2.37613L17.6997 4.75113L8.19966 14.2511ZM4.53622 30.4872C4.28592 30.736 3.94732 30.8757 3.59439 30.8757C3.24145 30.8757 2.90286 30.736 2.65255 30.4872C2.40418 30.237 2.26481 29.8987 2.26481 29.5461C2.26481 29.1936 2.40418 28.8553 2.65255 28.605L12.3559 18.9002L14.2396 20.7824L4.53622 30.4872ZM11.3168 14.4975L17.9461 7.86831L25.27 15.1922L18.6422 21.8214L11.3168 14.4975ZM21.2622 27.3136L18.8872 24.9386L19.4809 24.3449L27.7934 16.0324L28.3872 15.4386L30.7622 17.8136L21.2622 27.3136Z" fill="white"/>
</svg>
