<svg width="50" height="46" viewBox="0 0 50 46" fill="none" xmlns="http://www.w3.org/2000/svg">
<path d="M38.75 7.875H11.25C10.5207 7.875 9.82118 8.16473 9.30546 8.68046C8.78973 9.19618 8.5 9.89565 8.5 10.625V20.25C8.5 29.3113 12.8863 34.8027 16.5661 37.8139C20.5295 41.0555 24.4723 42.1555 24.6442 42.2019C24.8805 42.2662 25.1298 42.2662 25.3661 42.2019C25.538 42.1555 29.4756 41.0555 33.4442 37.8139C37.1138 34.8027 41.5 29.3113 41.5 20.25V10.625C41.5 9.89565 41.2103 9.19618 40.6945 8.68046C40.1788 8.16473 39.4793 7.875 38.75 7.875ZM38.75 20.25C38.75 26.6214 36.4022 31.7931 31.7719 35.6191C29.7563 37.2789 27.4639 38.5705 25 39.4347C22.5683 38.5856 20.3043 37.3168 18.3106 35.6861C13.6253 31.8533 11.25 26.6609 11.25 20.25V10.625H38.75V20.25ZM17.1522 25.3478C16.8942 25.0898 16.7492 24.7399 16.7492 24.375C16.7492 24.0101 16.8942 23.6602 17.1522 23.4022C17.4102 23.1442 17.7601 22.9992 18.125 22.9992C18.4899 22.9992 18.8398 23.1442 19.0978 23.4022L22.25 26.5561L30.9022 17.9022C31.0299 17.7744 31.1816 17.6731 31.3485 17.604C31.5154 17.5348 31.6943 17.4992 31.875 17.4992C32.0557 17.4992 32.2346 17.5348 32.4015 17.604C32.5684 17.6731 32.7201 17.7744 32.8478 17.9022C32.9756 18.0299 33.0769 18.1816 33.146 18.3485C33.2152 18.5154 33.2508 18.6943 33.2508 18.875C33.2508 19.0557 33.2152 19.2346 33.146 19.4015C33.0769 19.5684 32.9756 19.7201 32.8478 19.8478L23.2228 29.4728C23.0951 29.6007 22.9435 29.7021 22.7765 29.7713C22.6096 29.8405 22.4307 29.8761 22.25 29.8761C22.0693 29.8761 21.8904 29.8405 21.7235 29.7713C21.5565 29.7021 21.4049 29.6007 21.2772 29.4728L17.1522 25.3478Z" fill="#01A35B"/>
</svg>
