<svg width="111" height="30" viewBox="0 0 111 30" fill="none" xmlns="http://www.w3.org/2000/svg">
<path d="M109.807 0.942331C109.775 0.390965 109.302 -0.0301992 108.751 0.00163563L99.7657 0.520415C99.2143 0.552251 98.7931 1.02503 98.825 1.5764C98.8568 2.12776 99.3296 2.54893 99.881 2.51709L107.868 2.05595L108.329 10.0427C108.361 10.594 108.833 11.0152 109.385 10.9833C109.936 10.9515 110.357 10.4787 110.325 9.92737L109.807 0.942331ZM0.427979 10.9221L3.99362e-05 11.8259C0.618357 12.1187 1.23281 12.408 1.84345 12.6937L2.26732 11.788L2.69119 10.8823C2.08333 10.5978 1.47159 10.3098 0.855917 10.0183L0.427979 10.9221ZM5.89753 13.4659L5.48251 14.3757C6.72285 14.9415 7.94716 15.492 9.15591 16.0272L9.56074 15.1128L9.96558 14.1984C8.76397 13.6664 7.54646 13.1189 6.31255 12.556L5.89753 13.4659ZM13.252 16.7195L12.8589 17.639C14.115 18.1761 15.354 18.6956 16.5766 19.1973L16.9563 18.2722L17.3359 17.3471C16.1228 16.8492 14.8928 16.3335 13.6451 15.8001L13.252 16.7195ZM20.679 19.7648L20.3147 20.6961C21.5874 21.1938 22.8419 21.6711 24.079 22.1278L24.4253 21.1897L24.7717 20.2516C23.5471 19.7995 22.3045 19.3268 21.0432 18.8335L20.679 19.7648ZM28.2001 22.5375L27.8745 23.483C29.1706 23.9294 30.4475 24.3517 31.706 24.7498L32.0075 23.7963L32.3091 22.8429C31.0676 22.4502 29.8068 22.0332 28.5258 21.592L28.2001 22.5375ZM35.8506 24.9517L35.5771 25.9136C36.9015 26.2902 38.2055 26.638 39.4902 26.9568L39.7311 25.9863L39.9719 25.0157C38.7101 24.7026 37.428 24.3606 36.1242 23.9899L35.8506 24.9517ZM43.6486 26.8793L43.4459 27.8586C44.7985 28.1386 46.1301 28.3841 47.442 28.5946L47.6005 27.6072L47.7589 26.6199C46.4781 26.4143 45.1761 26.1743 43.8513 25.9001L43.6486 26.8793ZM51.5812 28.1435L51.4738 29.1378C52.8472 29.2861 54.1996 29.3933 55.5327 29.4588L55.5818 28.46L55.6309 27.4612C54.3384 27.3977 53.0249 27.2937 51.6886 27.1493L51.5812 28.1435ZM59.5901 28.5282L59.6063 29.5281C60.9843 29.5057 62.3424 29.4356 63.6829 29.3173L63.595 28.3211L63.507 27.325C62.2156 27.439 60.9053 27.5067 59.5738 27.5283L59.5901 28.5282ZM67.5787 27.8157L67.743 28.8021C69.0947 28.5769 70.4292 28.2997 71.7491 27.9698L71.5066 26.9996L71.2641 26.0295C69.9962 26.3464 68.7139 26.6128 67.4145 26.8292L67.5787 27.8157ZM75.3576 25.8708L75.6771 26.8184C76.962 26.3852 78.2342 25.8997 79.4963 25.3617L79.1041 24.4418L78.7119 23.5219C77.4968 24.0399 76.273 24.5068 75.0381 24.9232L75.3576 25.8708ZM82.7338 22.7329L83.1922 23.6217C84.3871 23.0054 85.5744 22.3406 86.7565 21.6269L86.2396 20.7709L85.7227 19.9148C84.5776 20.6062 83.4292 21.2491 82.2755 21.8441L82.7338 22.7329ZM89.6107 18.5922L90.1779 19.4158C91.2737 18.6611 92.3666 17.8636 93.4585 17.0233L92.8487 16.2308L92.2388 15.4383C91.1734 16.2582 90.1089 17.0348 89.0434 17.7687L89.6107 18.5922ZM95.9686 13.7106L96.6143 14.4742C97.6266 13.6181 98.6396 12.725 99.6547 11.7946L98.979 11.0574L98.3033 10.3202C97.3068 11.2336 96.3138 12.1091 95.3229 12.947L95.9686 13.7106ZM101.889 8.29382L102.59 9.00732C103.534 8.08061 104.481 7.12184 105.432 6.13085L104.71 5.43846L103.989 4.74606C103.05 5.72357 102.118 6.66823 101.189 7.58032L101.889 8.29382ZM107.451 2.50656L108.19 3.1803C108.644 2.6825 109.099 2.17745 109.555 1.66514L108.808 0.999973L108.062 0.334801C107.61 0.841533 107.16 1.34087 106.712 1.83282L107.451 2.50656ZM109.807 0.942331C109.775 0.390965 109.302 -0.0301992 108.751 0.00163563L99.7657 0.520415C99.2143 0.552251 98.7931 1.02503 98.825 1.5764C98.8568 2.12776 99.3296 2.54893 99.881 2.51709L107.868 2.05595L108.329 10.0427C108.361 10.594 108.833 11.0152 109.385 10.9833C109.936 10.9515 110.357 10.4787 110.325 9.92737L109.807 0.942331ZM0.427979 10.9221L3.99362e-05 11.8259C0.618357 12.1187 1.23281 12.408 1.84345 12.6937L2.26732 11.788L2.69119 10.8823C2.08333 10.5978 1.47159 10.3098 0.855917 10.0183L0.427979 10.9221ZM5.89753 13.4659L5.48251 14.3757C6.72285 14.9415 7.94716 15.492 9.15591 16.0272L9.56074 15.1128L9.96558 14.1984C8.76397 13.6664 7.54646 13.1189 6.31255 12.556L5.89753 13.4659ZM13.252 16.7195L12.8589 17.639C14.115 18.1761 15.354 18.6956 16.5766 19.1973L16.9563 18.2722L17.3359 17.3471C16.1228 16.8492 14.8928 16.3335 13.6451 15.8001L13.252 16.7195ZM20.679 19.7648L20.3147 20.6961C21.5874 21.1938 22.8419 21.6711 24.079 22.1278L24.4253 21.1897L24.7717 20.2516C23.5471 19.7995 22.3045 19.3268 21.0432 18.8335L20.679 19.7648ZM28.2001 22.5375L27.8745 23.483C29.1706 23.9294 30.4475 24.3517 31.706 24.7498L32.0075 23.7963L32.3091 22.8429C31.0676 22.4502 29.8068 22.0332 28.5258 21.592L28.2001 22.5375ZM35.8506 24.9517L35.5771 25.9136C36.9015 26.2902 38.2055 26.638 39.4902 26.9568L39.7311 25.9863L39.9719 25.0157C38.7101 24.7026 37.428 24.3606 36.1242 23.9899L35.8506 24.9517ZM43.6486 26.8793L43.4459 27.8586C44.7985 28.1386 46.1301 28.3841 47.442 28.5946L47.6005 27.6072L47.7589 26.6199C46.4781 26.4143 45.1761 26.1743 43.8513 25.9001L43.6486 26.8793ZM51.5812 28.1435L51.4738 29.1378C52.8472 29.2861 54.1996 29.3933 55.5327 29.4588L55.5818 28.46L55.6309 27.4612C54.3384 27.3977 53.0249 27.2937 51.6886 27.1493L51.5812 28.1435ZM59.5901 28.5282L59.6063 29.5281C60.9843 29.5057 62.3424 29.4356 63.6829 29.3173L63.595 28.3211L63.507 27.325C62.2156 27.439 60.9053 27.5067 59.5738 27.5283L59.5901 28.5282ZM67.5787 27.8157L67.743 28.8021C69.0947 28.5769 70.4292 28.2997 71.7491 27.9698L71.5066 26.9996L71.2641 26.0295C69.9962 26.3464 68.7139 26.6128 67.4145 26.8292L67.5787 27.8157ZM75.3576 25.8708L75.6771 26.8184C76.962 26.3852 78.2342 25.8997 79.4963 25.3617L79.1041 24.4418L78.7119 23.5219C77.4968 24.0399 76.273 24.5068 75.0381 24.9232L75.3576 25.8708ZM82.7338 22.7329L83.1922 23.6217C84.3871 23.0054 85.5744 22.3406 86.7565 21.6269L86.2396 20.7709L85.7227 19.9148C84.5776 20.6062 83.4292 21.2491 82.2755 21.8441L82.7338 22.7329ZM89.6107 18.5922L90.1779 19.4158C91.2737 18.6611 92.3666 17.8636 93.4585 17.0233L92.8487 16.2308L92.2388 15.4383C91.1734 16.2582 90.1089 17.0348 89.0434 17.7687L89.6107 18.5922ZM95.9686 13.7106L96.6143 14.4742C97.6266 13.6181 98.6396 12.725 99.6547 11.7946L98.979 11.0574L98.3033 10.3202C97.3068 11.2336 96.3138 12.1091 95.3229 12.947L95.9686 13.7106ZM101.889 8.29382L102.59 9.00732C103.534 8.08061 104.481 7.12184 105.432 6.13085L104.71 5.43846L103.989 4.74606C103.05 5.72357 102.118 6.66823 101.189 7.58032L101.889 8.29382ZM107.451 2.50656L108.19 3.1803C108.644 2.6825 109.099 2.17745 109.555 1.66514L108.808 0.999973L108.062 0.334801C107.61 0.841533 107.16 1.34087 106.712 1.83282L107.451 2.50656Z" fill="#01A35B"/>
</svg>
