<svg width="35" height="33" viewBox="0 0 35 33" fill="none" xmlns="http://www.w3.org/2000/svg">
<path d="M27.3209 5.1918C26.0125 3.87024 24.4563 2.81975 22.7413 2.10046C21.0264 1.38117 19.1864 1.00721 17.3268 1H17.2188C13.4477 1 9.83111 2.49804 7.16458 5.16458C4.49804 7.83111 3 11.4477 3 15.2188V22.875C3 23.7452 3.3457 24.5798 3.96106 25.1952C4.57641 25.8105 5.41101 26.1562 6.28125 26.1562H8.46875C9.33899 26.1562 10.1736 25.8105 10.7889 25.1952C11.4043 24.5798 11.75 23.7452 11.75 22.875V17.4062C11.75 16.536 11.4043 15.7014 10.7889 15.0861C10.1736 14.4707 9.33899 14.125 8.46875 14.125H5.23672C5.44765 11.8444 6.30427 9.67125 7.70617 7.86014C9.10807 6.04903 10.9972 4.67504 13.152 3.89921C15.3069 3.12338 17.6383 2.97785 19.873 3.47968C22.1076 3.98151 24.1529 5.10991 25.7691 6.73262C27.7446 8.71818 28.9597 11.3347 29.2021 14.125H25.9688C25.0985 14.125 24.2639 14.4707 23.6486 15.0861C23.0332 15.7014 22.6875 16.536 22.6875 17.4062V22.875C22.6875 23.7452 23.0332 24.5798 23.6486 25.1952C24.2639 25.8105 25.0985 26.1562 25.9688 26.1562H29.25C29.25 27.0265 28.9043 27.8611 28.2889 28.4764C27.6736 29.0918 26.839 29.4375 25.9688 29.4375H18.3125C18.0224 29.4375 17.7442 29.5527 17.5391 29.7579C17.334 29.963 17.2188 30.2412 17.2188 30.5312C17.2188 30.8213 17.334 31.0995 17.5391 31.3046C17.7442 31.5098 18.0224 31.625 18.3125 31.625H25.9688C27.4192 31.625 28.8102 31.0488 29.8357 30.0232C30.8613 28.9977 31.4375 27.6067 31.4375 26.1562V15.2188C31.4446 13.3588 31.0847 11.5157 30.3783 9.7951C29.6719 8.0745 28.6329 6.51018 27.3209 5.1918ZM8.46875 16.3125C8.75883 16.3125 9.03703 16.4277 9.24215 16.6329C9.44727 16.838 9.5625 17.1162 9.5625 17.4062V22.875C9.5625 23.1651 9.44727 23.4433 9.24215 23.6484C9.03703 23.8535 8.75883 23.9688 8.46875 23.9688H6.28125C5.99117 23.9688 5.71297 23.8535 5.50785 23.6484C5.30273 23.4433 5.1875 23.1651 5.1875 22.875V16.3125H8.46875ZM25.9688 23.9688C25.6787 23.9688 25.4005 23.8535 25.1954 23.6484C24.9902 23.4433 24.875 23.1651 24.875 22.875V17.4062C24.875 17.1162 24.9902 16.838 25.1954 16.6329C25.4005 16.4277 25.6787 16.3125 25.9688 16.3125H29.25V23.9688H25.9688Z" fill="#01A35B"/>
</svg>
