<svg width="71" height="71" viewBox="0 0 71 71" fill="none" xmlns="http://www.w3.org/2000/svg">
<rect width="71" height="71" rx="35.5" fill="#F2FBF7"/>
<rect x="14" y="14" width="43" height="43" rx="21.5" fill="#01A35B"/>
<path d="M30.184 42.74C29.4053 42.74 28.744 42.58 28.2 42.26C27.656 41.94 27.2133 41.5027 26.872 40.948C26.5307 40.3827 26.28 39.732 26.12 38.996C25.9707 38.2493 25.896 37.46 25.896 36.628C25.896 35.764 25.9707 34.964 26.12 34.228C26.2693 33.492 26.5093 32.852 26.84 32.308C27.1707 31.7533 27.608 31.3213 28.152 31.012C28.7067 30.7027 29.384 30.548 30.184 30.548C31.2507 30.548 32.0933 30.8093 32.712 31.332C33.3307 31.8547 33.7733 32.5747 34.04 33.492C34.3173 34.3987 34.456 35.444 34.456 36.628C34.456 37.7693 34.312 38.804 34.024 39.732C33.7467 40.66 33.2933 41.396 32.664 41.94C32.0453 42.4733 31.2187 42.74 30.184 42.74ZM30.184 41.108C30.664 41.108 31.0533 40.98 31.352 40.724C31.6613 40.468 31.896 40.1213 32.056 39.684C32.2267 39.2467 32.344 38.7667 32.408 38.244C32.472 37.7107 32.504 37.172 32.504 36.628C32.504 36.0307 32.472 35.4653 32.408 34.932C32.344 34.3987 32.2267 33.924 32.056 33.508C31.896 33.092 31.6613 32.7667 31.352 32.532C31.0533 32.2867 30.664 32.164 30.184 32.164C29.704 32.164 29.3093 32.2867 29 32.532C28.6907 32.7667 28.4507 33.092 28.28 33.508C28.12 33.924 28.008 34.3987 27.944 34.932C27.88 35.4653 27.848 36.0307 27.848 36.628C27.848 37.172 27.88 37.7107 27.944 38.244C28.008 38.7667 28.12 39.2467 28.28 39.684C28.4507 40.1107 28.6907 40.4573 29 40.724C29.3093 40.98 29.704 41.108 30.184 41.108ZM39.9161 42.74C39.2121 42.74 38.5615 42.6493 37.9641 42.468C37.3775 42.2867 36.8815 42.02 36.4761 41.668L37.2921 40.164C37.3881 40.2387 37.5535 40.3507 37.7881 40.5C38.0335 40.6387 38.3321 40.7667 38.6841 40.884C39.0468 41.0013 39.4415 41.06 39.8681 41.06C40.5828 41.06 41.1748 40.8573 41.6441 40.452C42.1135 40.0467 42.3481 39.4867 42.3481 38.772C42.3481 38.3773 42.2628 38.0093 42.0921 37.668C41.9321 37.316 41.6548 37.0333 41.2601 36.82C40.8761 36.596 40.3481 36.484 39.6761 36.484C39.3561 36.484 39.0201 36.5053 38.6681 36.548C38.3268 36.58 38.0121 36.628 37.7241 36.692C37.4361 36.756 37.2175 36.8307 37.0681 36.916L37.3081 30.74H43.3401V32.308H39.0521L38.8921 35.092C39.0415 35.0493 39.2228 35.0173 39.4361 34.996C39.6601 34.9747 39.9268 34.964 40.2361 34.964C41.4735 34.964 42.4441 35.2893 43.1481 35.94C43.8628 36.58 44.2201 37.4653 44.2201 38.596C44.2201 39.4067 44.0495 40.1267 43.7081 40.756C43.3775 41.3747 42.8921 41.86 42.2521 42.212C41.6121 42.564 40.8335 42.74 39.9161 42.74Z" fill="white"/>
</svg>
