<svg width="71" height="71" viewBox="0 0 71 71" fill="none" xmlns="http://www.w3.org/2000/svg">
<rect x="71" y="71" width="71" height="71" rx="35.5" transform="rotate(180 71 71)" fill="#F2FBF7"/>
<rect x="57" y="57" width="43" height="43" rx="21.5" transform="rotate(180 57 57)" fill="#01A35B"/>
<path d="M30.184 42.74C29.4053 42.74 28.744 42.58 28.2 42.26C27.656 41.94 27.2133 41.5027 26.872 40.948C26.5307 40.3827 26.28 39.732 26.12 38.996C25.9707 38.2493 25.896 37.46 25.896 36.628C25.896 35.764 25.9707 34.964 26.12 34.228C26.2693 33.492 26.5093 32.852 26.84 32.308C27.1707 31.7533 27.608 31.3213 28.152 31.012C28.7067 30.7027 29.384 30.548 30.184 30.548C31.2507 30.548 32.0933 30.8093 32.712 31.332C33.3307 31.8547 33.7733 32.5747 34.04 33.492C34.3173 34.3987 34.456 35.444 34.456 36.628C34.456 37.7693 34.312 38.804 34.024 39.732C33.7467 40.66 33.2933 41.396 32.664 41.94C32.0453 42.4733 31.2187 42.74 30.184 42.74ZM30.184 41.108C30.664 41.108 31.0533 40.98 31.352 40.724C31.6613 40.468 31.896 40.1213 32.056 39.684C32.2267 39.2467 32.344 38.7667 32.408 38.244C32.472 37.7107 32.504 37.172 32.504 36.628C32.504 36.0307 32.472 35.4653 32.408 34.932C32.344 34.3987 32.2267 33.924 32.056 33.508C31.896 33.092 31.6613 32.7667 31.352 32.532C31.0533 32.2867 30.664 32.164 30.184 32.164C29.704 32.164 29.3093 32.2867 29 32.532C28.6907 32.7667 28.4507 33.092 28.28 33.508C28.12 33.924 28.008 34.3987 27.944 34.932C27.88 35.4653 27.848 36.0307 27.848 36.628C27.848 37.172 27.88 37.7107 27.944 38.244C28.008 38.7667 28.12 39.2467 28.28 39.684C28.4507 40.1107 28.6907 40.4573 29 40.724C29.3093 40.98 29.704 41.108 30.184 41.108ZM41.4004 42.5V39.556H36.0244L39.4004 30.34L41.0644 30.964L38.5204 37.876H41.4004L41.4964 35.204H43.2724V37.876H44.9044V39.556H43.2724V42.5H41.4004Z" fill="white"/>
</svg>
