<svg width="90" height="74" viewBox="0 0 90 74" fill="none" xmlns="http://www.w3.org/2000/svg">
<path d="M5.8897 72.9422C6.23744 73.3713 6.86717 73.4372 7.29623 73.0895L14.2882 67.4227C14.7173 67.075 14.7832 66.4453 14.4355 66.0162C14.0878 65.5872 13.458 65.5212 13.029 65.869L6.81385 70.906L1.77677 64.6909C1.42903 64.2619 0.799305 64.1959 0.370241 64.5437C-0.0588234 64.8914 -0.124755 65.5211 0.222985 65.9502L5.8897 72.9422ZM88.8672 0.983643L88.687 1.42396e-05C88.0141 0.1233 87.3463 0.247161 86.6837 0.371638L86.8683 1.35445L87.053 2.33725C87.7125 2.21334 88.3773 2.09003 89.0474 1.96727L88.8672 0.983643ZM82.9414 2.11156L82.7472 1.1306C81.4099 1.39536 80.0945 1.66315 78.8007 1.93433L79.0058 2.91306L79.211 3.89179C80.4971 3.62222 81.8052 3.35591 83.1357 3.09252L82.9414 2.11156ZM75.0709 3.7635L74.8533 2.78747C73.5199 3.08476 72.2107 3.38637 70.9251 3.69272L71.157 4.66548L71.3888 5.63823C72.6644 5.33425 73.9641 5.03482 75.2885 4.73953L75.0709 3.7635ZM67.2631 5.627L67.0151 4.65824C65.6914 4.99713 64.3942 5.342 63.1231 5.69341L63.3896 6.65725L63.6561 7.62109C64.9142 7.27325 66.1991 6.93165 67.5112 6.59575L67.2631 5.627ZM59.538 7.76676L59.2504 6.80901C57.9375 7.20328 56.6543 7.60583 55.4001 8.01738L55.7119 8.96753L56.0237 9.91768C57.261 9.51167 58.528 9.11417 59.8256 8.72451L59.538 7.76676ZM51.9172 10.2731L51.5777 9.33248C50.2826 9.79989 49.0209 10.2788 47.7917 10.77L48.1628 11.6986L48.5339 12.6272C49.741 12.1447 50.9817 11.6739 52.2567 11.2137L51.9172 10.2731ZM44.4608 13.2606L44.0537 12.3472C42.792 12.9096 41.5676 13.4876 40.3795 14.0826L40.8273 14.9768L41.2751 15.8709C42.435 15.29 43.6322 14.7247 44.8679 14.174L44.4608 13.2606ZM37.2823 16.8653L36.789 15.9954C35.5874 16.6768 34.4268 17.3793 33.3062 18.1044L33.8495 18.9439L34.3927 19.7835C35.4792 19.0805 36.6063 18.3982 37.7756 17.7352L37.2823 16.8653ZM30.5554 21.2286L29.9584 20.4263C28.8527 21.249 27.791 22.0988 26.7718 22.9774L27.4247 23.7348L28.0777 24.4922C29.0596 23.6457 30.0839 22.8258 31.1523 22.0309L30.5554 21.2286ZM24.4854 26.471L23.7761 25.766C22.8102 26.7379 21.8886 27.7421 21.0096 28.7805L21.7728 29.4266L22.5361 30.0727C23.3805 29.0753 24.266 28.1103 25.1947 27.1759L24.4854 26.471ZM19.3053 32.5914L18.4927 32.0085C17.7024 33.1104 16.9528 34.2473 16.2423 35.4208L17.0977 35.9388L17.9532 36.4567C18.6373 35.3267 19.3583 34.2332 20.1179 33.1742L19.3053 32.5914ZM15.1485 39.4453L14.2575 38.9913C13.6471 40.1892 13.0712 41.4222 12.5282 42.6916L13.4476 43.0849L14.367 43.4782C14.8931 42.2483 15.4501 41.0559 16.0395 39.8993L15.1485 39.4453ZM11.9826 46.8218L11.0412 46.4843C10.5922 47.7368 10.1704 49.0223 9.77444 50.342L10.7323 50.6294L11.6901 50.9167C12.0764 49.6291 12.4873 48.3771 12.9239 47.1593L11.9826 46.8218ZM9.67055 54.497L8.70052 54.254C8.37841 55.54 8.0774 56.8565 7.7964 58.2045L8.77536 58.4085L9.75432 58.6126C10.0302 57.2893 10.3253 55.9988 10.6406 54.7399L9.67055 54.497ZM8.02579 62.3515L7.04039 62.1812C6.81524 63.4845 6.60629 64.8157 6.41274 66.1755L7.40276 66.3164L8.39278 66.4573C8.58371 65.116 8.78959 63.8044 9.0112 62.5217L8.02579 62.3515ZM6.88924 70.2968L5.89595 70.1812C5.81808 70.8504 5.74347 71.5261 5.67203 72.2084L6.6666 72.3126L7.66116 72.4167C7.73182 71.7418 7.80559 71.0737 7.88254 70.4124L6.88924 70.2968ZM5.8897 72.9422C6.23744 73.3713 6.86717 73.4372 7.29623 73.0895L14.2882 67.4227C14.7173 67.075 14.7832 66.4453 14.4355 66.0162C14.0878 65.5872 13.458 65.5212 13.029 65.869L6.81385 70.906L1.77677 64.6909C1.42903 64.2619 0.799305 64.1959 0.370241 64.5437C-0.0588234 64.8914 -0.124755 65.5211 0.222985 65.9502L5.8897 72.9422ZM88.8672 0.983643L88.687 1.42396e-05C88.0141 0.1233 87.3463 0.247161 86.6837 0.371638L86.8683 1.35445L87.053 2.33725C87.7125 2.21334 88.3773 2.09003 89.0474 1.96727L88.8672 0.983643ZM82.9414 2.11156L82.7472 1.1306C81.4099 1.39536 80.0945 1.66315 78.8007 1.93433L79.0058 2.91306L79.211 3.89179C80.4971 3.62222 81.8052 3.35591 83.1357 3.09252L82.9414 2.11156ZM75.0709 3.7635L74.8533 2.78747C73.5199 3.08476 72.2107 3.38637 70.9251 3.69272L71.157 4.66548L71.3888 5.63823C72.6644 5.33425 73.9641 5.03482 75.2885 4.73953L75.0709 3.7635ZM67.2631 5.627L67.0151 4.65824C65.6914 4.99713 64.3942 5.342 63.1231 5.69341L63.3896 6.65725L63.6561 7.62109C64.9142 7.27325 66.1991 6.93165 67.5112 6.59575L67.2631 5.627ZM59.538 7.76676L59.2504 6.80901C57.9375 7.20328 56.6543 7.60583 55.4001 8.01738L55.7119 8.96753L56.0237 9.91768C57.261 9.51167 58.528 9.11417 59.8256 8.72451L59.538 7.76676ZM51.9172 10.2731L51.5777 9.33248C50.2826 9.79989 49.0209 10.2788 47.7917 10.77L48.1628 11.6986L48.5339 12.6272C49.741 12.1447 50.9817 11.6739 52.2567 11.2137L51.9172 10.2731ZM44.4608 13.2606L44.0537 12.3472C42.792 12.9096 41.5676 13.4876 40.3795 14.0826L40.8273 14.9768L41.2751 15.8709C42.435 15.29 43.6322 14.7247 44.8679 14.174L44.4608 13.2606ZM37.2823 16.8653L36.789 15.9954C35.5874 16.6768 34.4268 17.3793 33.3062 18.1044L33.8495 18.9439L34.3927 19.7835C35.4792 19.0805 36.6063 18.3982 37.7756 17.7352L37.2823 16.8653ZM30.5554 21.2286L29.9584 20.4263C28.8527 21.249 27.791 22.0988 26.7718 22.9774L27.4247 23.7348L28.0777 24.4922C29.0596 23.6457 30.0839 22.8258 31.1523 22.0309L30.5554 21.2286ZM24.4854 26.471L23.7761 25.766C22.8102 26.7379 21.8886 27.7421 21.0096 28.7805L21.7728 29.4266L22.5361 30.0727C23.3805 29.0753 24.266 28.1103 25.1947 27.1759L24.4854 26.471ZM19.3053 32.5914L18.4927 32.0085C17.7024 33.1104 16.9528 34.2473 16.2423 35.4208L17.0977 35.9388L17.9532 36.4567C18.6373 35.3267 19.3583 34.2332 20.1179 33.1742L19.3053 32.5914ZM15.1485 39.4453L14.2575 38.9913C13.6471 40.1892 13.0712 41.4222 12.5282 42.6916L13.4476 43.0849L14.367 43.4782C14.8931 42.2483 15.4501 41.0559 16.0395 39.8993L15.1485 39.4453ZM11.9826 46.8218L11.0412 46.4843C10.5922 47.7368 10.1704 49.0223 9.77444 50.342L10.7323 50.6294L11.6901 50.9167C12.0764 49.6291 12.4873 48.3771 12.9239 47.1593L11.9826 46.8218ZM9.67055 54.497L8.70052 54.254C8.37841 55.54 8.0774 56.8565 7.7964 58.2045L8.77536 58.4085L9.75432 58.6126C10.0302 57.2893 10.3253 55.9988 10.6406 54.7399L9.67055 54.497ZM8.02579 62.3515L7.04039 62.1812C6.81524 63.4845 6.60629 64.8157 6.41274 66.1755L7.40276 66.3164L8.39278 66.4573C8.58371 65.116 8.78959 63.8044 9.0112 62.5217L8.02579 62.3515ZM6.88924 70.2968L5.89595 70.1812C5.81808 70.8504 5.74347 71.5261 5.67203 72.2084L6.6666 72.3126L7.66116 72.4167C7.73182 71.7418 7.80559 71.0737 7.88254 70.4124L6.88924 70.2968Z" fill="#01A35B"/>
</svg>
