<svg width="46" height="42" viewBox="0 0 46 42" fill="none" xmlns="http://www.w3.org/2000/svg">
<path d="M35.9968 31.7125L24.8078 21L35.9968 10.2875C36.0032 10.2803 36.01 10.2736 36.0172 10.2672C36.3666 9.91756 36.6045 9.47221 36.7008 8.98741C36.7972 8.50261 36.7477 8.00012 36.5586 7.54345C36.3694 7.08678 36.0492 6.69641 35.6383 6.42169C35.2274 6.14698 34.7443 6.00023 34.25 6H11.75C11.2558 6.00054 10.7729 6.14751 10.3622 6.42234C9.95156 6.69718 9.63155 7.08756 9.44262 7.54417C9.25369 8.00078 9.20432 8.50314 9.30074 8.98779C9.39715 9.47244 9.63504 9.91766 9.98434 10.2672L10.0031 10.2875L21.1922 21L10.0031 31.7125L9.98434 31.7328C9.63504 32.0823 9.39715 32.5276 9.30074 33.0122C9.20432 33.4969 9.25369 33.9992 9.44262 34.4558C9.63155 34.9124 9.95156 35.3028 10.3622 35.5777C10.7729 35.8525 11.2558 35.9995 11.75 36H34.25C34.7444 36.0001 35.2277 35.8536 35.6389 35.579C36.05 35.3044 36.3705 34.914 36.5598 34.4573C36.7492 34.0005 36.7988 33.4979 36.7025 33.013C36.6062 32.528 36.3682 32.0825 36.0187 31.7328C36.011 31.7265 36.0037 31.7197 35.9968 31.7125ZM16.9734 13.5H29.0265L23 19.2687L16.9734 13.5ZM34.25 8.5L31.6406 11H14.3625L11.75 8.5H34.25ZM11.75 33.5L23 22.7313L34.25 33.5H11.75Z" fill="#01A35B"/>
</svg>
