<svg width="71" height="71" viewBox="0 0 71 71" fill="none" xmlns="http://www.w3.org/2000/svg">
<rect width="71" height="71" rx="35.5" fill="#F2FBF7"/>
<rect x="14" y="14" width="43" height="43" rx="21.5" fill="#01A35B"/>
<path d="M32.184 42.74C31.4053 42.74 30.744 42.58 30.2 42.26C29.656 41.94 29.2133 41.5027 28.872 40.948C28.5307 40.3827 28.28 39.732 28.12 38.996C27.9707 38.2493 27.896 37.46 27.896 36.628C27.896 35.764 27.9707 34.964 28.12 34.228C28.2693 33.492 28.5093 32.852 28.84 32.308C29.1707 31.7533 29.608 31.3213 30.152 31.012C30.7067 30.7027 31.384 30.548 32.184 30.548C33.2507 30.548 34.0933 30.8093 34.712 31.332C35.3307 31.8547 35.7733 32.5747 36.04 33.492C36.3173 34.3987 36.456 35.444 36.456 36.628C36.456 37.7693 36.312 38.804 36.024 39.732C35.7467 40.66 35.2933 41.396 34.664 41.94C34.0453 42.4733 33.2187 42.74 32.184 42.74ZM32.184 41.108C32.664 41.108 33.0533 40.98 33.352 40.724C33.6613 40.468 33.896 40.1213 34.056 39.684C34.2267 39.2467 34.344 38.7667 34.408 38.244C34.472 37.7107 34.504 37.172 34.504 36.628C34.504 36.0307 34.472 35.4653 34.408 34.932C34.344 34.3987 34.2267 33.924 34.056 33.508C33.896 33.092 33.6613 32.7667 33.352 32.532C33.0533 32.2867 32.664 32.164 32.184 32.164C31.704 32.164 31.3093 32.2867 31 32.532C30.6907 32.7667 30.4507 33.092 30.28 33.508C30.12 33.924 30.008 34.3987 29.944 34.932C29.88 35.4653 29.848 36.0307 29.848 36.628C29.848 37.172 29.88 37.7107 29.944 38.244C30.008 38.7667 30.12 39.2467 30.28 39.684C30.4507 40.1107 30.6907 40.4573 31 40.724C31.3093 40.98 31.704 41.108 32.184 41.108ZM39.2277 42.5V30.916L41.0357 30.404V42.5H39.2277Z" fill="white"/>
</svg>
