<svg width="84" height="80" viewBox="0 0 84 80" fill="none" xmlns="http://www.w3.org/2000/svg">
<path d="M75.5323 79.687C75.9499 80.0483 76.5815 80.0027 76.9428 79.585L82.8313 72.7787C83.1926 72.361 83.1469 71.7295 82.7293 71.3681C82.3116 71.0068 81.6801 71.0524 81.3187 71.4701L76.0846 77.5202L70.0345 72.286C69.6168 71.9247 68.9853 71.9703 68.624 72.388C68.2626 72.8057 68.3083 73.4372 68.7259 73.7985L75.5323 79.687ZM0.247777 0.968816L-7.429e-05 1.93761C0.650454 2.10404 1.29584 2.27135 1.93612 2.43959L2.19024 1.47241L2.44436 0.505239C1.79982 0.33589 1.15026 0.167494 0.495628 1.89948e-05L0.247777 0.968816ZM6.01419 2.50498L5.7467 3.46855C7.03189 3.82532 8.29538 4.18631 9.53749 4.55184L9.81979 3.59251L10.1021 2.63319C8.84975 2.26465 7.57637 1.90083 6.28168 1.54142L6.01419 2.50498ZM13.6291 4.74871L13.3302 5.70301C14.6087 6.10337 15.8631 6.50921 17.0938 6.9209L17.411 5.97255L17.7283 5.0242C16.4848 4.60827 15.2181 4.19846 13.9279 3.79441L13.6291 4.74871ZM21.1637 7.27219L20.8261 8.21347C22.0848 8.66498 23.3171 9.1235 24.5235 9.58947L24.8838 8.65664L25.2441 7.72381C24.0221 7.25179 22.7746 6.78765 21.5013 6.33092L21.1637 7.27219ZM28.5664 10.1358L28.1809 11.0585C29.4134 11.5735 30.6167 12.0974 31.7914 12.6308L32.2049 11.7203L32.6184 10.8098C31.4244 10.2676 30.2025 9.73557 28.9519 9.21308L28.5664 10.1358ZM35.7905 13.4217L35.3461 14.3176C36.5405 14.9101 37.7027 15.5141 38.8335 16.1301L39.3119 15.252L39.7903 14.3738C38.6362 13.7451 37.4513 13.1293 36.2349 12.5259L35.7905 13.4217ZM42.7556 17.2232L42.24 18.08C43.378 18.7648 44.481 19.4641 45.5497 20.1786L46.1055 19.3472L46.6613 18.5159C45.5652 17.7831 44.4354 17.0669 43.2712 16.3664L42.7556 17.2232ZM49.3435 21.635L48.7449 22.4361C49.8032 23.2269 50.8242 24.0358 51.809 24.8635L52.4525 24.0981L53.0959 23.3326C52.0811 22.4796 51.0301 21.647 49.9421 20.834L49.3435 21.635ZM55.414 26.7458L54.7245 27.4701C55.6753 28.3751 56.588 29.3018 57.4637 30.2514L58.1988 29.5735L58.934 28.8956C58.0284 27.9135 57.0852 26.9559 56.1034 26.0214L55.414 26.7458ZM60.7886 32.5785L60.0094 33.2053C60.8256 34.2199 61.6049 35.2595 62.3484 36.3254L63.1686 35.7533L63.9888 35.1812C63.2192 34.0779 62.4125 33.0018 61.5678 31.9517L60.7886 32.5785ZM65.3266 39.0822L64.4696 39.5976C65.1363 40.706 65.7692 41.8416 66.3694 43.0057L67.2582 42.5474L68.147 42.0891C67.5271 40.8869 66.873 39.7132 66.1835 38.5668L65.3266 39.0822ZM68.9662 46.1307L68.0507 46.5332C68.5701 47.7146 69.0599 48.924 69.5211 50.1624L70.4582 49.8133L71.3953 49.4643C70.9211 48.1911 70.4169 46.946 69.8816 45.7283L68.9662 46.1307ZM71.7421 53.5647L70.7879 53.8639C71.1729 55.0917 71.533 56.3465 71.869 57.6293L72.8363 57.3759L73.8037 57.1225C73.46 55.8102 73.0912 54.5248 72.6963 53.2655L71.7421 53.5647ZM73.7575 61.2344L72.7802 61.4461C73.0531 62.7058 73.3052 63.991 73.5373 65.3025L74.522 65.1282L75.5067 64.954C75.2704 63.6185 75.0134 62.3083 74.7348 61.0227L73.7575 61.2344ZM75.1457 69.0476L74.1557 69.1883C74.3374 70.467 74.502 71.7693 74.65 73.096L75.6438 72.9851L76.6376 72.8743C76.4875 71.5286 76.3204 70.2063 76.1358 68.9069L75.1457 69.0476ZM76.0301 76.9351L75.0336 77.0194C75.0891 77.6749 75.1409 78.336 75.1891 79.0028L76.1865 78.9307L77.1839 78.8586C77.1351 78.1838 77.0827 77.5145 77.0265 76.8507L76.0301 76.9351ZM75.5323 79.687C75.9499 80.0483 76.5815 80.0027 76.9428 79.585L82.8313 72.7787C83.1926 72.361 83.1469 71.7295 82.7293 71.3681C82.3116 71.0068 81.6801 71.0524 81.3187 71.4701L76.0846 77.5202L70.0345 72.286C69.6168 71.9247 68.9853 71.9703 68.624 72.388C68.2626 72.8057 68.3083 73.4372 68.7259 73.7985L75.5323 79.687ZM0.247777 0.968816L-7.429e-05 1.93761C0.650454 2.10404 1.29584 2.27135 1.93612 2.43959L2.19024 1.47241L2.44436 0.505239C1.79982 0.33589 1.15026 0.167494 0.495628 1.89948e-05L0.247777 0.968816ZM6.01419 2.50498L5.7467 3.46855C7.03189 3.82532 8.29538 4.18631 9.53749 4.55184L9.81979 3.59251L10.1021 2.63319C8.84975 2.26465 7.57637 1.90083 6.28168 1.54142L6.01419 2.50498ZM13.6291 4.74871L13.3302 5.70301C14.6087 6.10337 15.8631 6.50921 17.0938 6.9209L17.411 5.97255L17.7283 5.0242C16.4848 4.60827 15.2181 4.19846 13.9279 3.79441L13.6291 4.74871ZM21.1637 7.27219L20.8261 8.21347C22.0848 8.66498 23.3171 9.1235 24.5235 9.58947L24.8838 8.65664L25.2441 7.72381C24.0221 7.25179 22.7746 6.78765 21.5013 6.33092L21.1637 7.27219ZM28.5664 10.1358L28.1809 11.0585C29.4134 11.5735 30.6167 12.0974 31.7914 12.6308L32.2049 11.7203L32.6184 10.8098C31.4244 10.2676 30.2025 9.73557 28.9519 9.21308L28.5664 10.1358ZM35.7905 13.4217L35.3461 14.3176C36.5405 14.9101 37.7027 15.5141 38.8335 16.1301L39.3119 15.252L39.7903 14.3738C38.6362 13.7451 37.4513 13.1293 36.2349 12.5259L35.7905 13.4217ZM42.7556 17.2232L42.24 18.08C43.378 18.7648 44.481 19.4641 45.5497 20.1786L46.1055 19.3472L46.6613 18.5159C45.5652 17.7831 44.4354 17.0669 43.2712 16.3664L42.7556 17.2232ZM49.3435 21.635L48.7449 22.4361C49.8032 23.2269 50.8242 24.0358 51.809 24.8635L52.4525 24.0981L53.0959 23.3326C52.0811 22.4796 51.0301 21.647 49.9421 20.834L49.3435 21.635ZM55.414 26.7458L54.7245 27.4701C55.6753 28.3751 56.588 29.3018 57.4637 30.2514L58.1988 29.5735L58.934 28.8956C58.0284 27.9135 57.0852 26.9559 56.1034 26.0214L55.414 26.7458ZM60.7886 32.5785L60.0094 33.2053C60.8256 34.2199 61.6049 35.2595 62.3484 36.3254L63.1686 35.7533L63.9888 35.1812C63.2192 34.0779 62.4125 33.0018 61.5678 31.9517L60.7886 32.5785ZM65.3266 39.0822L64.4696 39.5976C65.1363 40.706 65.7692 41.8416 66.3694 43.0057L67.2582 42.5474L68.147 42.0891C67.5271 40.8869 66.873 39.7132 66.1835 38.5668L65.3266 39.0822ZM68.9662 46.1307L68.0507 46.5332C68.5701 47.7146 69.0599 48.924 69.5211 50.1624L70.4582 49.8133L71.3953 49.4643C70.9211 48.1911 70.4169 46.946 69.8816 45.7283L68.9662 46.1307ZM71.7421 53.5647L70.7879 53.8639C71.1729 55.0917 71.533 56.3465 71.869 57.6293L72.8363 57.3759L73.8037 57.1225C73.46 55.8102 73.0912 54.5248 72.6963 53.2655L71.7421 53.5647ZM73.7575 61.2344L72.7802 61.4461C73.0531 62.7058 73.3052 63.991 73.5373 65.3025L74.522 65.1282L75.5067 64.954C75.2704 63.6185 75.0134 62.3083 74.7348 61.0227L73.7575 61.2344ZM75.1457 69.0476L74.1557 69.1883C74.3374 70.467 74.502 71.7693 74.65 73.096L75.6438 72.9851L76.6376 72.8743C76.4875 71.5286 76.3204 70.2063 76.1358 68.9069L75.1457 69.0476ZM76.0301 76.9351L75.0336 77.0194C75.0891 77.6749 75.1409 78.336 75.1891 79.0028L76.1865 78.9307L77.1839 78.8586C77.1351 78.1838 77.0827 77.5145 77.0265 76.8507L76.0301 76.9351Z" fill="#01A35B"/>
</svg>
