<svg width="41" height="41" viewBox="0 0 41 41" fill="none" xmlns="http://www.w3.org/2000/svg">
<g clip-path="url(#clip0_370_644)">
<path d="M37.9566 16.0322C37.5591 16.0979 37.2043 16.3169 36.9703 16.641C36.7362 16.9651 36.6421 17.3677 36.7086 17.7604C36.8629 18.6707 36.9404 19.5921 36.9403 20.515C36.9439 24.5572 35.44 28.4591 32.7158 31.4753C31.021 29.0492 28.6379 27.1723 25.8661 26.0805C27.355 24.9221 28.4415 23.3341 28.9744 21.5375C29.5073 19.7408 29.4602 17.8247 28.8397 16.0557C28.2191 14.2867 27.056 12.7527 25.512 11.667C23.9679 10.5813 22.1198 9.99789 20.2246 9.99789C18.3294 9.99789 16.4812 10.5813 14.9372 11.667C13.3932 12.7527 12.23 14.2867 11.6095 16.0557C10.989 17.8247 10.9419 19.7408 11.4748 21.5375C12.0077 23.3341 13.0942 24.9221 14.583 26.0805C11.8113 27.1723 9.42818 29.0492 7.73337 31.4753C5.59588 29.0959 4.19965 26.1572 3.71256 23.0126C3.22547 19.868 3.66826 16.6514 4.98769 13.7494C6.30712 10.8475 8.44702 8.38385 11.1501 6.65469C13.8531 4.92553 17.0043 4.0045 20.2246 4.00233C21.1589 4.00218 22.0916 4.07875 23.0131 4.23125C23.4088 4.29293 23.8131 4.19777 24.1381 3.96647C24.4632 3.73517 24.6826 3.38644 24.7487 2.99615C24.8148 2.60585 24.7222 2.20556 24.4911 1.88234C24.26 1.55913 23.909 1.33914 23.5145 1.27023C19.3877 0.584418 15.1471 1.21194 11.4048 3.06218C7.66258 4.91243 4.6124 7.88966 2.69469 11.564C0.776979 15.2384 0.0909677 19.4197 0.735705 23.5043C1.38044 27.5889 3.32257 31.3654 6.28166 34.2886C9.24076 37.2117 13.0637 39.1303 17.1985 39.7672C21.3334 40.4041 25.5661 39.7264 29.2857 37.832C33.0052 35.9376 36.019 32.9244 37.892 29.2276C39.765 25.5308 40.4003 21.3417 39.706 17.265C39.6395 16.8724 39.4178 16.5219 39.0897 16.2907C38.7617 16.0595 38.354 15.9665 37.9566 16.0322ZM14.1461 19.0139C14.1461 17.8263 14.5026 16.6653 15.1705 15.6779C15.8384 14.6904 16.7878 13.9208 17.8985 13.4663C19.0092 13.0118 20.2313 12.8929 21.4104 13.1246C22.5895 13.3563 23.6726 13.9282 24.5227 14.768C25.3728 15.6077 25.9517 16.6776 26.1862 17.8424C26.4208 19.0072 26.3004 20.2145 25.8403 21.3117C25.3803 22.4089 24.6012 23.3467 23.6016 24.0065C22.602 24.6663 21.4268 25.0185 20.2246 25.0185C18.6125 25.0185 17.0664 24.3858 15.9265 23.2598C14.7865 22.1337 14.1461 20.6064 14.1461 19.0139ZM9.9824 33.5563C11.0817 31.8579 12.5961 30.4602 14.3861 29.492C16.176 28.5239 18.1839 28.0164 20.2246 28.0164C22.2653 28.0164 24.2731 28.5239 26.0631 29.492C27.853 30.4602 29.3675 31.8579 30.4668 33.5563C27.5384 35.8061 23.9344 37.0276 20.2246 37.0276C16.5148 37.0276 12.9108 35.8061 9.9824 33.5563ZM41.0547 5.06439L34.9762 11.069C34.8351 11.2086 34.6675 11.3193 34.483 11.3948C34.2985 11.4704 34.1008 11.5093 33.9011 11.5093C33.7014 11.5093 33.5037 11.4704 33.3192 11.3948C33.1347 11.3193 32.9671 11.2086 32.826 11.069L29.7867 8.0667C29.6456 7.92723 29.5336 7.76165 29.4572 7.57942C29.3807 7.39719 29.3414 7.20188 29.3414 7.00463C29.3414 6.80739 29.3807 6.61208 29.4572 6.42985C29.5336 6.24762 29.6456 6.08204 29.7867 5.94257C30.0719 5.66089 30.4586 5.50265 30.8619 5.50265C31.0615 5.50265 31.2593 5.5415 31.4437 5.61698C31.6282 5.69246 31.7958 5.8031 31.937 5.94257L33.9011 7.88468L38.9044 2.94026C39.0456 2.80079 39.2132 2.69015 39.3977 2.61467C39.5822 2.53919 39.7799 2.50034 39.9795 2.50034C40.1792 2.50034 40.3769 2.53919 40.5614 2.61467C40.7459 2.69015 40.9135 2.80079 41.0547 2.94026C41.1959 3.07973 41.3078 3.24531 41.3843 3.42754C41.4607 3.60977 41.5 3.80508 41.5 4.00233C41.5 4.19957 41.4607 4.39488 41.3843 4.57711C41.3078 4.75934 41.1959 4.92492 41.0547 5.06439Z" fill="#01A35B"/>
</g>
<defs>
<clipPath id="clip0_370_644">
<rect width="41" height="41" fill="white"/>
</clipPath>
</defs>
</svg>
