<svg width="71" height="71" viewBox="0 0 71 71" fill="none" xmlns="http://www.w3.org/2000/svg">
<rect width="71" height="71" rx="35.5" fill="#F2FBF7"/>
<rect x="14" y="14" width="43" height="43" rx="21.5" fill="#01A35B"/>
<path d="M30.184 42.74C29.4053 42.74 28.744 42.58 28.2 42.26C27.656 41.94 27.2133 41.5027 26.872 40.948C26.5307 40.3827 26.28 39.732 26.12 38.996C25.9707 38.2493 25.896 37.46 25.896 36.628C25.896 35.764 25.9707 34.964 26.12 34.228C26.2693 33.492 26.5093 32.852 26.84 32.308C27.1707 31.7533 27.608 31.3213 28.152 31.012C28.7067 30.7027 29.384 30.548 30.184 30.548C31.2507 30.548 32.0933 30.8093 32.712 31.332C33.3307 31.8547 33.7733 32.5747 34.04 33.492C34.3173 34.3987 34.456 35.444 34.456 36.628C34.456 37.7693 34.312 38.804 34.024 39.732C33.7467 40.66 33.2933 41.396 32.664 41.94C32.0453 42.4733 31.2187 42.74 30.184 42.74ZM30.184 41.108C30.664 41.108 31.0533 40.98 31.352 40.724C31.6613 40.468 31.896 40.1213 32.056 39.684C32.2267 39.2467 32.344 38.7667 32.408 38.244C32.472 37.7107 32.504 37.172 32.504 36.628C32.504 36.0307 32.472 35.4653 32.408 34.932C32.344 34.3987 32.2267 33.924 32.056 33.508C31.896 33.092 31.6613 32.7667 31.352 32.532C31.0533 32.2867 30.664 32.164 30.184 32.164C29.704 32.164 29.3093 32.2867 29 32.532C28.6907 32.7667 28.4507 33.092 28.28 33.508C28.12 33.924 28.008 34.3987 27.944 34.932C27.88 35.4653 27.848 36.0307 27.848 36.628C27.848 37.172 27.88 37.7107 27.944 38.244C28.008 38.7667 28.12 39.2467 28.28 39.684C28.4507 40.1107 28.6907 40.4573 29 40.724C29.3093 40.98 29.704 41.108 30.184 41.108ZM39.4551 42.74C39.0178 42.74 38.5645 42.692 38.0951 42.596C37.6258 42.5107 37.1938 42.388 36.7991 42.228C36.4151 42.068 36.1165 41.8867 35.9031 41.684L36.6551 40.164C36.9325 40.3773 37.3165 40.5907 37.8071 40.804C38.2978 41.0067 38.8205 41.108 39.3751 41.108C39.8445 41.108 40.2871 41.0493 40.7031 40.932C41.1191 40.804 41.4551 40.58 41.7111 40.26C41.9778 39.9293 42.1111 39.4707 42.1111 38.884C42.1111 38.2547 41.8605 37.748 41.3591 37.364C40.8685 36.98 40.2018 36.788 39.3591 36.788C39.1031 36.788 38.8418 36.7987 38.5751 36.82C38.3085 36.8307 38.0738 36.852 37.8711 36.884L40.8151 32.308H36.3991V30.74H43.9991L40.6711 35.492C41.3645 35.5133 41.9618 35.6733 42.4631 35.972C42.9751 36.2707 43.3698 36.6653 43.6471 37.156C43.9245 37.636 44.0631 38.1693 44.0631 38.756C44.0631 39.5133 43.8818 40.196 43.5191 40.804C43.1671 41.4013 42.6445 41.876 41.9511 42.228C41.2685 42.5693 40.4365 42.74 39.4551 42.74Z" fill="white"/>
</svg>
