<svg width="71" height="71" viewBox="0 0 71 71" fill="none" xmlns="http://www.w3.org/2000/svg">
<rect x="71" y="71" width="71" height="71" rx="35.5" transform="rotate(180 71 71)" fill="#F2FBF7"/>
<rect x="57" y="57" width="43" height="43" rx="21.5" transform="rotate(180 57 57)" fill="#01A35B"/>
<path d="M30.184 42.74C29.4053 42.74 28.744 42.58 28.2 42.26C27.656 41.94 27.2133 41.5027 26.872 40.948C26.5307 40.3827 26.28 39.732 26.12 38.996C25.9707 38.2493 25.896 37.46 25.896 36.628C25.896 35.764 25.9707 34.964 26.12 34.228C26.2693 33.492 26.5093 32.852 26.84 32.308C27.1707 31.7533 27.608 31.3213 28.152 31.012C28.7067 30.7027 29.384 30.548 30.184 30.548C31.2507 30.548 32.0933 30.8093 32.712 31.332C33.3307 31.8547 33.7733 32.5747 34.04 33.492C34.3173 34.3987 34.456 35.444 34.456 36.628C34.456 37.7693 34.312 38.804 34.024 39.732C33.7467 40.66 33.2933 41.396 32.664 41.94C32.0453 42.4733 31.2187 42.74 30.184 42.74ZM30.184 41.108C30.664 41.108 31.0533 40.98 31.352 40.724C31.6613 40.468 31.896 40.1213 32.056 39.684C32.2267 39.2467 32.344 38.7667 32.408 38.244C32.472 37.7107 32.504 37.172 32.504 36.628C32.504 36.0307 32.472 35.4653 32.408 34.932C32.344 34.3987 32.2267 33.924 32.056 33.508C31.896 33.092 31.6613 32.7667 31.352 32.532C31.0533 32.2867 30.664 32.164 30.184 32.164C29.704 32.164 29.3093 32.2867 29 32.532C28.6907 32.7667 28.4507 33.092 28.28 33.508C28.12 33.924 28.008 34.3987 27.944 34.932C27.88 35.4653 27.848 36.0307 27.848 36.628C27.848 37.172 27.88 37.7107 27.944 38.244C28.008 38.7667 28.12 39.2467 28.28 39.684C28.4507 40.1107 28.6907 40.4573 29 40.724C29.3093 40.98 29.704 41.108 30.184 41.108ZM36.206 42.5L40.158 37.556C40.3713 37.2787 40.6113 36.9427 40.878 36.548C41.1553 36.1427 41.3953 35.7267 41.598 35.3C41.8113 34.8627 41.918 34.4573 41.918 34.084C41.918 33.4973 41.758 33.044 41.438 32.724C41.1287 32.404 40.6593 32.244 40.03 32.244C39.5927 32.244 39.2247 32.34 38.926 32.532C38.6273 32.724 38.382 32.948 38.19 33.204C38.0087 33.46 37.8647 33.6893 37.758 33.892L36.27 33.092C36.4727 32.708 36.734 32.324 37.054 31.94C37.3847 31.5453 37.7953 31.2147 38.286 30.948C38.7767 30.6813 39.374 30.548 40.078 30.548C40.8887 30.548 41.566 30.692 42.11 30.98C42.654 31.268 43.0593 31.6627 43.326 32.164C43.6033 32.6653 43.742 33.236 43.742 33.876C43.742 34.5587 43.5713 35.2573 43.23 35.972C42.8993 36.6867 42.43 37.4173 41.822 38.164L39.646 40.916H44.206V42.5H36.206Z" fill="white"/>
</svg>
