<svg width="110" height="29" viewBox="0 0 110 29" fill="none" xmlns="http://www.w3.org/2000/svg">
<path d="M109.153 19.2011C109.696 19.1041 110.059 18.5847 109.962 18.041L108.38 9.181C108.283 8.63731 107.764 8.27522 107.22 8.37226C106.676 8.4693 106.314 8.98871 106.411 9.53241L107.817 17.408L99.9414 18.8136C99.3977 18.9106 99.0356 19.43 99.1326 19.9737C99.2297 20.5174 99.7491 20.8795 100.293 20.7824L109.153 19.2011ZM0.59669 28.1388L1.19338 28.9413C1.73223 28.5406 2.26852 28.1445 2.80231 27.753L2.21083 26.9466L1.61934 26.1403C1.082 26.5345 0.542233 26.9332 -4.27615e-06 27.3364L0.59669 28.1388ZM5.42042 24.6256L6.00069 25.44C7.08696 24.6661 8.16286 23.9116 9.22881 23.1767L8.66117 22.3534L8.09353 21.5301C7.01878 22.2712 5.93446 23.0315 4.84016 23.8112L5.42042 24.6256ZM11.9576 20.1216L12.5109 20.9545C13.6268 20.2133 14.7318 19.4941 15.8265 18.7971L15.2894 17.9536L14.7522 17.1101C13.6463 17.8143 12.5304 18.5405 11.4043 19.2886L11.9576 20.1216ZM18.6616 15.856L19.1804 16.7109C20.3236 16.0172 21.4557 15.3483 22.5771 14.7044L22.0792 13.8372L21.5813 12.97C20.4452 13.6223 19.2993 14.2993 18.1428 15.0011L18.6616 15.856ZM25.5468 11.9071L26.021 12.7875C27.1971 12.154 28.3617 11.5489 29.5157 10.9721L29.0685 10.0776L28.6214 9.18313C27.4485 9.76947 26.2658 10.384 25.0726 11.0267L25.5468 11.9071ZM32.6477 8.36284L33.064 9.27208C34.2763 8.71707 35.4772 8.19427 36.6677 7.70354L36.2866 6.77901L35.9055 5.85447C34.6904 6.35533 33.4661 6.88837 32.2314 7.4536L32.6477 8.36284ZM39.9861 5.34432L40.3273 6.28432C41.5757 5.83122 42.8134 5.41447 44.0414 5.03386L43.7453 4.07869L43.4493 3.12352C42.1899 3.51384 40.9222 3.94077 39.645 4.40431L39.9861 5.34432ZM47.5613 3.00313L47.8069 3.97251C49.0876 3.64809 50.3588 3.36398 51.6219 3.11997L51.4322 2.13812L51.2426 1.15627C49.9409 1.40773 48.6324 1.70021 47.3158 2.03375L47.5613 3.00313ZM55.3538 1.50396L55.4826 2.49563C56.7843 2.32659 58.0789 2.20089 59.368 2.11832L59.304 1.12036L59.2401 0.12241C57.907 0.207801 56.5691 0.337735 55.225 0.512285L55.3538 1.50396ZM63.2692 0.999934L63.2657 1.99993C64.5678 2.0045 65.8662 2.05353 67.1624 2.14686L67.2342 1.14944L67.3061 0.152022C65.9643 0.0554215 64.6204 0.00467678 63.2727 -5.93975e-05L63.2692 0.999934ZM71.1792 1.56841L71.0402 2.5587C72.3211 2.73854 73.6018 2.96171 74.8841 3.22815L75.0876 2.24906L75.291 1.26998C73.9667 0.994814 72.643 0.764125 71.3183 0.578128L71.1792 1.56841ZM78.947 3.17789L78.6833 4.1425C79.9283 4.48278 81.1763 4.86355 82.4287 5.2848L82.7475 4.33697L83.0663 3.38914C81.7785 2.95601 80.4937 2.56397 79.2106 2.21327L78.947 3.17789ZM86.4705 5.701L86.1022 6.63073C87.2986 7.10457 88.5003 7.61475 89.7084 8.16125L90.1206 7.25013L90.5327 6.33901C89.2967 5.77991 88.0657 5.25726 86.8387 4.77127L86.4705 5.701ZM93.6984 8.96348L93.2476 9.85613C94.3982 10.4371 95.5555 11.0503 96.7205 11.6956L97.205 10.8208L97.6896 9.94604C96.5032 9.28892 95.3234 8.66379 94.1492 8.07084L93.6984 8.96348ZM100.643 12.8036L100.129 13.6614C101.237 14.3252 102.352 15.0172 103.476 15.7374L104.016 14.8954L104.555 14.0534C103.415 13.3229 102.283 12.6203 101.157 11.9458L100.643 12.8036ZM107.328 17.0819L106.766 17.9092C107.31 18.2788 107.857 18.6547 108.405 19.037L108.977 18.2167L109.549 17.3964C108.994 17.0095 108.441 16.6289 107.89 16.2546L107.328 17.0819ZM109.153 19.2011C109.696 19.1041 110.059 18.5847 109.962 18.041L108.38 9.181C108.283 8.63731 107.764 8.27522 107.22 8.37226C106.676 8.4693 106.314 8.98871 106.411 9.53241L107.817 17.408L99.9414 18.8136C99.3977 18.9106 99.0356 19.43 99.1326 19.9737C99.2297 20.5174 99.7491 20.8795 100.293 20.7824L109.153 19.2011ZM0.59669 28.1388L1.19338 28.9413C1.73223 28.5406 2.26852 28.1445 2.80231 27.753L2.21083 26.9466L1.61934 26.1403C1.082 26.5345 0.542233 26.9332 -4.27615e-06 27.3364L0.59669 28.1388ZM5.42042 24.6256L6.00069 25.44C7.08696 24.6661 8.16286 23.9116 9.22881 23.1767L8.66117 22.3534L8.09353 21.5301C7.01878 22.2712 5.93446 23.0315 4.84016 23.8112L5.42042 24.6256ZM11.9576 20.1216L12.5109 20.9545C13.6268 20.2133 14.7318 19.4941 15.8265 18.7971L15.2894 17.9536L14.7522 17.1101C13.6463 17.8143 12.5304 18.5405 11.4043 19.2886L11.9576 20.1216ZM18.6616 15.856L19.1804 16.7109C20.3236 16.0172 21.4557 15.3483 22.5771 14.7044L22.0792 13.8372L21.5813 12.97C20.4452 13.6223 19.2993 14.2993 18.1428 15.0011L18.6616 15.856ZM25.5468 11.9071L26.021 12.7875C27.1971 12.154 28.3617 11.5489 29.5157 10.9721L29.0685 10.0776L28.6214 9.18313C27.4485 9.76947 26.2658 10.384 25.0726 11.0267L25.5468 11.9071ZM32.6477 8.36284L33.064 9.27208C34.2763 8.71707 35.4772 8.19427 36.6677 7.70354L36.2866 6.77901L35.9055 5.85447C34.6904 6.35533 33.4661 6.88837 32.2314 7.4536L32.6477 8.36284ZM39.9861 5.34432L40.3273 6.28432C41.5757 5.83122 42.8134 5.41447 44.0414 5.03386L43.7453 4.07869L43.4493 3.12352C42.1899 3.51384 40.9222 3.94077 39.645 4.40431L39.9861 5.34432ZM47.5613 3.00313L47.8069 3.97251C49.0876 3.64809 50.3588 3.36398 51.6219 3.11997L51.4322 2.13812L51.2426 1.15627C49.9409 1.40773 48.6324 1.70021 47.3158 2.03375L47.5613 3.00313ZM55.3538 1.50396L55.4826 2.49563C56.7843 2.32659 58.0789 2.20089 59.368 2.11832L59.304 1.12036L59.2401 0.12241C57.907 0.207801 56.5691 0.337735 55.225 0.512285L55.3538 1.50396ZM63.2692 0.999934L63.2657 1.99993C64.5678 2.0045 65.8662 2.05353 67.1624 2.14686L67.2342 1.14944L67.3061 0.152022C65.9643 0.0554215 64.6204 0.00467678 63.2727 -5.93975e-05L63.2692 0.999934ZM71.1792 1.56841L71.0402 2.5587C72.3211 2.73854 73.6018 2.96171 74.8841 3.22815L75.0876 2.24906L75.291 1.26998C73.9667 0.994814 72.643 0.764125 71.3183 0.578128L71.1792 1.56841ZM78.947 3.17789L78.6833 4.1425C79.9283 4.48278 81.1763 4.86355 82.4287 5.2848L82.7475 4.33697L83.0663 3.38914C81.7785 2.95601 80.4937 2.56397 79.2106 2.21327L78.947 3.17789ZM86.4705 5.701L86.1022 6.63073C87.2986 7.10457 88.5003 7.61475 89.7084 8.16125L90.1206 7.25013L90.5327 6.33901C89.2967 5.77991 88.0657 5.25726 86.8387 4.77127L86.4705 5.701ZM93.6984 8.96348L93.2476 9.85613C94.3982 10.4371 95.5555 11.0503 96.7205 11.6956L97.205 10.8208L97.6896 9.94604C96.5032 9.28892 95.3234 8.66379 94.1492 8.07084L93.6984 8.96348ZM100.643 12.8036L100.129 13.6614C101.237 14.3252 102.352 15.0172 103.476 15.7374L104.016 14.8954L104.555 14.0534C103.415 13.3229 102.283 12.6203 101.157 11.9458L100.643 12.8036ZM107.328 17.0819L106.766 17.9092C107.31 18.2788 107.857 18.6547 108.405 19.037L108.977 18.2167L109.549 17.3964C108.994 17.0095 108.441 16.6289 107.89 16.2546L107.328 17.0819Z" fill="#01A35B"/>
</svg>
