<svg width="35" height="35" viewBox="0 0 35 35" fill="none" xmlns="http://www.w3.org/2000/svg">
<rect x="0.5" y="0.5" width="34" height="34" rx="17" stroke="white" stroke-dasharray="2 2"/>
<g clip-path="url(#clip0_97_1387)">
<path d="M15.7354 24.4874L15.7838 17.9183L13.9969 17.9052L14.0143 15.54L15.8012 15.5532L15.816 13.533C15.8277 11.9456 16.8939 10.4955 19.3261 10.5134C20.3108 10.5206 21.0383 10.6178 21.0383 10.6178L20.9647 12.826C20.9647 12.826 20.2221 12.8135 19.4118 12.8076C18.5347 12.8011 18.3913 13.193 18.3865 13.8451L18.3738 15.5721L21.0141 15.5915L20.8818 17.9558L18.3564 17.9373L18.3081 24.5063L15.7354 24.4874Z" fill="white"/>
</g>
<defs>
<clipPath id="clip0_97_1387">
<rect width="7" height="14" fill="white" transform="translate(14.0515 10.4746) rotate(0.421363)"/>
</clipPath>
</defs>
</svg>
