<svg width="35" height="35" viewBox="0 0 35 35" fill="none" xmlns="http://www.w3.org/2000/svg">
<rect x="0.5" y="0.5" width="34" height="34" rx="17" stroke="white" stroke-dasharray="2 2"/>
<path d="M13.0765 24.9677L13.1509 14.8475L9.7207 14.8223L9.64627 24.9425L13.0765 24.9677ZM11.4464 13.4523C12.6426 13.4611 13.3929 12.6895 13.4 11.7184C13.385 10.7252 12.6683 9.96431 11.4948 9.95568C10.3215 9.94705 9.54864 10.697 9.54134 11.69C9.5342 12.6612 10.2729 13.4437 11.424 13.4522L11.4463 13.4523L11.4464 13.4523ZM14.9751 24.9817L18.4053 25.0069L18.4469 19.3553C18.4491 19.0528 18.4736 18.7508 18.5658 18.5353C18.8182 17.9328 19.3872 17.311 20.3348 17.318C21.576 17.3271 22.0658 18.2588 22.0558 19.6193L22.0159 25.0334L25.4459 25.0586L25.4886 19.2558C25.5115 16.1473 23.8298 14.6884 21.573 14.6719C19.7225 14.6582 18.9026 15.6666 18.4461 16.3541L18.469 16.3543L18.4798 14.8865L15.0496 14.8613C15.0876 15.8112 14.9752 24.9815 14.9752 24.9815L14.9751 24.9817Z" fill="white"/>
</svg>
