<svg width="35" height="35" viewBox="0 0 35 35" fill="none" xmlns="http://www.w3.org/2000/svg">
<rect x="0.5" y="0.5" width="34" height="34" rx="17" stroke="white" stroke-dasharray="2 2"/>
<g clip-path="url(#clip0_97_1392)">
<path d="M26.5387 12.2708C25.8625 12.5503 25.1462 12.7318 24.4136 12.8092C25.1793 12.3794 25.7699 11.6942 26.0516 10.8748C25.3237 11.2792 24.5285 11.5621 23.7004 11.7112C23.0318 11.0226 22.0752 10.5882 21.013 10.5804C18.9736 10.5654 17.3085 12.1284 17.2943 14.0712C17.2922 14.347 17.3229 14.6157 17.384 14.8737C14.316 14.7044 11.6053 13.2838 9.79954 11.142C9.47791 11.6592 9.29136 12.2623 9.28662 12.9069C9.27765 14.1275 9.92172 15.2091 10.9079 15.8473C10.3216 15.8255 9.74918 15.6704 9.23844 15.3949C9.23812 15.4096 9.23801 15.4244 9.23791 15.4392C9.22537 17.1437 10.4878 18.575 12.1747 18.9106C11.6299 19.0475 11.0593 19.0639 10.5067 18.9586C10.9663 20.3598 12.3226 21.3869 13.9383 21.4272C12.6675 22.3615 11.071 22.9122 9.34097 22.8995C9.04285 22.8973 8.74907 22.8785 8.46041 22.8439C10.0873 23.8541 12.0241 24.4508 14.1095 24.4661C20.902 24.5161 24.6557 19.1826 24.6899 14.5337C24.691 14.3811 24.6886 14.2293 24.6826 14.0784C25.4092 13.5858 26.0377 12.9737 26.5387 12.2708Z" fill="white"/>
</g>
<defs>
<clipPath id="clip0_97_1392">
<rect width="18" height="14" fill="white" transform="translate(8.55176 10.4341) rotate(0.421363)"/>
</clipPath>
</defs>
</svg>
