<svg width="232" height="193" viewBox="0 0 232 193" fill="none" xmlns="http://www.w3.org/2000/svg">
<path d="M159.402 181.675C171.148 153.641 162.458 174.43 162.708 149.353C162.958 124.276 220.439 83.6123 216.451 92.3716C212.463 101.131 201.41 122.596 185.673 133.515C169.937 144.434 165.684 155.777 164.361 168.694C163.039 181.612 162.573 178.241 162.573 178.241L159.748 182.984L159.402 181.675Z" fill="url(#paint0_linear_280_1096)"/>
<path d="M164.863 172.378C164.821 172.378 164.778 172.371 164.736 172.358C164.524 172.288 164.408 172.058 164.478 171.846C164.508 171.758 156.598 191.885 158.555 184.501C160.514 177.114 162.166 163.966 162.208 159.296C162.246 155.027 164.689 141.384 175.393 129.672C180.717 123.847 184.639 120.326 190.067 115.453C195.429 110.64 202.101 104.65 213.055 93.8686C213.215 93.7119 213.471 93.7132 213.628 93.8727C213.785 94.0321 213.783 94.2887 213.624 94.4454C202.655 105.241 195.976 111.237 190.608 116.056C185.198 120.914 181.289 124.422 175.992 130.218C165.459 141.742 163.055 155.119 163.019 159.301C162.977 164.011 161.311 177.266 159.339 184.707C157.375 192.115 165.278 172.009 165.248 172.099C165.191 172.269 165.033 172.377 164.863 172.377V172.378Z" fill="#74B570"/>
<path d="M190.213 116.246C190.019 116.246 189.847 116.106 189.815 115.907C189.778 115.687 189.927 115.478 190.147 115.441C190.238 115.426 199.341 113.834 206.432 106.605C206.589 106.446 206.846 106.443 207.005 106.6C207.165 106.756 207.167 107.013 207.011 107.172C199.728 114.596 190.373 116.225 190.28 116.24C190.257 116.244 190.235 116.245 190.212 116.245L190.213 116.246Z" fill="#74B570"/>
<path d="M182.333 124.698C181.738 124.698 181.394 124.672 181.334 124.668C181.112 124.651 180.945 124.455 180.963 124.232C180.981 124.009 181.176 123.843 181.399 123.86C181.468 123.866 188.408 124.356 197.988 120.328C198.195 120.241 198.433 120.338 198.519 120.544C198.606 120.75 198.509 120.988 198.303 121.075C190.552 124.334 184.608 124.699 182.333 124.698Z" fill="#74B570"/>
<path d="M157.829 112.553C174.704 92.6176 178.398 84.1406 177.986 59.7066C177.576 35.2727 196.004 0.846069 186.196 8.41117C176.388 15.9749 162.602 41.2086 168.488 60.6915C174.374 80.173 172.987 86.5817 170.917 91.9434C168.847 97.3039 157.547 110.937 157.547 110.937L157.828 112.556L157.829 112.553Z" fill="url(#paint1_linear_280_1096)"/>
<path d="M168.121 99.3709C168.176 99.2898 168.232 99.2074 168.286 99.1264C169.099 97.1622 173.215 87.0222 173.564 82.2873C173.95 77.0309 169.384 64.8659 172.12 54.4693C174.855 44.0713 175.001 34.8757 175.733 27.7347C176.701 18.3067 184.27 9.38666 188.902 7.74125C188.86 7.65749 188.81 7.5886 188.753 7.53186L187.515 7.55888C187.149 7.7318 186.711 8.01278 186.195 8.40995C176.387 15.9737 162.601 41.2074 168.487 60.6902C174.373 80.1717 172.986 86.5805 170.916 91.9422C170.358 93.3877 169.127 95.437 167.629 97.6566L168.12 99.3722L168.121 99.3709Z" fill="#01A35B"/>
<path d="M154.69 140.536C166.434 112.5 168.224 102.138 168.471 77.0606C168.718 51.9836 226.194 11.3131 222.207 20.0737C218.221 28.8344 207.17 50.299 191.435 61.2198C175.7 72.1406 171.448 83.4842 170.127 96.4016C168.806 109.319 157.861 137.102 157.861 137.102L155.036 141.846L154.69 140.537V140.536Z" fill="url(#paint2_linear_280_1096)"/>
<path d="M159.801 129.054C159.759 129.054 159.716 129.048 159.674 129.034C159.462 128.964 159.346 128.734 159.416 128.522C159.445 128.434 162.365 119.591 164.322 112.207C166.28 104.82 167.932 91.6707 167.972 87.0019C168.01 82.733 170.451 69.0902 181.155 57.3764C186.479 51.5513 190.399 48.0295 195.827 43.1567C201.187 38.3434 207.859 32.3521 218.813 21.5692C218.972 21.4125 219.229 21.4138 219.385 21.5732C219.542 21.7326 219.541 21.9893 219.381 22.146C208.413 32.9425 201.734 38.9405 196.369 43.7592C190.958 48.6171 187.05 52.1268 181.754 57.9235C171.223 69.4495 168.822 82.8263 168.786 87.0087C168.744 91.718 167.081 104.973 165.109 112.414C163.146 119.822 160.218 128.687 160.188 128.776C160.132 128.946 159.974 129.054 159.803 129.054H159.801Z" fill="#74B570"/>
<path d="M169.824 152.965C173.714 133.026 173.17 142.982 166.978 114.86C159.891 82.6735 197.699 58.0558 202.465 69.9114C207.231 81.7657 210.742 117.996 208.302 116.61C205.861 115.225 191.943 80.6269 191.355 81.9737C190.767 83.3206 167.29 92.8729 167.156 104.755C167.022 116.637 173.9 136.144 173.9 136.144L172.118 153.406L169.826 152.967L169.824 152.965Z" fill="url(#paint3_linear_280_1096)"/>
<path d="M172.165 153.284C172.139 153.284 172.113 153.282 172.089 153.278L169.797 152.838C169.691 152.818 169.598 152.756 169.537 152.667C169.476 152.578 169.455 152.468 169.475 152.363C169.925 150.058 170.322 148.12 170.642 146.562C171.796 140.941 171.71 135.62 170.384 130.598C169.482 127.182 168.247 122.504 166.584 114.948C165.337 109.282 165.399 103.533 166.769 97.8591C167.977 92.858 170.165 88.0177 173.272 83.4732C178.602 75.6784 186.464 69.2765 193.305 67.1636C198.108 65.6803 201.583 66.6273 202.843 69.7601C204.869 74.8003 206.922 84.9268 208.337 96.8486C208.93 101.85 209.328 106.587 209.459 110.19C209.677 116.171 209.097 116.677 208.85 116.893C208.637 117.081 208.357 117.107 208.104 116.964C206.743 116.191 202.864 107.65 197.536 95.6706C194.942 89.84 192.268 83.8258 191.403 82.5154C190.952 82.8869 190.006 83.4192 188.15 84.4486C181.501 88.1379 167.663 95.8138 167.562 104.76C167.431 116.433 174.215 135.814 174.283 136.009C174.303 136.066 174.31 136.125 174.305 136.186L172.57 152.922C172.558 153.036 172.5 153.138 172.408 153.206C172.338 153.259 172.252 153.286 172.166 153.286L172.165 153.284ZM170.348 152.118L171.807 152.398L173.487 136.191C172.99 134.757 166.622 116.163 166.75 104.75C166.856 95.3329 180.971 87.5016 187.754 83.7393C189.313 82.8747 190.786 82.0574 190.991 81.7927C191.069 81.6306 191.225 81.5306 191.4 81.5306C191.406 81.5306 191.412 81.5306 191.418 81.5306C191.752 81.5306 192.004 81.6008 193.985 85.8305C195.15 88.3203 196.668 91.7313 198.274 95.3423C200.312 99.9246 202.622 105.118 204.528 109.119C206.995 114.298 207.985 115.78 208.38 116.163C208.523 115.81 208.811 114.533 208.642 110.078C208.506 106.481 208.104 101.77 207.514 96.8121C206.109 85.0173 204.081 75.0192 202.089 70.0654C201.005 67.373 197.89 66.5976 193.541 67.9418C181.621 71.623 162.127 90.9518 167.373 114.777C169.033 122.315 170.265 126.985 171.165 130.394C172.523 135.539 172.613 140.983 171.434 146.728C171.118 148.27 170.761 150.004 170.346 152.121L170.348 152.118Z" fill="#0A7A5F"/>
<path d="M158.193 113.963L158.462 113.704C158.492 111.147 158.625 108.63 158.914 106.324C158.07 110.597 158.193 113.963 158.193 113.963Z" fill="url(#paint4_linear_280_1096)"/>
<path d="M169.657 96.2179C168.821 97.8619 168.245 99.6019 167.858 101.336C171.874 91.4438 189.959 83.8165 191.219 82.3683L191.453 81.9968C185.134 79.6017 173.949 87.776 169.656 96.2179H169.657Z" fill="url(#paint5_linear_280_1096)"/>
<path d="M208.4 116.099C208.203 116.099 208.03 115.956 208 115.755L206.332 104.834C206.225 104.14 206.118 103.432 206.01 102.717C204.461 92.5081 202.53 79.8042 199.615 73.975C199.145 73.0361 196.835 71.6163 193.368 71.5515C188.652 71.4637 179.313 73.898 169.827 91.2045C169.719 91.4004 169.473 91.4734 169.277 91.3653C169.081 91.2572 169.01 91.0113 169.117 90.8155C178.808 73.1347 188.487 70.6491 193.383 70.7409C197.226 70.8139 199.765 72.4633 200.339 73.6129C203.311 79.5556 205.17 91.7962 206.81 102.595C206.918 103.311 207.026 104.017 207.131 104.712L208.8 115.633C208.833 115.855 208.681 116.061 208.461 116.095C208.44 116.098 208.419 116.099 208.398 116.099H208.4Z" fill="#74B570"/>
<path d="M200.699 98.6319C200.672 98.6319 200.643 98.6292 200.615 98.6238C200.396 98.5779 200.255 98.3631 200.301 98.1442C200.323 98.0416 202.435 87.6787 200.67 76.427C200.635 76.2054 200.786 75.9987 201.008 75.9636C201.229 75.9298 201.436 76.0798 201.471 76.3013C203.259 87.7044 201.116 98.205 201.094 98.309C201.055 98.5009 200.886 98.6319 200.699 98.6319Z" fill="#74B570"/>
<path d="M198.039 91.8597C198.012 91.8597 197.984 91.857 197.956 91.8502C197.737 91.8043 197.596 91.5895 197.642 91.3707C197.663 91.2761 199.636 81.7859 199.571 73.7966C199.57 73.5724 199.75 73.39 199.974 73.3887C200.2 73.3887 200.381 73.5683 200.382 73.7912C200.447 81.8697 198.455 91.4436 198.435 91.5395C198.395 91.73 198.227 91.861 198.039 91.861V91.8597Z" fill="#74B570"/>
<path d="M195.973 43.9496C195.778 43.9496 195.607 43.8091 195.574 43.6105C195.538 43.3903 195.686 43.181 195.906 43.1445C195.997 43.1296 205.101 41.5355 212.192 34.3068C212.348 34.1474 212.605 34.1447 212.764 34.3014C212.924 34.4581 212.927 34.7148 212.77 34.8742C205.488 42.2988 196.133 43.928 196.04 43.9442C196.017 43.9483 195.996 43.9496 195.973 43.9496Z" fill="#74B570"/>
<path d="M188.091 52.4023C187.497 52.4023 187.152 52.378 187.093 52.3726C186.87 52.355 186.704 52.1591 186.721 51.9362C186.739 51.7133 186.935 51.5472 187.158 51.5647C187.226 51.5701 194.166 52.0592 203.747 48.0294C203.953 47.9429 204.191 48.0402 204.278 48.2455C204.364 48.4522 204.267 48.69 204.062 48.7764C196.31 52.0362 190.366 52.4023 188.092 52.4023H188.091Z" fill="#74B570"/>
<path d="M182.48 61.113C180.297 61.113 179.173 60.7145 179.081 60.6794C178.871 60.601 178.765 60.3687 178.842 60.158C178.92 59.9486 179.154 59.8418 179.363 59.9188C179.405 59.9337 183.828 61.4697 192.59 58.1545C192.799 58.0748 193.033 58.1802 193.113 58.3896C193.192 58.599 193.087 58.8327 192.878 58.9124C188.226 60.6727 184.772 61.1117 182.481 61.1117L182.48 61.113Z" fill="#74B570"/>
<path d="M58.2555 167.23C57.961 166.335 37.396 140.126 38.3674 118.574C39.0469 103.483 34.551 87.1234 34.551 87.1234C34.551 87.1234 49.1584 98.0712 49.6069 122.008C49.8839 136.74 49.4192 141 50.3567 145.052C51.2942 149.105 59.7401 168.127 59.7401 168.127L58.2555 167.228V167.23Z" fill="url(#paint6_linear_280_1096)"/>
<path d="M59.74 168.533C59.6684 168.533 59.5954 168.515 59.5306 168.475L58.0459 167.577C57.9676 167.53 57.9081 167.458 57.8771 167.373C57.8136 167.245 57.4083 166.662 56.9395 165.99C54.8389 162.977 49.9202 155.92 45.5905 147.193C40.1666 136.26 37.5999 126.624 37.9633 118.555C38.632 103.705 34.2064 87.3937 34.1618 87.2302C34.1159 87.0627 34.1807 86.8857 34.3239 86.7884C34.4671 86.6912 34.6562 86.6952 34.7954 86.7993C34.9467 86.9127 38.5482 89.6456 42.2524 95.3694C45.6635 100.641 49.7797 109.54 50.0134 122C50.1066 126.983 50.1161 130.738 50.1228 133.753C50.1363 139.636 50.1431 142.322 50.7537 144.96C51.6723 148.929 60.0277 167.773 60.1128 167.962C60.1844 168.124 60.1425 168.313 60.0101 168.431C59.9345 168.498 59.8386 168.532 59.7427 168.532L59.74 168.533ZM57.8703 167.357C57.8703 167.357 57.873 167.364 57.8744 167.368C57.873 167.364 57.8717 167.36 57.8703 167.357ZM58.5647 166.942L58.8511 167.115C56.9814 162.869 50.774 148.647 49.9634 145.144C49.3325 142.416 49.3258 139.702 49.3123 133.756C49.3055 130.742 49.2961 126.992 49.2029 122.015C48.9732 109.765 44.9367 101.02 41.5918 95.8423C39.0832 91.9597 36.5786 89.4443 35.2587 88.2542C36.2733 92.3637 39.3385 105.99 38.7711 118.592C38.2118 131.008 44.5476 146.799 57.6028 165.525C58.204 166.387 58.4539 166.749 58.5647 166.942Z" fill="#0A7A5F"/>
<path d="M51.6225 163.166C52.3979 164.574 53.0774 167.004 53.6515 169.763H55.0146C50.2999 146.612 40.4328 133.028 25.2972 122.728C6.55334 109.974 5.29834 106.15 5.29834 106.15C5.29834 106.15 11.6949 134.936 22.7129 143.758C33.731 152.579 48.8909 158.204 51.6238 163.166H51.6225Z" fill="#00905B"/>
<path d="M43.5845 167.057C45.4298 167.132 47.1617 168.223 48.7004 169.761H51.8723C48.3856 163.785 43.8344 158.853 38.3375 158.815C24.465 158.718 21.7037 162.304 12.1744 162.022C5.37528 161.821 0 160.375 0 160.375C0 160.375 4.70523 168.916 17.3322 171.035C26.2604 172.533 36.9056 166.785 43.5858 167.057H43.5845Z" fill="url(#paint7_linear_280_1096)"/>
<path d="M55.432 172.619C55.247 172.619 55.0795 172.49 55.0376 172.302C52.845 162.611 49.2084 154.127 44.5207 147.769C38.5551 139.677 32.5989 135.293 26.84 131.055C21.3783 127.035 16.2205 123.239 11.8084 116.688C11.6828 116.503 11.7328 116.25 11.9178 116.126C12.1029 116.002 12.3555 116.051 12.4798 116.236C16.8135 122.669 21.9173 126.426 27.3196 130.403C33.1271 134.677 39.1333 139.097 45.1719 147.289C49.9933 153.829 53.5786 162.184 55.8265 172.124C55.8765 172.343 55.7387 172.559 55.5212 172.609C55.4915 172.616 55.4604 172.62 55.432 172.62V172.619Z" fill="#74B570"/>
<path d="M54.1405 174.25C53.9973 174.25 53.8582 174.173 53.7839 174.04C49.442 166.087 45.1867 161.756 40.3909 160.406C36.1612 159.216 32.0585 160.502 27.7153 161.865C26.4833 162.252 25.2094 162.651 23.9328 162.991C12.7432 165.961 6.95721 163.942 6.71675 163.855C6.50601 163.778 6.39794 163.546 6.47359 163.336C6.54924 163.126 6.78294 163.018 6.99234 163.093C7.04907 163.113 12.8094 165.105 23.7234 162.207C24.9824 161.872 26.2482 161.476 27.4708 161.091C31.9315 159.692 36.145 158.369 40.6084 159.625C45.6284 161.038 50.0405 165.495 54.4931 173.652C54.5998 173.848 54.5282 174.095 54.331 174.202C54.2688 174.236 54.2027 174.252 54.1378 174.252L54.1405 174.25Z" fill="#74B570"/>
<path d="M33.7309 136.182C33.662 136.182 33.5917 136.164 33.5269 136.126C33.4553 136.085 26.3036 131.975 17.0444 131.414C16.8215 131.401 16.6513 131.209 16.6648 130.985C16.6783 130.762 16.8715 130.59 17.0944 130.605C26.5535 131.178 33.8633 135.383 33.9362 135.425C34.1294 135.537 34.1942 135.786 34.0821 135.979C34.0065 136.109 33.8714 136.18 33.7322 136.18L33.7309 136.182Z" fill="#74B570"/>
<path d="M46.2322 149.842C46.112 149.842 45.9931 149.789 45.9134 149.687C40.1572 142.338 34.2888 141.036 21.5646 138.79C21.3444 138.751 21.1971 138.542 21.2363 138.32C21.2755 138.099 21.4862 137.953 21.7064 137.992C34.6427 140.274 40.6124 141.602 46.5524 149.187C46.6902 149.363 46.6591 149.618 46.4835 149.756C46.4092 149.814 46.3214 149.842 46.2336 149.842H46.2322Z" fill="#74B570"/>
<path d="M152.716 174.106C168.448 142.984 185.044 130.542 207.218 125.815C229.391 121.088 231.999 118.023 231.999 118.023C231.999 118.023 215.199 142.258 201.664 146.262C188.129 150.266 171.968 149.746 167.563 153.307C163.158 156.868 155.071 172.628 155.071 172.628L152.344 174.76L152.715 174.105L152.716 174.106Z" fill="url(#paint8_linear_280_1096)"/>
<path d="M160.038 185.071C159.903 184.492 166.648 152.978 180.509 152.389C194.369 151.801 197.256 155.286 206.769 154.668C213.556 154.226 218.877 152.591 218.877 152.591C218.877 152.591 214.477 161.293 201.933 163.858C193.063 165.672 182.222 160.304 175.555 160.812C168.888 161.32 164.192 175.061 164.192 175.061L162.381 182.265L160.037 185.071H160.038Z" fill="url(#paint9_linear_280_1096)"/>
<path d="M153.575 172.619C153.52 172.619 153.463 172.606 153.409 172.582C153.205 172.49 153.115 172.25 153.207 172.046C153.23 171.994 155.59 166.812 159.988 160.441C164.052 154.556 170.741 146.412 179.536 141.046C188.222 135.744 195.452 133.922 202.446 132.159C208.952 130.519 215.096 128.969 221.54 124.65C221.726 124.526 221.977 124.575 222.102 124.761C222.226 124.948 222.176 125.199 221.991 125.323C215.431 129.72 209.221 131.286 202.645 132.944C195.71 134.692 188.541 136.501 179.959 141.738C171.293 147.028 164.684 155.072 160.666 160.889C156.304 167.203 153.968 172.329 153.945 172.381C153.878 172.531 153.731 172.62 153.575 172.62V172.619Z" fill="#74B570"/>
<path d="M161.874 176.005C161.824 176.005 161.774 175.996 161.726 175.977C161.518 175.895 161.415 175.659 161.497 175.451C166.254 163.407 171.059 156.568 176.62 153.93C181.598 151.569 186.381 152.884 191.444 154.279C192.681 154.619 193.96 154.97 195.23 155.261C206.271 157.777 211.926 155.577 211.981 155.554C212.189 155.47 212.425 155.57 212.509 155.778C212.593 155.986 212.493 156.223 212.285 156.306C212.047 156.402 206.337 158.624 195.05 156.052C193.763 155.759 192.475 155.404 191.23 155.062C186.315 153.71 181.673 152.432 176.967 154.664C171.602 157.207 166.927 163.908 162.25 175.75C162.186 175.909 162.034 176.007 161.873 176.007L161.874 176.005Z" fill="#0A7A5F"/>
<path d="M211.704 136.999C211.661 136.999 211.618 136.992 211.574 136.978C202.789 133.997 194.615 135.1 194.534 135.112C194.312 135.142 194.107 134.989 194.076 134.767C194.045 134.546 194.199 134.341 194.42 134.309C194.504 134.297 202.861 133.167 211.835 136.21C212.047 136.282 212.161 136.513 212.089 136.724C212.032 136.892 211.874 136.999 211.705 136.999H211.704Z" fill="#74B570"/>
<path d="M177.742 143.039C177.602 143.039 177.465 142.966 177.389 142.835C177.279 142.641 177.346 142.393 177.541 142.283C185.906 137.506 191.935 138.531 204.774 141.307C204.993 141.355 205.132 141.571 205.084 141.79C205.037 142.008 204.822 142.148 204.602 142.1C191.973 139.37 186.049 138.358 177.942 142.988C177.878 143.024 177.81 143.04 177.742 143.042V143.039Z" fill="#74B570"/>
<path d="M70.1758 18.0324H144.037C144.037 13.003 139.96 8.9259 134.93 8.9259H79.2836C74.2542 8.9259 70.1771 13.003 70.1771 18.0324H70.1758Z" fill="#838384"/>
<path d="M163.4 13.6406H49.3921C47.6268 13.6406 46.1958 15.0716 46.1958 16.8369V172.407C46.1958 174.172 47.6268 175.603 49.3921 175.603H163.4C165.165 175.603 166.596 174.172 166.596 172.407V16.8369C166.596 15.0716 165.165 13.6406 163.4 13.6406Z" fill="#A2A2A3"/>
<path d="M158.162 20.5477H54.6306C52.8079 20.5477 51.3303 22.0253 51.3303 23.848V165.397C51.3303 167.219 52.8079 168.697 54.6306 168.697H158.162C159.984 168.697 161.462 167.219 161.462 165.397V23.848C161.462 22.0253 159.984 20.5477 158.162 20.5477Z" fill="white"/>
<g opacity="0.35">
<path opacity="0.7" d="M61.507 50.9812H153.01C153.728 50.9812 154.311 51.5648 154.311 52.2821V52.3713C154.311 53.09 153.727 53.6722 153.01 53.6722H61.507C60.7883 53.6722 60.2061 53.0886 60.2061 52.3713V52.2821C60.2061 51.5634 60.7896 50.9812 61.507 50.9812Z" fill="#01A35B"/>
<path opacity="0.7" d="M61.507 56.2037H153.01C153.728 56.2037 154.311 56.7873 154.311 57.5047V57.5938C154.311 58.3125 153.727 58.8948 153.01 58.8948H61.507C60.7883 58.8948 60.2061 58.3112 60.2061 57.5938V57.5047C60.2061 56.786 60.7896 56.2037 61.507 56.2037Z" fill="#01A35B"/>
<path opacity="0.7" d="M133.605 71.0788H61.5164C60.7951 71.0788 60.2061 70.4884 60.2061 69.7684C60.2061 69.0484 60.7964 68.458 61.5164 68.458H133.605C134.327 68.458 134.916 69.0484 134.916 69.7684C134.916 70.4884 134.325 71.0788 133.605 71.0788Z" fill="#01A35B"/>
<path opacity="0.7" d="M133.605 75.7759H61.5164C60.7951 75.7759 60.2061 75.1856 60.2061 74.4655C60.2061 73.7455 60.7964 73.1552 61.5164 73.1552H133.605C134.327 73.1552 134.916 73.7455 134.916 74.4655C134.916 75.1856 134.325 75.7759 133.605 75.7759Z" fill="#01A35B"/>
<path opacity="0.7" d="M133.605 89.358H61.5164C60.7951 89.358 60.2061 88.7676 60.2061 88.0476C60.2061 87.3275 60.7964 86.7372 61.5164 86.7372H133.605C134.327 86.7372 134.916 87.3275 134.916 88.0476C134.916 88.7676 134.325 89.358 133.605 89.358Z" fill="#01A35B"/>
<path opacity="0.7" d="M133.605 94.0536H61.5164C60.7951 94.0536 60.2061 93.4633 60.2061 92.7432C60.2061 92.0232 60.7964 91.4329 61.5164 91.4329H133.605C134.327 91.4329 134.916 92.0232 134.916 92.7432C134.916 93.4633 134.325 94.0536 133.605 94.0536Z" fill="#01A35B"/>
<path opacity="0.7" d="M133.605 110.872H61.5164C60.7951 110.872 60.2061 110.282 60.2061 109.562C60.2061 108.842 60.7964 108.252 61.5164 108.252H133.605C134.327 108.252 134.916 108.842 134.916 109.562C134.916 110.282 134.325 110.872 133.605 110.872Z" fill="#01A35B"/>
<path opacity="0.7" d="M133.605 115.568H61.5164C60.7951 115.568 60.2061 114.978 60.2061 114.258C60.2061 113.538 60.7964 112.948 61.5164 112.948H133.605C134.327 112.948 134.916 113.538 134.916 114.258C134.916 114.978 134.325 115.568 133.605 115.568Z" fill="#01A35B"/>
<path opacity="0.7" d="M133.605 127.672H61.5164C60.7951 127.672 60.2061 127.082 60.2061 126.362C60.2061 125.642 60.7964 125.052 61.5164 125.052H133.605C134.327 125.052 134.916 125.642 134.916 126.362C134.916 127.082 134.325 127.672 133.605 127.672Z" fill="#01A35B"/>
<path opacity="0.7" d="M133.605 132.368H61.5164C60.7951 132.368 60.2061 131.778 60.2061 131.058C60.2061 130.338 60.7964 129.747 61.5164 129.747H133.605C134.327 129.747 134.916 130.338 134.916 131.058C134.916 131.778 134.325 132.368 133.605 132.368Z" fill="#01A35B"/>
<path opacity="0.7" d="M155.945 155.927H83.8565C83.1351 155.927 82.5461 155.336 82.5461 154.616C82.5461 153.896 83.1365 153.306 83.8565 153.306H155.945C156.667 153.306 157.256 153.896 157.256 154.616C157.256 155.336 156.665 155.927 155.945 155.927Z" fill="#01A35B"/>
<path opacity="0.7" d="M155.945 162.472H83.8565C83.1351 162.472 82.5461 161.882 82.5461 161.162C82.5461 160.442 83.1365 159.851 83.8565 159.851H155.945C156.667 159.851 157.256 160.442 157.256 161.162C157.256 161.882 156.665 162.472 155.945 162.472Z" fill="#01A35B"/>
</g>
<path d="M145.931 77.513H141.743C139.922 77.513 138.441 76.0324 138.441 74.2114V70.0236C138.441 68.2025 139.922 66.7219 141.743 66.7219H145.931C147.752 66.7219 149.232 68.2025 149.232 70.0236V74.2114C149.232 76.0324 147.752 77.513 145.931 77.513ZM141.743 68.6118C140.965 68.6118 140.332 69.2441 140.332 70.0222V74.21C140.332 74.9882 140.965 75.6204 141.743 75.6204H145.931C146.709 75.6204 147.341 74.9882 147.341 74.21V70.0222C147.341 69.2441 146.709 68.6118 145.931 68.6118H141.743Z" fill="#0C6553"/>
<path d="M145.931 95.3127H141.743C139.922 95.3127 138.441 93.8321 138.441 92.0111V87.8232C138.441 86.0022 139.922 84.5216 141.743 84.5216H145.931C147.752 84.5216 149.232 86.0022 149.232 87.8232V92.0111C149.232 93.8321 147.752 95.3127 145.931 95.3127ZM141.743 86.4129C140.965 86.4129 140.332 87.0451 140.332 87.8232V92.0111C140.332 92.7892 140.965 93.4214 141.743 93.4214H145.931C146.709 93.4214 147.341 92.7892 147.341 92.0111V87.8232C147.341 87.0451 146.709 86.4129 145.931 86.4129H141.743Z" fill="#0C6553"/>
<path d="M145.18 75.022C145.166 75.022 145.154 75.022 145.14 75.022C144.903 75.0099 144.681 74.895 144.537 74.7059L141.527 70.7788C141.254 70.4235 141.321 69.9142 141.677 69.6427C142.032 69.3698 142.54 69.4374 142.813 69.7926L145.24 72.9592L151.917 65.8061C152.222 65.4792 152.735 65.4616 153.062 65.7669C153.389 66.0722 153.407 66.5856 153.101 66.9125L145.771 74.7653C145.617 74.9302 145.403 75.0234 145.178 75.0234L145.18 75.022Z" fill="#BC312E"/>
<path d="M145.18 92.8216C145.166 92.8216 145.154 92.8216 145.14 92.8216C144.903 92.8094 144.681 92.6946 144.537 92.5055L141.527 88.5784C141.254 88.2231 141.321 87.7138 141.677 87.4423C142.032 87.1707 142.54 87.2369 142.813 87.5922L145.24 90.7587L151.917 83.6057C152.222 83.2787 152.735 83.2612 153.062 83.5665C153.389 83.8718 153.407 84.3851 153.101 84.7121L145.771 92.5649C145.617 92.7297 145.403 92.8229 145.178 92.8229L145.18 92.8216Z" fill="#BC312E"/>
<path d="M145.931 116.283H141.743C139.998 116.283 138.576 114.863 138.576 113.116V108.928C138.576 107.183 139.996 105.762 141.743 105.762H145.931C147.676 105.762 149.097 107.182 149.097 108.928V113.116C149.097 114.862 147.678 116.283 145.931 116.283ZM141.743 107.382C140.891 107.382 140.198 108.075 140.198 108.927V113.115C140.198 113.967 140.891 114.66 141.743 114.66H145.931C146.783 114.66 147.476 113.967 147.476 113.115V108.927C147.476 108.075 146.783 107.382 145.931 107.382H141.743Z" fill="#0C6553"/>
<path d="M145.931 134.218H141.743C139.922 134.218 138.441 132.737 138.441 130.916V126.728C138.441 124.907 139.922 123.427 141.743 123.427H145.931C147.752 123.427 149.232 124.907 149.232 126.728V130.916C149.232 132.737 147.752 134.218 145.931 134.218ZM141.743 125.318C140.965 125.318 140.332 125.95 140.332 126.728V130.916C140.332 131.694 140.965 132.326 141.743 132.326H145.931C146.709 132.326 147.341 131.694 147.341 130.916V126.728C147.341 125.95 146.709 125.318 145.931 125.318H141.743Z" fill="#0C6553"/>
<path d="M145.18 113.927C145.166 113.927 145.154 113.927 145.14 113.927C144.903 113.915 144.681 113.8 144.537 113.611L141.527 109.684C141.254 109.328 141.321 108.819 141.677 108.547C142.032 108.276 142.54 108.342 142.813 108.697L145.24 111.864L151.917 104.711C152.222 104.384 152.735 104.366 153.062 104.672C153.389 104.977 153.407 105.49 153.101 105.817L145.771 113.67C145.617 113.835 145.403 113.928 145.178 113.928L145.18 113.927Z" fill="#BC312E"/>
<path d="M145.18 131.726C145.166 131.726 145.154 131.726 145.14 131.726C144.903 131.714 144.681 131.6 144.537 131.41L141.527 127.483C141.254 127.128 141.321 126.619 141.677 126.347C142.032 126.074 142.54 126.142 142.813 126.497L145.24 129.664L151.917 122.511C152.222 122.184 152.735 122.166 153.062 122.471C153.389 122.777 153.407 123.29 153.101 123.617L145.771 131.47C145.617 131.635 145.403 131.728 145.178 131.728L145.18 131.726Z" fill="#BC312E"/>
<path d="M122.048 24.537H90.7448C83.6376 24.537 77.876 18.7754 77.876 11.6683C77.876 10.1525 79.104 8.92456 80.6197 8.92456H132.172C133.688 8.92456 134.916 10.1525 134.916 11.6683C134.916 18.7754 129.154 24.537 122.047 24.537H122.048Z" fill="#838384"/>
<path d="M82.5594 9.8999H131.811C132.836 9.8999 133.668 10.7321 133.668 11.7574V11.8398C133.668 16.6464 129.767 20.5478 124.96 20.5478H89.4099C84.6033 20.5478 80.7019 16.6464 80.7019 11.8398V11.7574C80.7019 10.7321 81.5341 9.90125 82.5581 9.90125L82.5594 9.8999Z" fill="#D1D1D1"/>
<path d="M153.899 31.8429H62.3972V45.0251H153.899V31.8429Z" fill="#0C6553"/>
<path d="M84.8573 35.3484V41.803H83.3916V35.3484H84.8573Z" fill="white"/>
<path d="M86.1218 41.8045V35.3499H87.8267L89.1681 37.7153C89.5518 38.3948 89.9341 39.2 90.2218 39.9281H90.2502C90.1543 39.0757 90.1259 38.2043 90.1259 37.2371V35.3499H91.4674V41.8045H89.9354L88.5562 39.3148C88.1725 38.6258 87.751 37.7923 87.4363 37.0358L87.4079 37.0452C87.4457 37.8977 87.466 38.8082 87.466 39.8605V41.8045H86.1245H86.1218Z" fill="white"/>
<path d="M92.7777 40.3009C93.1708 40.5021 93.7733 40.7034 94.3961 40.7034C95.0661 40.7034 95.4214 40.4251 95.4214 40.0037C95.4214 39.5822 95.1147 39.3714 94.3393 39.0931C93.2667 38.7203 92.5669 38.1259 92.5669 37.187C92.5669 36.086 93.4869 35.243 95.0094 35.243C95.7375 35.243 96.2738 35.3957 96.6561 35.5686L96.3306 36.7466C96.0725 36.6223 95.6119 36.4399 94.9797 36.4399C94.3474 36.4399 94.0408 36.7277 94.0408 37.0627C94.0408 37.4747 94.4042 37.6571 95.2377 37.9732C96.3779 38.3947 96.9142 38.9878 96.9142 39.8983C96.9142 40.9804 96.0807 41.9003 94.3096 41.9003C93.572 41.9003 92.8439 41.7085 92.4805 41.5072L92.7777 40.3009Z" fill="white"/>
<path d="M99.3567 35.3484V39.0647C99.3567 40.1752 99.7782 40.7412 100.525 40.7412C101.272 40.7412 101.713 40.2049 101.713 39.0647V35.3484H103.169V38.9688C103.169 40.9614 102.164 41.9098 100.478 41.9098C98.792 41.9098 97.8923 41.0101 97.8923 38.9499V35.3484H99.3581H99.3567Z" fill="white"/>
<path d="M104.432 35.4349C104.901 35.3579 105.6 35.3011 106.376 35.3011C107.334 35.3011 108.004 35.4443 108.464 35.8091C108.848 36.1157 109.059 36.5656 109.059 37.16C109.059 37.9841 108.475 38.5487 107.919 38.75V38.7784C108.368 38.9608 108.617 39.3917 108.78 39.9848C108.982 40.7129 109.183 41.5559 109.307 41.8044H107.813C107.708 41.6221 107.555 41.0952 107.363 40.3009C107.19 39.4957 106.914 39.2755 106.319 39.2661H105.879V41.8044H104.432V35.4349ZM105.879 38.2124H106.453C107.181 38.2124 107.612 37.849 107.612 37.2829C107.612 36.6885 107.209 36.3927 106.539 36.3832C106.185 36.3832 105.984 36.4116 105.879 36.4305V38.2124Z" fill="white"/>
<path d="M111.701 40.1469L111.242 41.8045H109.729L111.701 35.3499H113.617L115.619 41.8045H114.048L113.549 40.1469H111.701ZM113.339 39.0554L112.936 37.6856C112.821 37.3019 112.706 36.8237 112.61 36.44H112.592C112.496 36.8237 112.4 37.3114 112.294 37.6856L111.911 39.0554H113.337H113.339Z" fill="white"/>
<path d="M116.479 41.8045V35.3499H118.184L119.526 37.7153C119.909 38.3948 120.292 39.2 120.58 39.9281H120.608C120.512 39.0757 120.484 38.2043 120.484 37.2371V35.3499H121.825V41.8045H120.293L118.914 39.3148C118.53 38.6258 118.109 37.7923 117.794 37.0358L117.766 37.0452C117.803 37.8977 117.824 38.8082 117.824 39.8605V41.8045H116.482H116.479Z" fill="white"/>
<path d="M127.828 41.6222C127.561 41.7559 126.957 41.9004 126.172 41.9004C123.94 41.9004 122.791 40.5117 122.791 38.6731C122.791 36.4698 124.362 35.2445 126.315 35.2445C127.072 35.2445 127.646 35.3972 127.905 35.5323L127.608 36.6913C127.311 36.567 126.899 36.4522 126.383 36.4522C125.224 36.4522 124.324 37.152 124.324 38.588C124.324 39.8808 125.09 40.6954 126.392 40.6954C126.833 40.6954 127.322 40.5995 127.608 40.4847L127.828 41.6249V41.6222Z" fill="white"/>
<path d="M132.627 39.0742H130.252V40.6061H132.905V41.803H128.786V35.3484H132.77V36.5453H130.251V37.8868H132.626V39.0742H132.627Z" fill="white"/>
<path d="M130.453 11.3644H106.248C105.529 11.3644 104.947 11.9468 104.947 12.6653V12.9909C104.947 13.7094 105.529 14.2918 106.248 14.2918H130.453C131.172 14.2918 131.754 13.7094 131.754 12.9909V12.6653C131.754 11.9468 131.172 11.3644 130.453 11.3644Z" fill="#F2F2F2"/>
<path opacity="0.5" d="M206.794 185.142C169.831 177.537 139.137 180.974 128.512 180.326C117.887 179.678 56.302 179.021 43.2914 183.469C30.2808 187.918 52.4222 193.99 78.1071 191.171C103.792 188.351 119.59 188.924 160.482 191.891C201.372 194.857 211.846 186.182 206.794 185.142Z" fill="#C4C5C6"/>
<path d="M79.9091 74.6842C85.4573 78.691 97.3764 80.4377 101.178 80.6431C104.979 80.8484 99.0677 91.3288 99.0677 91.3288C99.0677 91.3288 88.8481 92.5622 84.0186 91.3288C79.1891 90.0954 79.9091 74.6842 79.9091 74.6842Z" fill="#5B79A5"/>
<path d="M70.388 178.598C70.4569 181.337 72.0186 182.968 74.5664 184.866C77.2385 186.854 77.3749 187.073 73.6761 187.562C69.9773 188.051 68.9493 186.374 66.4839 185.654C64.0185 184.933 65.5936 183.188 65.4558 181.544C65.3194 179.9 65.0857 177.229 65.0857 177.229L70.388 178.599V178.598Z" fill="#3A260A"/>
<path d="M91.9648 177.228C91.9648 177.228 93.6089 179.131 95.8014 181.023C97.9939 182.914 103.542 183.558 100.87 184.263C98.1993 184.969 95.2056 184.588 92.4552 184.983C89.7047 185.379 87.3069 184.996 87.1015 184.263C86.8962 183.531 87.1015 178.325 87.1015 178.325L91.9648 177.229V177.228Z" fill="#3A260A"/>
<path d="M99.535 57.3507C102.973 54.0855 109.294 58.2477 109.89 61.0143C111.423 68.1323 112.101 75.492 110.236 78.3843C108.37 81.2753 91.7565 83.095 91.9591 82.0683C92.1618 81.0416 92.2077 74.6531 94.9595 71.5285C97.7113 68.4038 96.4603 65.3859 96.9642 62.5003C97.5708 59.0298 98.9825 57.8735 99.5337 57.3507H99.535Z" fill="#703318"/>
<path d="M92.4333 78.1561C91.262 86.4507 90.1313 102.067 86.7419 105.87C83.3511 109.672 81.4639 118.738 81.4639 118.738C81.4639 118.738 92.4211 112.753 96.9061 98.0402C98.3124 93.4241 94.8798 82.6479 94.0476 81.6199C93.2155 80.5918 92.4333 78.1548 92.4333 78.1548V78.1561Z" fill="url(#paint10_linear_280_1096)"/>
<path d="M116.18 100.937C115.503 101.759 113.688 105.743 112.769 105.743C109.634 105.743 109.403 106.972 107.704 107.872C105.521 109.028 105.983 110.801 106.137 110.904C106.291 111.006 110.937 110.193 112.497 109.176C113.792 108.331 114.712 107.872 115.343 106.947C115.976 106.021 119.549 103.351 119.549 103.351L116.18 100.937Z" fill="#F7B284"/>
<path d="M113.009 76.3311C116.18 78.2467 116.762 80.0272 119.879 85.4389C122.995 90.8507 123.544 92.8027 124.776 94.7548C126.009 96.7069 126.42 98.9669 123.816 101.434C121.329 103.79 120.169 104.75 118.805 104.383C117.886 104.134 117.159 101.457 115.881 101.942C114.603 102.427 116.863 98.6589 118.028 97.5971C118.663 97.0189 118.918 97.0635 118.713 96.7987C118.507 96.5353 114.603 93.6241 111.349 89.4106C108.095 85.1984 113.008 76.3297 113.008 76.3297L113.009 76.3311Z" fill="url(#paint11_linear_280_1096)"/>
<path d="M122.96 96.5705C121.417 95.8775 119.489 95.9761 118.074 96.2449C118.437 96.5516 118.667 96.7421 118.713 96.8002C118.918 97.0636 118.661 97.019 118.028 97.5986C117.803 97.8039 117.537 98.1092 117.264 98.4658C118.344 97.8944 119.526 97.3797 120.494 97.2392C122.96 96.8799 123.115 97.5472 124.399 98.3699C125.683 99.1913 125.478 97.7026 122.96 96.5719V96.5705Z" fill="#046899"/>
<path d="M116.197 79.199C115.347 78.0386 114.444 77.1983 113.009 76.3324C113.009 76.3324 108.097 85.1998 111.35 89.4133C112.383 90.7507 113.482 91.9557 114.506 92.9878C114.572 90.1495 114.87 83.8043 116.197 79.199Z" fill="#046899"/>
<path d="M100.944 73.4009C96.6967 74.36 93.2694 75.6123 92.3927 78.0764C91.9672 79.272 94.4312 99.002 96.8966 101.195C101.656 105.426 109.501 101.469 109.501 101.469C109.501 101.469 113.063 92.5987 114.476 77.7076C114.844 76.3648 106.35 73.7265 104.981 73.4536C103.611 73.1807 100.945 73.4022 100.945 73.4022L100.944 73.4009Z" fill="url(#paint12_linear_280_1096)"/>
<path d="M102.374 178.065C102.374 178.065 96.5538 186.12 100.047 185.835C103.541 185.55 105.821 181.953 105.821 181.953C105.821 181.953 107.034 186.032 110.526 185.841C114.02 185.652 112.049 183.515 110.526 181.021C109.088 178.665 109.012 176.194 109.012 176.194L102.372 178.065H102.374Z" fill="#F09959"/>
<path d="M102.873 77.2537C101.432 77.2537 100.252 76.0744 100.252 74.6329V64.8713C100.252 63.4298 101.432 62.2518 102.873 62.2518C104.315 62.2518 105.493 63.4312 105.493 64.8713V74.6329C105.493 76.0744 104.313 77.2537 102.873 77.2537Z" fill="#F7B284"/>
<path d="M102.873 62.2518C101.432 62.2518 100.252 63.4312 100.252 64.8713V69.2901C101.949 71.7244 103.935 73.2293 105.493 74.1236V64.8713C105.493 63.4298 104.313 62.2518 102.873 62.2518Z" fill="#D69061"/>
<path d="M109.544 63.5635C110.363 67.0557 108.969 70.3681 106.429 70.9638C103.889 71.5596 101.167 69.2117 100.348 65.721C99.5298 62.2288 100.924 58.9164 103.464 58.3207C106.003 57.7249 108.725 60.0728 109.544 63.5635Z" fill="#F7B284"/>
<path d="M97.4858 100.019C97.4858 100.019 89.3182 106.184 91.9376 126.373C94.5571 146.562 97.3318 145.945 97.4858 155.654C97.6398 165.363 101.801 178.771 104.267 181.391C106.733 184.011 112.789 169.967 112.789 157.499C112.789 150.215 112.793 146.715 114.487 135.311C116.182 123.906 115.826 107.262 109.044 100.018C102.263 92.7744 97.4858 100.018 97.4858 100.018V100.019Z" fill="#F09959"/>
<path d="M104.103 145.169C104.096 140.391 102.514 130.238 102.875 116.2L92.4563 130.085C94.9123 146.523 97.3439 146.581 97.4871 155.654C97.6033 163.011 100.021 172.49 102.259 177.791C103.712 178.313 104.689 178.926 104.948 179.695C105.294 180.724 105.524 181.295 105.66 181.46C105.709 181.429 105.759 181.394 105.809 181.356C105.928 180.496 105.305 176.108 104.621 169.725C103.468 158.932 104.109 149.945 104.103 145.168V145.169Z" fill="#F7B284"/>
<path d="M93.8167 92.8081C95.1744 100.789 94.3598 101.869 92.455 108.496C90.5515 115.122 90.5259 132.692 90.5259 132.692C90.5259 132.692 95.6891 134.85 105.68 133.926C115.672 133.002 117.059 131.922 117.059 131.922C117.059 131.922 115.923 114.816 114.487 109.73C113.051 104.643 110.807 101.166 110.696 97.8956C110.586 94.6264 93.8167 92.8095 93.8167 92.8095V92.8081Z" fill="url(#paint13_linear_280_1096)"/>
<path d="M100.047 185.835C103.54 185.55 105.821 181.953 105.821 181.953C105.821 181.953 107.034 186.032 110.526 185.841C113.526 185.679 112.497 184.08 111.181 182.052C111.061 182.507 110.689 182.934 109.703 182.896C107.64 182.817 105.702 180.309 105.702 180.309C105.702 180.309 102.1 183.084 100.764 182.886C99.4296 182.688 101.414 179.476 101.415 179.473C99.9281 181.768 97.483 186.043 100.044 185.833L100.047 185.835Z" fill="#3E6BAB"/>
<path d="M120.463 138.797C120.053 143.421 120.481 146.915 119.65 150.716C118.819 154.518 117.071 155.751 117.071 155.751L115.531 137.976L120.463 138.797Z" fill="#EAA373"/>
<path d="M108.956 119.275C105.634 112.237 105.309 109.925 107.21 108.281C109.11 106.637 109.418 104.377 112.552 105.199C115.687 106.02 116.713 107.818 118.255 108.487C119.796 109.154 119.488 113.316 117.536 114.446C115.584 115.576 108.956 119.275 108.956 119.275Z" fill="#512A10"/>
<path d="M106.432 180.638C106.432 180.638 106.295 182.772 106.885 183.733C107.476 184.694 107.913 185.131 105.684 185.174C103.455 185.217 102.845 184.65 102.669 183.295C102.495 181.94 102.517 181.533 102.834 180.711C103.15 179.886 106.432 180.636 106.432 180.636V180.638Z" fill="#5B4118"/>
<path d="M117.998 180.975C117.998 180.975 120.515 183.235 122.005 183.75C123.495 184.263 121.405 185.394 118.774 184.83C116.142 184.265 116.353 185.035 115.018 184.419C113.682 183.803 114.906 180.523 114.906 180.523L117.997 180.978L117.998 180.975Z" fill="#5B4118"/>
<path d="M118.306 145.579C118.306 145.579 118.306 162.738 118.511 169.416C118.717 176.094 118.855 180.615 118.721 181.358C118.664 181.67 115.835 181.255 114.602 181.358C113.368 181.46 110.757 166.025 109.674 157.703C108.59 149.38 108.132 143.319 108.132 143.319L118.305 145.579H118.306Z" fill="#775A25"/>
<path d="M109.675 157.703C110.184 161.621 111.034 167.115 111.917 171.822C113.133 166.456 115.53 156.924 118.317 151.412C118.306 148.017 118.306 145.579 118.306 145.579L111.919 144.159C110.675 144.391 109.441 144.621 108.26 144.84C108.463 147.142 108.914 151.866 109.675 157.702V157.703Z" fill="#5B4118"/>
<path d="M103.716 141.88C103.203 150.306 102.406 169.732 102.676 174.04C102.971 178.715 102.38 180.513 102.38 180.513C102.38 180.513 103.511 180.924 105.36 181.129L106.533 181.259C106.533 181.259 111.217 168.902 112.142 160.374C113.067 151.846 115.533 145.167 115.533 145.167L103.716 141.879V141.88Z" fill="#775A25"/>
<path d="M117.104 124.005C121.081 129.345 121.491 139.825 121.491 139.825C121.491 139.825 119.869 141.059 118.317 140.441C116.765 139.825 117.104 124.003 117.104 124.003V124.005Z" fill="#D8A43D"/>
<path d="M112.86 121.173C117.587 122.254 119.539 127.701 119.642 132.016C119.745 136.33 118.923 147.941 118.923 148.352C118.923 148.763 109.676 149.586 106.285 148.866L102.895 148.147C102.895 148.147 101.969 130.988 102.895 126.775C103.82 122.563 109.882 120.611 109.882 120.611L112.862 121.173H112.86Z" fill="url(#paint14_radial_280_1096)"/>
<path d="M111.222 132.84C110.965 131.273 113.062 131.016 113.991 131.144C114.921 131.273 115.142 132.301 115.533 132.429C115.923 132.557 116.462 131.958 116.951 132.309C117.439 132.66 116.874 133.662 116.258 133.714C115.642 133.765 115.282 133.157 114.845 133.435C114.409 133.714 114.589 133.893 114.512 133.893C114.435 133.893 112.893 134.073 112.893 134.073C112.893 134.073 112.226 133.637 111.762 133.688C111.3 133.739 111.475 134.227 111.475 134.227C111.475 134.227 110.709 134.176 110.888 133.637C111.068 133.098 111.222 132.84 111.222 132.84Z" fill="#EDC055"/>
<path d="M114.715 133.893C115.184 133.373 115.666 133.868 115.872 134.047C116.077 134.227 115.508 134.582 115.05 134.587C114.591 134.592 114.717 133.893 114.717 133.893H114.715Z" fill="#EDC055"/>
<path d="M111.684 134.227C111.633 133.842 112.403 133.919 112.635 134.227C112.866 134.535 112.122 134.843 111.891 134.766C111.66 134.689 111.685 134.227 111.685 134.227H111.684Z" fill="#EDC055"/>
<path d="M110.399 134.586C110.348 134.432 108.37 133.61 108.601 132.865C108.832 132.121 110.143 133.726 110.143 133.726C110.143 133.726 109.244 131.76 109.706 131.606C110.168 131.452 110.348 132.84 110.399 133.25C110.451 133.661 110.399 134.586 110.399 134.586Z" fill="#EDC055"/>
<path d="M115.914 131.274C115.914 131.274 116.05 129.604 116.615 129.938C117.18 130.272 116.264 131.274 116.264 131.274C116.264 131.274 117.436 130.35 117.719 130.863C118.001 131.377 115.912 131.597 115.912 131.597V131.275L115.914 131.274Z" fill="#EDC055"/>
<path d="M106.906 141.88C107.322 136.64 108.442 129.345 105.256 124.105L104.404 124.005C103.692 124.787 103.127 125.709 102.894 126.777C101.968 130.989 102.894 148.148 102.894 148.148L106.284 148.867C106.438 148.899 106.605 148.929 106.782 148.956C106.705 147.438 106.661 144.961 106.906 141.881V141.88Z" fill="#D8A43D"/>
<path d="M111.473 124.105C110.088 124.105 108.956 122.971 108.956 121.588V116.964C108.956 115.579 110.09 114.447 111.473 114.447C112.856 114.447 113.99 115.58 113.99 116.964V121.588C114.355 124.005 113.095 124.313 111.473 124.105Z" fill="#EAA373"/>
<path d="M113.991 121.791V115.679C113.991 115.001 113.436 114.446 112.758 114.446H110.19C109.512 114.446 108.956 115.001 108.956 115.679V119.599C110.953 121.404 112.774 121.796 113.991 121.791Z" fill="#D68B58"/>
<path d="M118.007 113.812C118.465 117.121 116.786 120.086 114.257 120.436C111.728 120.786 109.306 118.389 108.848 115.081C108.39 111.772 110.069 108.807 112.598 108.457C115.127 108.107 117.549 110.504 118.007 113.812Z" fill="#EAA373"/>
<path d="M104.315 124.105C99.708 126.159 99.2973 141.059 99.092 143.319C98.8866 145.579 100.017 153.286 100.633 155.34C101.249 157.395 102.993 159.024 103.085 156.467C103.177 153.91 102.483 152.567 102.483 152.567C102.483 152.567 103.407 154.519 103.716 153.491C104.024 152.463 102.38 150.923 102.38 149.998C102.38 149.072 103.716 143.627 103.716 141.88C103.716 140.133 106.284 134.482 106.284 129.858C106.284 125.234 104.315 124.105 104.315 124.105Z" fill="#EAA373"/>
<path d="M105.871 122.698C101.662 124.413 100.38 129.345 99.0678 134.07L97.7561 138.797C97.7561 138.797 104.64 141.234 105.051 140.94C105.462 140.647 107.003 132.118 106.9 128.625C106.798 125.131 105.87 122.698 105.87 122.698H105.871Z" fill="url(#paint15_radial_280_1096)"/>
<path d="M109.784 115.166C110.094 115.982 109.898 116.814 109.345 117.023C108.793 117.233 108.094 116.741 107.785 115.925C107.476 115.109 107.672 114.277 108.224 114.067C108.777 113.858 109.475 114.35 109.784 115.166Z" fill="#EAA373"/>
<path d="M108.39 113.368C108.39 113.368 109.67 117.334 109.929 115.89C110.188 114.446 109.778 113.778 110.753 113.368C111.73 112.957 110.445 110.182 111.832 110.439C113.22 110.695 114.349 112.371 116.457 111.969C118.563 111.568 119.437 111.106 118.563 109.924C117.69 108.742 110.496 107.613 110.496 107.613L107.439 111.116L108.39 113.368Z" fill="#5E3315"/>
<path d="M115.018 184.828C116.354 185.444 116.143 184.674 118.773 185.239C121.405 185.803 123.814 184.417 122.325 183.903C122.29 183.891 122.253 183.877 122.217 183.864C121.728 184.109 121.251 184.458 121.046 184.623C120.702 184.897 119.812 184.692 118.587 184.486C117.362 184.281 117.574 184.635 117.278 184.315C116.982 183.996 115.777 183.154 114.403 183.153C114.353 183.885 114.473 184.578 115.016 184.829L115.018 184.828Z" fill="#3A260A"/>
<path d="M102.561 181.477C103.657 183.71 103.134 184.108 104.059 184.262C104.985 184.418 105.297 183.696 106.286 184.041C107.274 184.385 107.138 184.384 107.362 184.657C107.587 184.93 107.484 185.265 107.073 185.371C106.663 185.478 104.539 185.504 103.716 185.371C102.895 185.239 102.346 183.702 102.38 183.152C102.414 182.602 102.561 181.475 102.561 181.475V181.477Z" fill="#3A260A"/>
<path d="M75.7537 68.1147C74.1313 65.8357 72.5007 59.631 73.9502 58.9974C75.3998 58.3638 75.0364 57.3669 76.4859 55.5107C77.9354 53.6546 83.7768 52.9291 85.4965 56.0538C87.2176 59.1784 87.9551 59.4946 88.0159 61.171C88.0767 62.8462 83.9565 67.0124 83.9565 67.0124L75.7537 68.1147Z" fill="#512A10"/>
<path d="M114.028 104.508C113.555 105.218 113.102 105.743 112.769 105.743C109.634 105.743 109.403 106.972 107.704 107.872C105.521 109.028 105.983 110.801 106.137 110.904C106.291 111.006 110.937 110.193 112.497 109.176C113.792 108.331 114.712 107.872 115.343 106.947C115.464 106.77 115.693 106.529 115.982 106.256C115.28 105.735 114.626 105.149 114.028 104.508Z" fill="#F7B284"/>
<path d="M76.8265 60.0944C76.8265 60.0944 75.7985 72.7443 73.5384 74.1249C71.2783 75.5069 66.9622 80.6444 67.5796 91.7408C68.1956 102.837 69.0183 107.623 69.8396 111.91C70.661 116.195 86.0735 113.584 87.7176 111.91C89.3617 110.236 91.2111 94.9263 87.7176 87.1693C84.2241 79.411 80.32 75.0273 79.9093 73.109C79.4986 71.1907 82.1694 63.4851 82.1694 63.4851L76.8265 60.0944Z" fill="#E29460"/>
<path d="M79.867 72.6943C79.8156 70.2762 82.1689 63.4851 82.1689 63.4851L76.8261 60.0944C76.8261 60.0944 76.6018 62.8516 76.1331 65.933C76.8261 70.2154 78.2135 71.8594 79.867 72.6943Z" fill="#BF7645"/>
<path d="M86.5812 63.6486C87.0959 67.3649 85.8166 70.2734 83.1405 70.6436C80.4657 71.0137 77.4072 68.7064 76.8925 64.99C76.3778 61.2737 78.1286 57.9612 80.8047 57.5911C83.4795 57.2209 86.0665 59.9322 86.5812 63.6486Z" fill="#E29460"/>
<path d="M115.914 77.8697C117.487 78.8478 118.686 81.2943 117.997 83.2815C117.308 85.2673 116.354 82.7195 115.306 81.2605C114.257 79.8029 114.737 77.1389 115.914 77.8697Z" fill="#E29460"/>
<path d="M87.9309 104.458C86.8515 117.434 90.5003 146.715 90.526 153.343C90.5516 159.969 93.1981 178.09 93.1981 178.09C93.1981 178.09 88.8833 179.33 87.1879 179.473C85.4925 179.618 80.5968 163.05 79.8713 154.267C79.1472 145.482 74.5649 129.893 74.5649 129.893L76.1347 103.148L87.9322 104.458H87.9309Z" fill="url(#paint16_linear_280_1096)"/>
<path d="M87.9307 104.458L76.1332 103.148L74.5635 129.893C74.5635 129.893 79.1458 145.483 79.8699 154.267C79.8793 154.381 79.8901 154.498 79.9009 154.615C79.9887 141.076 83.9253 135.198 88.0847 120.863C87.7268 114.567 87.5809 108.658 87.9294 104.458H87.9307Z" fill="#5B5E60"/>
<path d="M87.4688 108.804C81.9206 127.606 76.8344 145.329 73.445 157.043C70.0542 168.755 71.0728 180.796 71.0728 180.796L65.3706 181.251C65.3706 181.251 58.9578 161.945 63.2726 151.496C67.5874 141.047 65.5354 134.751 66.3554 124.988C67.2807 113.974 68.8343 105.927 68.8343 105.927L87.4688 108.806V108.804Z" fill="url(#paint17_linear_280_1096)"/>
<path d="M87.7173 87.1694C85.8409 83.0032 83.8469 79.811 82.338 77.4496C81.672 77.3564 80.829 77.2726 79.8712 77.2537C78.2812 77.2226 75.5118 75.1814 73.861 73.8413C73.7556 73.9615 73.6475 74.0575 73.5368 74.125C71.2767 75.507 66.9605 80.6445 67.5779 91.7409C68.1939 102.837 65.8649 106.627 66.6876 110.912C67.509 115.197 86.0732 113.582 87.7173 111.909C89.3614 110.235 91.2108 94.925 87.7173 87.1681V87.1694Z" fill="url(#paint18_radial_280_1096)"/>
<path d="M73.2653 71.4651L71.5969 75.8664L82.1705 80.165L83.3917 79.1167C83.3917 79.1167 81.7598 76.7404 82.1705 75.3017C82.5812 73.863 83.0608 73.4523 82.1705 73.1092C81.2803 72.7674 78.1137 72.2189 76.1346 71.4651C74.1555 70.7113 73.6098 70.5586 73.2653 71.4651Z" fill="#7E9AC4"/>
<path d="M89.606 96.1516C89.3952 92.8486 88.8265 89.628 87.7174 87.168C87.3094 86.2615 86.8947 85.4037 86.4827 84.5878L85.1493 84.0082C85.1493 84.0082 77.7517 78.102 72.9222 79.2044C68.0927 80.3067 67.8874 98.2955 70.6622 100.268C73.4369 102.24 81.7585 97.2336 84.328 96.7987C85.9963 96.5163 88.2389 96.2813 89.606 96.1502V96.1516Z" fill="#5B79A5"/>
<path d="M108.358 88.7594C105.34 88.754 102.251 88.5027 99.6893 87.7165C91.9837 85.3537 77.5586 79.4462 74.7217 79.8325C72.4981 80.1351 69.8922 82.5789 70.2002 90.1819C70.5082 97.7848 74.4124 96.2434 79.2892 94.9965C84.166 93.7496 90.7462 94.5129 99.6879 94.9965C102.718 95.16 106.037 94.6723 109.101 93.955C108.935 92.2136 108.681 90.4872 108.357 88.7594H108.358Z" fill="url(#paint19_linear_280_1096)"/>
<path d="M119.455 89.3172C118.933 89.0336 114.487 89.2659 110.237 89.1578C110.502 90.6425 111.189 93.0984 111.349 94.598C115.905 93.27 119.542 93.139 119.542 93.139C119.542 93.139 120.402 89.8306 119.455 89.3172Z" fill="#E29460"/>
<path d="M106.047 88.4244C108.771 88.4677 113.289 88.1286 113.91 88.5406C114.532 88.9526 115.631 93.7943 113.454 94.4117C105.493 96.6718 96.5537 95.0466 85.868 94.3185C75.1823 93.5903 97.9694 87.1681 97.9694 87.1681C97.9694 87.1681 103.777 88.388 106.045 88.4244H106.047Z" fill="url(#paint20_linear_280_1096)"/>
<path d="M75.7539 68.1147C77.5682 67.2177 76.6671 65.4751 76.8252 64.3187C76.9832 63.1623 76.4793 62.2369 76.9116 62.3153C77.3452 62.3936 77.248 66.7517 77.7951 66.7233C78.3422 66.6949 78.1382 63.4352 78.7151 63.3447C79.2919 63.2542 79.5189 62.4423 79.0663 61.0144C78.6138 59.5864 78.9758 58.3179 80.1984 59.45C81.4209 60.5821 84.1376 63.2082 85.7223 62.8462C87.3069 62.4841 87.2164 60.8536 87.0813 60.6726C86.9448 60.4915 82.8705 55.9174 82.8705 55.9174L74.8109 60.5361L74.584 64.7469L75.7539 68.1134V68.1147Z" fill="#5E3315"/>
<path d="M77.2005 63.1704C77.3085 64.266 77.3464 65.9263 77.4409 66.1641C76.7222 66.4572 75.8036 65.8682 75.3875 64.8496C74.9715 63.831 75.0106 62.4936 75.7374 62.2234C76.19 62.0559 77.0735 61.8952 77.1991 63.1704H77.2005Z" fill="#E29460"/>
<path d="M109.102 60.7118C107.959 64.4106 101.589 64.4619 101.281 65.49C100.973 66.518 101.186 69.7291 100.253 72.2715C98.7625 76.3324 97.806 78.4533 95.731 79.0707C93.6574 79.6867 92.7847 76.2513 92.7847 76.2513C92.7847 76.2513 96.5024 71.3475 96.7077 71.2448C96.9131 71.1422 98.8692 58.6071 98.8692 58.6071C98.8692 58.6071 103.849 57.6938 104.105 57.5601C104.362 57.4264 107.958 59.0191 107.958 59.0191L109.101 60.7145L109.102 60.7118Z" fill="#823E23"/>
<path d="M114.727 89.5118C115.52 89.5118 119.579 87.2396 120.349 87.168C121.12 87.0964 124.15 87.9218 124.15 87.9218C124.15 87.9218 118.303 92.4541 118.195 92.396C118.088 92.3366 114.726 89.5118 114.726 89.5118H114.727Z" fill="#E29460"/>
<path d="M131.753 93.4173L127.336 92.9877C127.336 92.9877 124.97 95.0829 122.814 95.5693C120.658 96.0556 118.91 93.7469 118.91 93.7469L122.257 89.8238L128.158 89.1578L132.628 89.6158L131.754 93.4173H131.753Z" fill="#EAAC81"/>
<path d="M117.059 92.8081C117.059 92.8081 119.785 95.0034 122.097 95.3181C124.408 95.6329 125.693 94.5076 126.515 93.747C127.337 92.9878 124.769 92.207 123.845 91.3005C122.919 90.3954 123.588 88.8959 123.588 88.8959H119.55L117.06 92.8081H117.059Z" fill="#E29460"/>
<path d="M131.753 89.158L127.284 88.6676C127.284 88.6676 125.435 87.0343 124.509 87.1694C123.585 87.3045 121.217 89.158 121.217 89.158C121.217 89.158 119.191 91.0533 119.897 91.2587C120.604 91.464 122.659 90.8669 122.915 90.3941C123.172 89.9226 122.402 90.5575 124.713 90.3941C127.025 90.2306 127.281 89.8226 127.281 89.8226L131.75 90.1793V89.1566L131.753 89.158Z" fill="#EAAC81"/>
<path d="M118.379 93.9563C118.963 93.058 119.777 92.523 121.22 93.32C122.663 94.1171 123.083 95.2383 122.817 95.5693C122.551 95.9003 119.834 95.0195 118.815 94.7128C118.025 94.4751 118.379 93.9577 118.379 93.9577V93.9563Z" fill="#EAAC81"/>
<path d="M173.689 66.8206C174.465 63.8973 176.59 56.8455 173.21 55.3001C169.828 53.7546 168.138 51.4837 164.757 52.6442C161.376 53.8032 162.052 56.4605 160.845 57.9087C159.637 59.3568 161.666 64.0918 163.598 65.7818C165.53 67.4718 173.689 66.8206 173.689 66.8206Z" fill="#131126"/>
<path d="M131.713 88.7905L128.866 88.6676L127.644 94.1874L132.427 95.0885L131.713 88.7905Z" fill="#F2E5DE"/>
<path d="M176.938 78.0494C181.407 84.3298 178.685 89.131 173.111 93.2026C167.537 97.2743 154.416 98.5455 148.868 98.7913C143.32 99.0372 129.448 94.7791 129.448 94.7791L130.305 88.669C130.305 88.669 143.44 89.9226 148.526 89.0513C153.612 88.1786 171.644 78.0508 171.644 78.0508H176.938V78.0494Z" fill="#58556E"/>
<path d="M166.517 80.8472C164.925 81.6982 163.086 82.6655 161.189 83.6314C159.348 88.4244 158.831 93.3377 149.894 96.5988C147.821 97.3553 145.852 97.8822 144.037 98.2429C145.904 98.6225 147.602 98.8467 148.868 98.7913C152.889 98.613 161.93 99.1291 168.151 97.1959C167.964 92.4137 166.675 84.8513 166.517 80.8472Z" fill="#3A384D"/>
<path d="M171.745 60.8428L175.136 71.8554L168.149 80.4526L170.204 73.0699L168.149 65.5169L171.745 60.8428Z" fill="#EFB68F"/>
<path d="M171.745 60.8428L168.149 65.5169L170.192 73.0266C171.462 70.8328 172.519 68.1931 173.11 65.2765L171.745 60.8428Z" fill="#D69061"/>
<path d="M171.861 65.29C170.693 68.9266 167.552 71.1692 164.847 70.2992C162.142 69.4292 160.896 65.7777 162.063 62.141C163.232 58.5044 166.371 56.2618 169.077 57.1318C171.783 58.0018 173.029 61.6533 171.861 65.29Z" fill="#EAAC81"/>
<path d="M168.526 76.3229C168.526 76.3229 166.461 77.5563 166.466 78.5154C166.471 79.4746 166.466 80.023 166.466 80.023C166.466 80.023 164.691 82.7411 163.321 86.2453C161.951 89.7496 162.023 91.5301 162.023 91.5301L170.709 78.3128L168.528 76.3242L168.526 76.3229Z" fill="#BC312E"/>
<path d="M180.752 180.539C180.683 183.279 177.661 185.215 176.228 185.941C171.732 188.224 170.954 189.65 175.884 189.578C179.616 189.523 182.186 188.065 186.228 187.791C188.791 187.616 186.944 184.77 187.082 183.126C187.219 181.482 186.054 179.169 186.054 179.169L180.752 180.539Z" fill="#3A384D"/>
<path d="M159.173 179.169C159.173 179.169 158.266 180.419 156.074 182.31C153.882 184.201 146.156 184.263 150.27 186.205C152.769 187.384 157.369 186.529 160.119 186.925C162.87 187.321 165.267 186.938 165.473 186.205C165.678 185.471 164.909 180.462 164.909 180.462L159.173 179.169Z" fill="#3A384D"/>
<path d="M163.208 106.4C164.287 119.375 160.638 148.656 160.612 155.284C160.587 161.911 156.842 181.185 156.842 181.185C156.842 181.185 164.071 184.119 165.766 184.262C167.462 184.407 171.054 167.451 171.778 158.666C172.502 149.881 176.572 131.835 176.572 131.835L175.002 105.089L163.205 106.4H163.208Z" fill="#58556E"/>
<path d="M170.81 166.177C171.258 163.432 171.604 160.808 171.781 158.666C172.505 149.881 176.575 131.835 176.575 131.835L176.051 122.912L163.057 122.727C162.786 127.502 162.393 132.502 162 137.152C166.992 148.033 169.596 159.497 170.807 166.177H170.81Z" fill="#3A384D"/>
<path d="M163.671 110.745C168.696 137.976 172.396 148.805 175.787 160.517C179.178 172.23 178.405 184.263 178.405 184.263L187.806 185.463C187.806 185.463 191.482 164.147 187.867 153.434C185.649 146.863 187.117 137.96 186.297 128.197C185.373 117.183 184.571 105.924 184.571 105.924L163.671 110.744V110.745Z" fill="#58556E"/>
<path d="M183.215 120.252L166.969 127.268C167.042 127.603 166.896 129.26 166.969 129.589C174.927 130.253 179.962 129.499 186.48 131.075C186.33 129.165 186.026 124.663 185.899 122.727L183.215 120.25V120.252Z" fill="#3A384D"/>
<path d="M176.321 72.8606C183.103 79.2761 185.57 86.0563 185.34 89.7821C184.878 97.3242 186.312 126.33 186.312 126.33C186.312 126.33 182.329 127.236 175.654 128.457C168.979 129.677 162.539 127.893 162.539 127.893C162.539 127.893 161.41 107.171 161.462 94.1577C161.495 86.2238 176.321 72.8606 176.321 72.8606Z" fill="#58556E"/>
<path d="M182.961 127.04C183.136 123.61 184.364 99.4681 184.172 99.0858C183.967 98.6751 176.157 80.454 176.157 80.454C171.979 86.14 171.716 97.9902 171.779 104.361C171.836 110.101 173.565 125.681 173.907 128.711C174.485 128.648 175.068 128.564 175.653 128.457C178.596 127.92 181.09 127.427 182.959 127.042L182.961 127.04Z" fill="#3A384D"/>
<path d="M175.787 71.1178L174.486 68.5822L168.149 73.7197L167.772 80.7579L175.787 71.1178Z" fill="#F2E5DE"/>
<path d="M174.692 76.8025C174.692 76.8025 177.276 75.6164 179.657 76.4418C178.679 75.2449 177.782 74.0561 176.321 72.6741C176.321 72.6741 161.495 86.0373 161.463 93.9712C161.454 95.9097 161.502 97.8753 161.588 99.8152C161.637 95.8409 161.063 92.9688 164.964 87.78C168.422 83.1815 175.788 79.4057 175.788 79.4057L174.692 76.8025Z" fill="#3A384D"/>
<path d="M175.856 70.4869L177.721 74.0493L173.111 77.3509L174.35 79.4057C174.35 79.4057 168.794 82.9396 166.468 84.7485C162.569 87.78 161.199 94.9546 161.199 94.9546C161.199 94.9546 161.747 87.78 166.468 81.8305C170.785 76.3891 175.858 70.4869 175.858 70.4869H175.856Z" fill="#58556E"/>
<path d="M169.477 126.696L189.242 129.094L187.904 142.177L169.106 140.251L169.477 126.696Z" fill="#BDCCD4"/>
<path d="M180.788 118.232L178.801 125.518L175.787 127.552L178.228 127.945C178.228 127.945 177.787 132.276 176.959 134.246C176.13 136.214 177.021 136.871 180.378 134.574C183.735 132.278 184.666 131.162 184.44 128.471C184.214 125.78 183.598 125.453 183.94 123.221C184.283 120.989 180.721 117.773 180.721 117.773L180.79 118.232H180.788Z" fill="#EFB68F"/>
<path d="M178.667 121.905L177.982 125.646L184.479 126.696L185.555 121.905H178.667Z" fill="#F2E5DE"/>
<path d="M180.457 78.0495C182.907 79.0559 186.023 87.9841 190.581 103.888C191.682 107.732 185.556 125.123 185.556 125.123C185.556 125.123 177.729 124.625 177.631 123.368C177.576 122.648 181.073 108.846 180.611 107.517C180.149 106.188 177.45 102.134 175.136 93.0824C172.822 84.0313 175.995 76.2163 180.457 78.0495Z" fill="#58556E"/>
<path d="M162.256 56.6537C159.83 62.7396 165.1 62.1114 167.317 60.2282C169.534 58.345 169.82 59.9729 169.776 62.2086C169.734 64.308 170.571 62.7733 170.378 65.1401C170.185 67.5069 170.032 67.6191 170.809 66.7977C171.586 65.9763 171.829 62.9814 171.829 62.9814C171.829 62.9814 171.648 66.8585 172.756 67.1233C173.863 67.388 173.689 66.822 173.689 66.822L173.939 60.3255L169.056 54.8678C169.056 54.8678 162.79 54.9164 162.783 55.1096C162.776 55.3028 162.256 56.6551 162.256 56.6551V56.6537Z" fill="#242333"/>
<path d="M171.83 62.98C172.583 61.3373 174.239 62.1113 173.797 64.0431C173.355 65.9749 171.538 66.1492 171.538 66.1492L171.83 62.98Z" fill="#EFB68F"/>
<path d="M39.5776 5.02175C49.5271 5.02175 62.5985 1.27837 66.6364 0.0449894C67.247 -0.141436 67.8779 0.274647 67.8779 0.866346V28.5398C67.8779 49.9234 40.0099 67.2583 40.0099 67.2583C40.0099 67.2583 12.1433 49.9234 12.1433 28.5398V2.14971C12.1433 1.58233 12.7269 1.16895 13.3254 1.31215C17.1674 2.23212 29.6309 5.02175 39.5776 5.02175Z" fill="#01A35B"/>
<path opacity="0.7" d="M40.0101 9.57434C47.4739 9.57434 56.7533 7.1265 61.4153 5.19469C62.8054 4.6192 64.3805 5.54998 64.3805 6.94952V29.1572C64.3805 47.8578 40.0101 63.0178 40.0101 63.0178C40.0101 63.0178 15.6396 47.8578 15.6396 29.1572V7.91543C15.6396 6.57127 17.1013 5.64319 18.4739 6.11061C23.0899 7.68577 32.4747 9.57299 40.0087 9.57299L40.0101 9.57434Z" fill="#83C6A2"/>
<path opacity="0.7" d="M40.268 15.5886V57.0994C40.268 57.0994 20.8865 44.7494 20.8865 30.0744V13.2529C20.8865 12.2721 21.9564 11.5966 22.9561 11.9438C26.5765 13.2015 34.2456 15.5899 40.268 15.5899V15.5886Z" fill="#CBEFDE"/>
<path opacity="0.7" d="M40.2681 15.6075V57.1183C40.2681 57.1183 60.3426 44.7683 60.3426 30.0934V13.2326C60.3426 12.2627 59.293 11.5845 58.2987 11.9141C54.5418 13.1583 46.3688 15.6075 40.2694 15.6075H40.2681Z" fill="#B3E2CA"/>
<mask id="mask0_280_1096" style="mask-type:luminance" maskUnits="userSpaceOnUse" x="12" y="0" width="56" height="68">
<path d="M39.5776 5.02175C49.5271 5.02175 62.5985 1.27837 66.6364 0.0449894C67.247 -0.141436 67.8779 0.274647 67.8779 0.866346V28.5398C67.8779 49.9234 40.0099 67.2583 40.0099 67.2583C40.0099 67.2583 12.1433 49.9234 12.1433 28.5398V2.14971C12.1433 1.58233 12.7269 1.16895 13.3254 1.31215C17.1674 2.23212 29.6309 5.02175 39.5776 5.02175Z" fill="white"/>
</mask>
<g mask="url(#mask0_280_1096)">
<g style="mix-blend-mode:overlay" opacity="0.47">
<path d="M19.8152 28.2682C22.3873 36.6547 23.8436 49.8922 24.5258 57.7194C17.3403 51.0203 10.2048 43.1161 9.84545 38.9863C9.3956 33.8204 8.5148 18.9253 8.66746 8.57056C11.6368 12.1005 17.1012 19.4184 19.8152 28.2682Z" fill="url(#paint21_linear_280_1096)"/>
<path d="M31.2856 45.0249C29.1768 35.2457 23.118 10.8387 6.89355 3.26823C7.13132 0.0449579 7.57576 -2.0368 8.32012 -2.08138C11.2921 -2.26105 14.8045 -0.550793 14.8045 -0.550793C30.6547 -0.641304 38.4009 23.4049 39.1209 27.5482C39.8409 31.6914 39.0304 68.2741 37.4998 69.2562C37.1661 69.471 35.6004 68.5402 33.3485 66.8692C33.2917 62.4692 32.9648 52.817 31.2856 45.0263V45.0249Z" fill="url(#paint22_linear_280_1096)"/>
</g>
</g>
<defs>
<linearGradient id="paint0_linear_280_1096" x1="159.429" y1="137.048" x2="216.666" y2="137.048" gradientUnits="userSpaceOnUse">
<stop stop-color="#00646F"/>
<stop offset="1" stop-color="#00A551"/>
</linearGradient>
<linearGradient id="paint1_linear_280_1096" x1="157.547" y1="59.9498" x2="189.075" y2="59.9498" gradientUnits="userSpaceOnUse">
<stop stop-color="#00646F"/>
<stop offset="1" stop-color="#00A551"/>
</linearGradient>
<linearGradient id="paint2_linear_280_1096" x1="154.69" y1="80.3528" x2="222.406" y2="80.3528" gradientUnits="userSpaceOnUse">
<stop stop-color="#00646F"/>
<stop offset="1" stop-color="#00A551"/>
</linearGradient>
<linearGradient id="paint3_linear_280_1096" x1="166.096" y1="110.143" x2="209.099" y2="110.143" gradientUnits="userSpaceOnUse">
<stop stop-color="#00646F"/>
<stop offset="1" stop-color="#00A551"/>
</linearGradient>
<linearGradient id="paint4_linear_280_1096" x1="158.186" y1="110.143" x2="158.914" y2="110.143" gradientUnits="userSpaceOnUse">
<stop stop-color="#00646F"/>
<stop offset="1" stop-color="#00A551"/>
</linearGradient>
<linearGradient id="paint5_linear_280_1096" x1="167.859" y1="91.4546" x2="191.454" y2="91.4546" gradientUnits="userSpaceOnUse">
<stop stop-color="#00646F"/>
<stop offset="1" stop-color="#00A551"/>
</linearGradient>
<linearGradient id="paint6_linear_280_1096" x1="34.551" y1="127.626" x2="59.7401" y2="127.626" gradientUnits="userSpaceOnUse">
<stop stop-color="#00646F"/>
<stop offset="1" stop-color="#00A551"/>
</linearGradient>
<linearGradient id="paint7_linear_280_1096" x1="-0.00135091" y1="165.049" x2="51.8723" y2="165.049" gradientUnits="userSpaceOnUse">
<stop stop-color="#00A551"/>
<stop offset="1" stop-color="#00646F"/>
</linearGradient>
<linearGradient id="paint8_linear_280_1096" x1="152.344" y1="146.392" x2="231.999" y2="146.392" gradientUnits="userSpaceOnUse">
<stop stop-color="#00646F"/>
<stop offset="1" stop-color="#00A551"/>
</linearGradient>
<linearGradient id="paint9_linear_280_1096" x1="160.037" y1="168.697" x2="218.879" y2="168.697" gradientUnits="userSpaceOnUse">
<stop stop-color="#00646F"/>
<stop offset="1" stop-color="#00A551"/>
</linearGradient>
<linearGradient id="paint10_linear_280_1096" x1="89.3518" y1="78.1561" x2="89.3518" y2="118.738" gradientUnits="userSpaceOnUse">
<stop stop-color="#006597"/>
<stop offset="1" stop-color="#9BD6E8"/>
</linearGradient>
<linearGradient id="paint11_linear_280_1096" x1="117.99" y1="104.458" x2="117.99" y2="76.3311" gradientUnits="userSpaceOnUse">
<stop stop-color="#006597"/>
<stop offset="1" stop-color="#9BD6E8"/>
</linearGradient>
<linearGradient id="paint12_linear_280_1096" x1="103.416" y1="103.148" x2="103.416" y2="73.3158" gradientUnits="userSpaceOnUse">
<stop stop-color="#006597"/>
<stop offset="1" stop-color="#9BD6E8"/>
</linearGradient>
<linearGradient id="paint13_linear_280_1096" x1="103.792" y1="92.8081" x2="103.792" y2="134.154" gradientUnits="userSpaceOnUse">
<stop stop-color="#006597"/>
<stop offset="1" stop-color="#9BD6E8"/>
</linearGradient>
<radialGradient id="paint14_radial_280_1096" cx="0" cy="0" r="1" gradientUnits="userSpaceOnUse" gradientTransform="translate(111.066 134.881) scale(11.7759 11.7759)">
<stop stop-color="#FFDC83"/>
<stop offset="1" stop-color="#F5CE5C"/>
</radialGradient>
<radialGradient id="paint15_radial_280_1096" cx="0" cy="0" r="1" gradientUnits="userSpaceOnUse" gradientTransform="translate(102.332 131.832) scale(7.22333 7.22333)">
<stop stop-color="#FFDC83"/>
<stop offset="1" stop-color="#F5CE5C"/>
</radialGradient>
<linearGradient id="paint16_linear_280_1096" x1="74.5649" y1="141.311" x2="93.1981" y2="141.311" gradientUnits="userSpaceOnUse">
<stop stop-color="#74787C"/>
<stop offset="1" stop-color="#606366"/>
</linearGradient>
<linearGradient id="paint17_linear_280_1096" x1="87.4688" y1="143.588" x2="61.7798" y2="143.588" gradientUnits="userSpaceOnUse">
<stop stop-color="#74787C"/>
<stop offset="1" stop-color="#606366"/>
</linearGradient>
<radialGradient id="paint18_radial_280_1096" cx="0" cy="0" r="1" gradientUnits="userSpaceOnUse" gradientTransform="translate(78.1069 93.747) scale(16.2893)">
<stop stop-color="#89A2CC"/>
<stop offset="1" stop-color="#708EBA"/>
</radialGradient>
<linearGradient id="paint19_linear_280_1096" x1="105.173" y1="100.762" x2="71.9199" y2="81.563" gradientUnits="userSpaceOnUse">
<stop stop-color="#89A2CC"/>
<stop offset="1" stop-color="#708EBA"/>
</linearGradient>
<linearGradient id="paint20_linear_280_1096" x1="83.0176" y1="91.3694" x2="114.745" y2="91.3694" gradientUnits="userSpaceOnUse">
<stop stop-color="#89A2CC"/>
<stop offset="1" stop-color="#708EBA"/>
</linearGradient>
<linearGradient id="paint21_linear_280_1096" x1="-13.9482" y1="-13.1467" x2="49.8784" y2="88.7742" gradientUnits="userSpaceOnUse">
<stop stop-color="white"/>
<stop offset="1" stop-color="#01A35B"/>
</linearGradient>
<linearGradient id="paint22_linear_280_1096" x1="-4.42033" y1="-20.3552" x2="59.4062" y2="81.5671" gradientUnits="userSpaceOnUse">
<stop stop-color="white"/>
<stop offset="1" stop-color="#01A35B"/>
</linearGradient>
</defs>
</svg>
