<svg width="16" height="17" viewBox="0 0 16 17" fill="none" xmlns="http://www.w3.org/2000/svg">
<g clip-path="url(#clip0_92_1269)">
<path d="M3.29896 15.4338L3.37339 5.31358L-0.0568202 5.28836L-0.131247 15.4086L3.29896 15.4338ZM1.6689 3.9184C2.86507 3.9272 3.61535 3.15556 3.62249 2.18443C3.60751 1.19123 2.89083 0.430373 1.71731 0.421743C0.543975 0.413114 -0.228873 1.16303 -0.236176 2.15605C-0.243318 3.12723 0.495344 3.90977 1.6465 3.91824L1.66879 3.9184L1.6689 3.9184ZM5.19757 15.4478L8.62778 15.473L8.66934 9.82136C8.67157 9.5189 8.69608 9.21691 8.78825 9.00135C9.04067 8.39886 9.60968 7.77711 10.5573 7.78408C11.7985 7.7932 12.2882 8.72491 12.2782 10.0854L12.2384 15.4995L15.6684 15.5247L15.7111 9.72186C15.734 6.61332 14.0523 5.15451 11.7954 5.13792C9.94498 5.12431 9.12504 6.13263 8.66859 6.82015L8.69149 6.82032L8.70229 5.35256L5.27208 5.32734C5.31011 6.27729 5.19765 15.4475 5.19765 15.4475L5.19757 15.4478Z" fill="#01A35B"/>
</g>
<defs>
<clipPath id="clip0_92_1269">
<rect width="16" height="15" fill="white" transform="translate(15.1173 0.110352) rotate(90.4214)"/>
</clipPath>
</defs>
</svg>
