<svg width="19" height="14" viewBox="0 0 19 14" fill="none" xmlns="http://www.w3.org/2000/svg">
<path d="M18.0782 1.6905C17.4021 1.97001 16.6858 2.15147 15.9531 2.22886C16.7189 1.79907 17.3094 1.11391 17.5911 0.294449C16.8633 0.698915 16.0681 0.98181 15.2399 1.13091C14.5713 0.442254 13.6148 0.00790659 12.5526 9.49768e-05C10.5132 -0.0149036 8.84809 1.54813 8.83381 3.49093C8.83178 3.7667 8.8625 4.03541 8.92353 4.29342C5.85555 4.12409 3.14483 2.70352 1.33909 0.561645C1.01746 1.0789 0.830915 1.68196 0.826174 2.32661C0.817197 3.54719 1.46127 4.62875 2.44745 5.26695C1.86115 5.24514 1.28873 5.09003 0.777993 4.81457C0.777674 4.8293 0.777565 4.84404 0.777457 4.85884C0.764921 6.56338 2.02737 7.99467 3.71427 8.33029C3.16944 8.46719 2.59889 8.48361 2.0462 8.37832C2.50581 9.77945 3.86214 10.8066 5.47781 10.8469C4.20704 11.7812 2.61058 12.3319 0.880517 12.3192C0.5824 12.317 0.288625 12.2982 -4.28004e-05 12.2635C1.62685 13.2738 3.56363 13.8705 5.64904 13.8858C12.4415 13.9357 16.1953 8.60228 16.2294 3.95334C16.2306 3.80075 16.2282 3.649 16.2221 3.4981C16.9487 3.00552 17.5773 2.39341 18.0782 1.6905Z" fill="#01A35B"/>
</svg>
